%TF.GenerationSoftware,KiCad,Pcbnew,7.0.7*%
%TF.CreationDate,2023-09-21T17:56:25-04:00*%
%TF.ProjectId,Little_Master_Board,4c697474-6c65-45f4-9d61-737465725f42,rev?*%
%TF.SameCoordinates,Original*%
%TF.FileFunction,Soldermask,Bot*%
%TF.FilePolarity,Negative*%
%FSLAX46Y46*%
G04 Gerber Fmt 4.6, Leading zero omitted, Abs format (unit mm)*
G04 Created by KiCad (PCBNEW 7.0.7) date 2023-09-21 17:56:25*
%MOMM*%
%LPD*%
G01*
G04 APERTURE LIST*
G04 APERTURE END LIST*
G36*
X154237464Y-76026602D02*
G01*
X154399800Y-76098878D01*
X154543561Y-76203327D01*
X154662464Y-76335383D01*
X154751314Y-76489274D01*
X154806225Y-76658275D01*
X154824800Y-76835000D01*
X154806225Y-77011725D01*
X154751314Y-77180726D01*
X154662464Y-77334617D01*
X154543561Y-77466673D01*
X154399800Y-77571122D01*
X154237464Y-77643398D01*
X154063649Y-77680344D01*
X153885951Y-77680344D01*
X153712136Y-77643398D01*
X153549800Y-77571122D01*
X153406039Y-77466673D01*
X153287136Y-77334617D01*
X153198286Y-77180726D01*
X153143375Y-77011725D01*
X153124800Y-76835000D01*
X153143375Y-76658275D01*
X153198286Y-76489274D01*
X153287136Y-76335383D01*
X153406039Y-76203327D01*
X153549800Y-76098878D01*
X153712136Y-76026602D01*
X153885951Y-75989656D01*
X154063649Y-75989656D01*
X154237464Y-76026602D01*
G37*
G36*
X156777464Y-76026602D02*
G01*
X156939800Y-76098878D01*
X157083561Y-76203327D01*
X157202464Y-76335383D01*
X157291314Y-76489274D01*
X157346225Y-76658275D01*
X157364800Y-76835000D01*
X157346225Y-77011725D01*
X157291314Y-77180726D01*
X157202464Y-77334617D01*
X157083561Y-77466673D01*
X156939800Y-77571122D01*
X156777464Y-77643398D01*
X156603649Y-77680344D01*
X156425951Y-77680344D01*
X156252136Y-77643398D01*
X156089800Y-77571122D01*
X155946039Y-77466673D01*
X155827136Y-77334617D01*
X155738286Y-77180726D01*
X155683375Y-77011725D01*
X155664800Y-76835000D01*
X155683375Y-76658275D01*
X155738286Y-76489274D01*
X155827136Y-76335383D01*
X155946039Y-76203327D01*
X156089800Y-76098878D01*
X156252136Y-76026602D01*
X156425951Y-75989656D01*
X156603649Y-75989656D01*
X156777464Y-76026602D01*
G37*
G36*
X154237464Y-73486602D02*
G01*
X154399800Y-73558878D01*
X154543561Y-73663327D01*
X154662464Y-73795383D01*
X154751314Y-73949274D01*
X154806225Y-74118275D01*
X154824800Y-74295000D01*
X154806225Y-74471725D01*
X154751314Y-74640726D01*
X154662464Y-74794617D01*
X154543561Y-74926673D01*
X154399800Y-75031122D01*
X154237464Y-75103398D01*
X154063649Y-75140344D01*
X153885951Y-75140344D01*
X153712136Y-75103398D01*
X153549800Y-75031122D01*
X153406039Y-74926673D01*
X153287136Y-74794617D01*
X153198286Y-74640726D01*
X153143375Y-74471725D01*
X153124800Y-74295000D01*
X153143375Y-74118275D01*
X153198286Y-73949274D01*
X153287136Y-73795383D01*
X153406039Y-73663327D01*
X153549800Y-73558878D01*
X153712136Y-73486602D01*
X153885951Y-73449656D01*
X154063649Y-73449656D01*
X154237464Y-73486602D01*
G37*
G36*
X156777464Y-73486602D02*
G01*
X156939800Y-73558878D01*
X157083561Y-73663327D01*
X157202464Y-73795383D01*
X157291314Y-73949274D01*
X157346225Y-74118275D01*
X157364800Y-74295000D01*
X157346225Y-74471725D01*
X157291314Y-74640726D01*
X157202464Y-74794617D01*
X157083561Y-74926673D01*
X156939800Y-75031122D01*
X156777464Y-75103398D01*
X156603649Y-75140344D01*
X156425951Y-75140344D01*
X156252136Y-75103398D01*
X156089800Y-75031122D01*
X155946039Y-74926673D01*
X155827136Y-74794617D01*
X155738286Y-74640726D01*
X155683375Y-74471725D01*
X155664800Y-74295000D01*
X155683375Y-74118275D01*
X155738286Y-73949274D01*
X155827136Y-73795383D01*
X155946039Y-73663327D01*
X156089800Y-73558878D01*
X156252136Y-73486602D01*
X156425951Y-73449656D01*
X156603649Y-73449656D01*
X156777464Y-73486602D01*
G37*
G36*
X117681350Y-72762418D02*
G01*
X117724728Y-72771966D01*
X117766713Y-72776379D01*
X117812787Y-72791349D01*
X117862122Y-72802209D01*
X117899664Y-72819578D01*
X117936855Y-72831662D01*
X117981511Y-72857444D01*
X118030114Y-72879930D01*
X118060603Y-72903107D01*
X118091778Y-72921106D01*
X118132426Y-72957705D01*
X118177471Y-72991948D01*
X118200282Y-73018803D01*
X118224724Y-73040811D01*
X118258714Y-73087595D01*
X118297302Y-73133024D01*
X118312371Y-73161448D01*
X118329875Y-73185540D01*
X118354673Y-73241238D01*
X118384004Y-73296562D01*
X118391789Y-73324603D01*
X118402637Y-73348967D01*
X118415967Y-73411683D01*
X118433524Y-73474915D01*
X118434933Y-73500911D01*
X118439831Y-73523953D01*
X118439831Y-73591241D01*
X118443545Y-73659743D01*
X118439831Y-73682397D01*
X118439831Y-73702846D01*
X118425172Y-73771810D01*
X118413599Y-73842404D01*
X118406243Y-73860865D01*
X118402637Y-73877832D01*
X118372624Y-73945242D01*
X118345086Y-74014358D01*
X118335667Y-74028248D01*
X118329875Y-74041260D01*
X118284528Y-74103674D01*
X118241211Y-74167563D01*
X118231266Y-74176982D01*
X118224724Y-74185988D01*
X118164786Y-74239956D01*
X118106829Y-74294856D01*
X118097740Y-74300324D01*
X118091778Y-74305693D01*
X118018590Y-74347947D01*
X117948225Y-74390285D01*
X117941102Y-74392684D01*
X117936855Y-74395137D01*
X117851865Y-74422752D01*
X117772815Y-74449387D01*
X117768421Y-74449864D01*
X117766713Y-74450420D01*
X117665531Y-74461054D01*
X117588800Y-74469400D01*
X117586135Y-74469400D01*
X116083465Y-74469400D01*
X116080800Y-74469400D01*
X115988250Y-74464382D01*
X115944865Y-74454832D01*
X115902886Y-74450420D01*
X115856819Y-74435451D01*
X115807478Y-74424591D01*
X115769930Y-74407219D01*
X115732744Y-74395137D01*
X115688092Y-74369357D01*
X115639486Y-74346870D01*
X115608994Y-74323690D01*
X115577821Y-74305693D01*
X115537174Y-74269094D01*
X115492129Y-74234852D01*
X115469317Y-74207995D01*
X115444875Y-74185988D01*
X115410883Y-74139202D01*
X115372298Y-74093776D01*
X115357229Y-74065352D01*
X115339724Y-74041259D01*
X115314923Y-73985555D01*
X115285596Y-73930238D01*
X115277811Y-73902199D01*
X115266962Y-73877832D01*
X115253629Y-73815104D01*
X115236076Y-73751885D01*
X115234666Y-73725893D01*
X115229768Y-73702846D01*
X115229768Y-73635539D01*
X115226055Y-73567057D01*
X115229768Y-73544408D01*
X115229768Y-73523953D01*
X115244431Y-73454964D01*
X115256001Y-73384396D01*
X115263354Y-73365941D01*
X115266962Y-73348967D01*
X115296988Y-73281526D01*
X115324514Y-73212442D01*
X115333927Y-73198557D01*
X115339724Y-73185539D01*
X115385095Y-73123090D01*
X115428389Y-73059237D01*
X115438327Y-73049822D01*
X115444875Y-73040811D01*
X115504854Y-72986805D01*
X115562771Y-72931944D01*
X115571853Y-72926479D01*
X115577821Y-72921106D01*
X115651074Y-72878813D01*
X115721375Y-72836515D01*
X115728491Y-72834117D01*
X115732744Y-72831662D01*
X115817845Y-72804010D01*
X115896785Y-72777413D01*
X115901172Y-72776935D01*
X115902886Y-72776379D01*
X116004201Y-72765730D01*
X116080800Y-72757400D01*
X117588800Y-72757400D01*
X117681350Y-72762418D01*
G37*
G36*
X154237464Y-70946602D02*
G01*
X154399800Y-71018878D01*
X154543561Y-71123327D01*
X154662464Y-71255383D01*
X154751314Y-71409274D01*
X154806225Y-71578275D01*
X154824800Y-71755000D01*
X154806225Y-71931725D01*
X154751314Y-72100726D01*
X154662464Y-72254617D01*
X154543561Y-72386673D01*
X154399800Y-72491122D01*
X154237464Y-72563398D01*
X154063649Y-72600344D01*
X153885951Y-72600344D01*
X153712136Y-72563398D01*
X153549800Y-72491122D01*
X153406039Y-72386673D01*
X153287136Y-72254617D01*
X153198286Y-72100726D01*
X153143375Y-71931725D01*
X153124800Y-71755000D01*
X153143375Y-71578275D01*
X153198286Y-71409274D01*
X153287136Y-71255383D01*
X153406039Y-71123327D01*
X153549800Y-71018878D01*
X153712136Y-70946602D01*
X153885951Y-70909656D01*
X154063649Y-70909656D01*
X154237464Y-70946602D01*
G37*
G36*
X156777464Y-70946602D02*
G01*
X156939800Y-71018878D01*
X157083561Y-71123327D01*
X157202464Y-71255383D01*
X157291314Y-71409274D01*
X157346225Y-71578275D01*
X157364800Y-71755000D01*
X157346225Y-71931725D01*
X157291314Y-72100726D01*
X157202464Y-72254617D01*
X157083561Y-72386673D01*
X156939800Y-72491122D01*
X156777464Y-72563398D01*
X156603649Y-72600344D01*
X156425951Y-72600344D01*
X156252136Y-72563398D01*
X156089800Y-72491122D01*
X155946039Y-72386673D01*
X155827136Y-72254617D01*
X155738286Y-72100726D01*
X155683375Y-71931725D01*
X155664800Y-71755000D01*
X155683375Y-71578275D01*
X155738286Y-71409274D01*
X155827136Y-71255383D01*
X155946039Y-71123327D01*
X156089800Y-71018878D01*
X156252136Y-70946602D01*
X156425951Y-70909656D01*
X156603649Y-70909656D01*
X156777464Y-70946602D01*
G37*
G36*
X113403791Y-67508368D02*
G01*
X113424246Y-67508368D01*
X113493230Y-67523031D01*
X113563804Y-67534601D01*
X113582259Y-67541954D01*
X113599232Y-67545562D01*
X113666664Y-67575584D01*
X113735758Y-67603114D01*
X113749644Y-67612529D01*
X113762660Y-67618324D01*
X113825094Y-67663685D01*
X113888963Y-67706989D01*
X113898379Y-67716930D01*
X113907388Y-67723475D01*
X113961374Y-67783432D01*
X114016256Y-67841371D01*
X114021722Y-67850456D01*
X114027093Y-67856421D01*
X114069361Y-67929633D01*
X114111685Y-67999975D01*
X114114084Y-68007095D01*
X114116537Y-68011344D01*
X114144161Y-68096361D01*
X114170787Y-68175385D01*
X114171264Y-68179776D01*
X114171820Y-68181486D01*
X114182456Y-68282680D01*
X114190800Y-68359400D01*
X114190800Y-69867400D01*
X114185782Y-69959950D01*
X114176232Y-70003335D01*
X114171820Y-70045313D01*
X114156852Y-70091377D01*
X114145991Y-70140722D01*
X114128618Y-70178272D01*
X114116537Y-70215455D01*
X114090759Y-70260102D01*
X114068270Y-70308714D01*
X114045088Y-70339209D01*
X114027093Y-70370378D01*
X113990499Y-70411019D01*
X113956252Y-70456071D01*
X113929391Y-70478886D01*
X113907388Y-70503324D01*
X113860610Y-70537309D01*
X113815176Y-70575902D01*
X113786747Y-70590973D01*
X113762659Y-70608475D01*
X113706966Y-70633270D01*
X113651638Y-70662604D01*
X113623593Y-70670390D01*
X113599232Y-70681237D01*
X113536514Y-70694568D01*
X113473285Y-70712124D01*
X113447292Y-70713533D01*
X113424246Y-70718432D01*
X113356940Y-70718432D01*
X113288457Y-70722145D01*
X113265809Y-70718432D01*
X113245354Y-70718432D01*
X113176375Y-70703769D01*
X113105796Y-70692199D01*
X113087336Y-70684843D01*
X113070367Y-70681237D01*
X113002947Y-70651220D01*
X112933842Y-70623686D01*
X112919953Y-70614269D01*
X112906939Y-70608475D01*
X112844510Y-70563118D01*
X112780637Y-70519811D01*
X112771219Y-70509869D01*
X112762211Y-70503324D01*
X112708223Y-70443365D01*
X112653344Y-70385429D01*
X112647877Y-70376343D01*
X112642506Y-70370378D01*
X112600227Y-70297149D01*
X112557915Y-70226825D01*
X112555516Y-70219706D01*
X112553062Y-70215455D01*
X112525419Y-70130381D01*
X112498813Y-70051415D01*
X112498335Y-70047026D01*
X112497779Y-70045313D01*
X112487133Y-69944027D01*
X112478800Y-69867400D01*
X112478800Y-68359400D01*
X112483818Y-68266850D01*
X112493366Y-68223472D01*
X112497779Y-68181486D01*
X112512750Y-68135409D01*
X112523609Y-68086078D01*
X112540976Y-68048537D01*
X112553062Y-68011344D01*
X112578846Y-67966683D01*
X112601330Y-67918086D01*
X112624505Y-67887599D01*
X112642506Y-67856421D01*
X112679110Y-67815767D01*
X112713348Y-67770729D01*
X112740200Y-67747920D01*
X112762211Y-67723475D01*
X112809003Y-67689478D01*
X112854424Y-67650898D01*
X112882843Y-67635830D01*
X112906940Y-67618324D01*
X112962650Y-67593520D01*
X113017962Y-67564196D01*
X113045997Y-67556411D01*
X113070367Y-67545562D01*
X113133097Y-67532228D01*
X113196315Y-67514676D01*
X113222306Y-67513266D01*
X113245354Y-67508368D01*
X113312660Y-67508368D01*
X113381143Y-67504655D01*
X113403791Y-67508368D01*
G37*
G36*
X154237464Y-68406602D02*
G01*
X154399800Y-68478878D01*
X154543561Y-68583327D01*
X154662464Y-68715383D01*
X154751314Y-68869274D01*
X154806225Y-69038275D01*
X154824800Y-69215000D01*
X154806225Y-69391725D01*
X154751314Y-69560726D01*
X154662464Y-69714617D01*
X154543561Y-69846673D01*
X154399800Y-69951122D01*
X154237464Y-70023398D01*
X154063649Y-70060344D01*
X153885951Y-70060344D01*
X153712136Y-70023398D01*
X153549800Y-69951122D01*
X153406039Y-69846673D01*
X153287136Y-69714617D01*
X153198286Y-69560726D01*
X153143375Y-69391725D01*
X153124800Y-69215000D01*
X153143375Y-69038275D01*
X153198286Y-68869274D01*
X153287136Y-68715383D01*
X153406039Y-68583327D01*
X153549800Y-68478878D01*
X153712136Y-68406602D01*
X153885951Y-68369656D01*
X154063649Y-68369656D01*
X154237464Y-68406602D01*
G37*
G36*
X156777464Y-68406602D02*
G01*
X156939800Y-68478878D01*
X157083561Y-68583327D01*
X157202464Y-68715383D01*
X157291314Y-68869274D01*
X157346225Y-69038275D01*
X157364800Y-69215000D01*
X157346225Y-69391725D01*
X157291314Y-69560726D01*
X157202464Y-69714617D01*
X157083561Y-69846673D01*
X156939800Y-69951122D01*
X156777464Y-70023398D01*
X156603649Y-70060344D01*
X156425951Y-70060344D01*
X156252136Y-70023398D01*
X156089800Y-69951122D01*
X155946039Y-69846673D01*
X155827136Y-69714617D01*
X155738286Y-69560726D01*
X155683375Y-69391725D01*
X155664800Y-69215000D01*
X155683375Y-69038275D01*
X155738286Y-68869274D01*
X155827136Y-68715383D01*
X155946039Y-68583327D01*
X156089800Y-68478878D01*
X156252136Y-68406602D01*
X156425951Y-68369656D01*
X156603649Y-68369656D01*
X156777464Y-68406602D01*
G37*
G36*
X154237464Y-65866602D02*
G01*
X154399800Y-65938878D01*
X154543561Y-66043327D01*
X154662464Y-66175383D01*
X154751314Y-66329274D01*
X154806225Y-66498275D01*
X154824800Y-66675000D01*
X154806225Y-66851725D01*
X154751314Y-67020726D01*
X154662464Y-67174617D01*
X154543561Y-67306673D01*
X154399800Y-67411122D01*
X154237464Y-67483398D01*
X154063649Y-67520344D01*
X153885951Y-67520344D01*
X153712136Y-67483398D01*
X153549800Y-67411122D01*
X153406039Y-67306673D01*
X153287136Y-67174617D01*
X153198286Y-67020726D01*
X153143375Y-66851725D01*
X153124800Y-66675000D01*
X153143375Y-66498275D01*
X153198286Y-66329274D01*
X153287136Y-66175383D01*
X153406039Y-66043327D01*
X153549800Y-65938878D01*
X153712136Y-65866602D01*
X153885951Y-65829656D01*
X154063649Y-65829656D01*
X154237464Y-65866602D01*
G37*
G36*
X156777464Y-65866602D02*
G01*
X156939800Y-65938878D01*
X157083561Y-66043327D01*
X157202464Y-66175383D01*
X157291314Y-66329274D01*
X157346225Y-66498275D01*
X157364800Y-66675000D01*
X157346225Y-66851725D01*
X157291314Y-67020726D01*
X157202464Y-67174617D01*
X157083561Y-67306673D01*
X156939800Y-67411122D01*
X156777464Y-67483398D01*
X156603649Y-67520344D01*
X156425951Y-67520344D01*
X156252136Y-67483398D01*
X156089800Y-67411122D01*
X155946039Y-67306673D01*
X155827136Y-67174617D01*
X155738286Y-67020726D01*
X155683375Y-66851725D01*
X155664800Y-66675000D01*
X155683375Y-66498275D01*
X155738286Y-66329274D01*
X155827136Y-66175383D01*
X155946039Y-66043327D01*
X156089800Y-65938878D01*
X156252136Y-65866602D01*
X156425951Y-65829656D01*
X156603649Y-65829656D01*
X156777464Y-65866602D01*
G37*
G36*
X154237464Y-63326602D02*
G01*
X154399800Y-63398878D01*
X154543561Y-63503327D01*
X154662464Y-63635383D01*
X154751314Y-63789274D01*
X154806225Y-63958275D01*
X154824800Y-64135000D01*
X154806225Y-64311725D01*
X154751314Y-64480726D01*
X154662464Y-64634617D01*
X154543561Y-64766673D01*
X154399800Y-64871122D01*
X154237464Y-64943398D01*
X154063649Y-64980344D01*
X153885951Y-64980344D01*
X153712136Y-64943398D01*
X153549800Y-64871122D01*
X153406039Y-64766673D01*
X153287136Y-64634617D01*
X153198286Y-64480726D01*
X153143375Y-64311725D01*
X153124800Y-64135000D01*
X153143375Y-63958275D01*
X153198286Y-63789274D01*
X153287136Y-63635383D01*
X153406039Y-63503327D01*
X153549800Y-63398878D01*
X153712136Y-63326602D01*
X153885951Y-63289656D01*
X154063649Y-63289656D01*
X154237464Y-63326602D01*
G37*
G36*
X156777464Y-63326602D02*
G01*
X156939800Y-63398878D01*
X157083561Y-63503327D01*
X157202464Y-63635383D01*
X157291314Y-63789274D01*
X157346225Y-63958275D01*
X157364800Y-64135000D01*
X157346225Y-64311725D01*
X157291314Y-64480726D01*
X157202464Y-64634617D01*
X157083561Y-64766673D01*
X156939800Y-64871122D01*
X156777464Y-64943398D01*
X156603649Y-64980344D01*
X156425951Y-64980344D01*
X156252136Y-64943398D01*
X156089800Y-64871122D01*
X155946039Y-64766673D01*
X155827136Y-64634617D01*
X155738286Y-64480726D01*
X155683375Y-64311725D01*
X155664800Y-64135000D01*
X155683375Y-63958275D01*
X155738286Y-63789274D01*
X155827136Y-63635383D01*
X155946039Y-63503327D01*
X156089800Y-63398878D01*
X156252136Y-63326602D01*
X156425951Y-63289656D01*
X156603649Y-63289656D01*
X156777464Y-63326602D01*
G37*
G36*
X122481350Y-63262418D02*
G01*
X122524728Y-63271966D01*
X122566713Y-63276379D01*
X122612787Y-63291349D01*
X122662122Y-63302209D01*
X122699664Y-63319578D01*
X122736855Y-63331662D01*
X122781511Y-63357444D01*
X122830114Y-63379930D01*
X122860603Y-63403107D01*
X122891778Y-63421106D01*
X122932426Y-63457705D01*
X122977471Y-63491948D01*
X123000282Y-63518803D01*
X123024724Y-63540811D01*
X123058714Y-63587595D01*
X123097302Y-63633024D01*
X123112371Y-63661448D01*
X123129875Y-63685540D01*
X123154673Y-63741238D01*
X123184004Y-63796562D01*
X123191789Y-63824603D01*
X123202637Y-63848967D01*
X123215967Y-63911683D01*
X123233524Y-63974915D01*
X123234933Y-64000911D01*
X123239831Y-64023953D01*
X123239831Y-64091241D01*
X123243545Y-64159743D01*
X123239831Y-64182397D01*
X123239831Y-64202846D01*
X123225172Y-64271810D01*
X123213599Y-64342404D01*
X123206243Y-64360865D01*
X123202637Y-64377832D01*
X123172624Y-64445242D01*
X123145086Y-64514358D01*
X123135667Y-64528248D01*
X123129875Y-64541260D01*
X123084528Y-64603674D01*
X123041211Y-64667563D01*
X123031266Y-64676982D01*
X123024724Y-64685988D01*
X122964786Y-64739956D01*
X122906829Y-64794856D01*
X122897740Y-64800324D01*
X122891778Y-64805693D01*
X122818590Y-64847947D01*
X122748225Y-64890285D01*
X122741102Y-64892684D01*
X122736855Y-64895137D01*
X122651865Y-64922752D01*
X122572815Y-64949387D01*
X122568421Y-64949864D01*
X122566713Y-64950420D01*
X122465531Y-64961054D01*
X122388800Y-64969400D01*
X122386135Y-64969400D01*
X120883465Y-64969400D01*
X120880800Y-64969400D01*
X120788250Y-64964382D01*
X120744865Y-64954832D01*
X120702886Y-64950420D01*
X120656819Y-64935451D01*
X120607478Y-64924591D01*
X120569930Y-64907219D01*
X120532744Y-64895137D01*
X120488092Y-64869357D01*
X120439486Y-64846870D01*
X120408994Y-64823690D01*
X120377821Y-64805693D01*
X120337174Y-64769094D01*
X120292129Y-64734852D01*
X120269317Y-64707995D01*
X120244875Y-64685988D01*
X120210883Y-64639202D01*
X120172298Y-64593776D01*
X120157229Y-64565352D01*
X120139724Y-64541259D01*
X120114923Y-64485555D01*
X120085596Y-64430238D01*
X120077811Y-64402199D01*
X120066962Y-64377832D01*
X120053629Y-64315104D01*
X120036076Y-64251885D01*
X120034666Y-64225893D01*
X120029768Y-64202846D01*
X120029768Y-64135539D01*
X120026055Y-64067057D01*
X120029768Y-64044408D01*
X120029768Y-64023953D01*
X120044431Y-63954964D01*
X120056001Y-63884396D01*
X120063354Y-63865941D01*
X120066962Y-63848967D01*
X120096988Y-63781526D01*
X120124514Y-63712442D01*
X120133927Y-63698557D01*
X120139724Y-63685539D01*
X120185095Y-63623090D01*
X120228389Y-63559237D01*
X120238327Y-63549822D01*
X120244875Y-63540811D01*
X120304854Y-63486805D01*
X120362771Y-63431944D01*
X120371853Y-63426479D01*
X120377821Y-63421106D01*
X120451074Y-63378813D01*
X120521375Y-63336515D01*
X120528491Y-63334117D01*
X120532744Y-63331662D01*
X120617845Y-63304010D01*
X120696785Y-63277413D01*
X120701172Y-63276935D01*
X120702886Y-63276379D01*
X120804201Y-63265730D01*
X120880800Y-63257400D01*
X122388800Y-63257400D01*
X122481350Y-63262418D01*
G37*
G36*
X154824800Y-62445000D02*
G01*
X153124800Y-62445000D01*
X153124800Y-60745000D01*
X154824800Y-60745000D01*
X154824800Y-62445000D01*
G37*
G36*
X156777464Y-60786602D02*
G01*
X156939800Y-60858878D01*
X157083561Y-60963327D01*
X157202464Y-61095383D01*
X157291314Y-61249274D01*
X157346225Y-61418275D01*
X157364800Y-61595000D01*
X157346225Y-61771725D01*
X157291314Y-61940726D01*
X157202464Y-62094617D01*
X157083561Y-62226673D01*
X156939800Y-62331122D01*
X156777464Y-62403398D01*
X156603649Y-62440344D01*
X156425951Y-62440344D01*
X156252136Y-62403398D01*
X156089800Y-62331122D01*
X155946039Y-62226673D01*
X155827136Y-62094617D01*
X155738286Y-61940726D01*
X155683375Y-61771725D01*
X155664800Y-61595000D01*
X155683375Y-61418275D01*
X155738286Y-61249274D01*
X155827136Y-61095383D01*
X155946039Y-60963327D01*
X156089800Y-60858878D01*
X156252136Y-60786602D01*
X156425951Y-60749656D01*
X156603649Y-60749656D01*
X156777464Y-60786602D01*
G37*
G36*
X149267200Y-62419600D02*
G01*
X147567200Y-62419600D01*
X147567200Y-60719600D01*
X149267200Y-60719600D01*
X149267200Y-62419600D01*
G37*
G36*
X146139864Y-60761202D02*
G01*
X146302200Y-60833478D01*
X146445961Y-60937927D01*
X146564864Y-61069983D01*
X146653714Y-61223874D01*
X146708625Y-61392875D01*
X146727200Y-61569600D01*
X146708625Y-61746325D01*
X146653714Y-61915326D01*
X146564864Y-62069217D01*
X146445961Y-62201273D01*
X146302200Y-62305722D01*
X146139864Y-62377998D01*
X145966049Y-62414944D01*
X145788351Y-62414944D01*
X145614536Y-62377998D01*
X145452200Y-62305722D01*
X145308439Y-62201273D01*
X145189536Y-62069217D01*
X145100686Y-61915326D01*
X145045775Y-61746325D01*
X145027200Y-61569600D01*
X145045775Y-61392875D01*
X145100686Y-61223874D01*
X145189536Y-61069983D01*
X145308439Y-60937927D01*
X145452200Y-60833478D01*
X145614536Y-60761202D01*
X145788351Y-60724256D01*
X145966049Y-60724256D01*
X146139864Y-60761202D01*
G37*
M02*
