%TF.GenerationSoftware,KiCad,Pcbnew,7.0.7*%
%TF.CreationDate,2023-09-21T17:56:25-04:00*%
%TF.ProjectId,Little_Master_Board,4c697474-6c65-45f4-9d61-737465725f42,rev?*%
%TF.SameCoordinates,Original*%
%TF.FileFunction,Legend,Bot*%
%TF.FilePolarity,Positive*%
%FSLAX46Y46*%
G04 Gerber Fmt 4.6, Leading zero omitted, Abs format (unit mm)*
G04 Created by KiCad (PCBNEW 7.0.7) date 2023-09-21 17:56:25*
%MOMM*%
%LPD*%
G01*
G04 APERTURE LIST*
%ADD10C,0.150000*%
G04 APERTURE END LIST*
D10*
X127452497Y-61933895D02*
X126995354Y-61933895D01*
X127223926Y-62733895D02*
X127223926Y-61933895D01*
X126309640Y-62733895D02*
X126766783Y-62733895D01*
X126538211Y-62733895D02*
X126538211Y-61933895D01*
X126538211Y-61933895D02*
X126614402Y-62048180D01*
X126614402Y-62048180D02*
X126690592Y-62124371D01*
X126690592Y-62124371D02*
X126766783Y-62162466D01*
X125814401Y-61933895D02*
X125662020Y-61933895D01*
X125662020Y-61933895D02*
X125585830Y-61971990D01*
X125585830Y-61971990D02*
X125509639Y-62048180D01*
X125509639Y-62048180D02*
X125471544Y-62200561D01*
X125471544Y-62200561D02*
X125471544Y-62467228D01*
X125471544Y-62467228D02*
X125509639Y-62619609D01*
X125509639Y-62619609D02*
X125585830Y-62695800D01*
X125585830Y-62695800D02*
X125662020Y-62733895D01*
X125662020Y-62733895D02*
X125814401Y-62733895D01*
X125814401Y-62733895D02*
X125890592Y-62695800D01*
X125890592Y-62695800D02*
X125966782Y-62619609D01*
X125966782Y-62619609D02*
X126004878Y-62467228D01*
X126004878Y-62467228D02*
X126004878Y-62200561D01*
X126004878Y-62200561D02*
X125966782Y-62048180D01*
X125966782Y-62048180D02*
X125890592Y-61971990D01*
X125890592Y-61971990D02*
X125814401Y-61933895D01*
X125128687Y-61933895D02*
X125128687Y-62581514D01*
X125128687Y-62581514D02*
X125090592Y-62657704D01*
X125090592Y-62657704D02*
X125052497Y-62695800D01*
X125052497Y-62695800D02*
X124976306Y-62733895D01*
X124976306Y-62733895D02*
X124823925Y-62733895D01*
X124823925Y-62733895D02*
X124747735Y-62695800D01*
X124747735Y-62695800D02*
X124709640Y-62657704D01*
X124709640Y-62657704D02*
X124671544Y-62581514D01*
X124671544Y-62581514D02*
X124671544Y-61933895D01*
X124404878Y-61933895D02*
X123947735Y-61933895D01*
X124176307Y-62733895D02*
X124176307Y-61933895D01*
X121642972Y-76322895D02*
X121909639Y-75941942D01*
X122100115Y-76322895D02*
X122100115Y-75522895D01*
X122100115Y-75522895D02*
X121795353Y-75522895D01*
X121795353Y-75522895D02*
X121719163Y-75560990D01*
X121719163Y-75560990D02*
X121681068Y-75599085D01*
X121681068Y-75599085D02*
X121642972Y-75675276D01*
X121642972Y-75675276D02*
X121642972Y-75789561D01*
X121642972Y-75789561D02*
X121681068Y-75865752D01*
X121681068Y-75865752D02*
X121719163Y-75903847D01*
X121719163Y-75903847D02*
X121795353Y-75941942D01*
X121795353Y-75941942D02*
X122100115Y-75941942D01*
X120881068Y-76322895D02*
X121338211Y-76322895D01*
X121109639Y-76322895D02*
X121109639Y-75522895D01*
X121109639Y-75522895D02*
X121185830Y-75637180D01*
X121185830Y-75637180D02*
X121262020Y-75713371D01*
X121262020Y-75713371D02*
X121338211Y-75751466D01*
X120538210Y-76322895D02*
X120538210Y-75522895D01*
X120157258Y-76322895D02*
X120157258Y-75522895D01*
X120157258Y-75522895D02*
X119700115Y-76322895D01*
X119700115Y-76322895D02*
X119700115Y-75522895D01*
X148417667Y-75791695D02*
X147960524Y-75791695D01*
X148189096Y-76591695D02*
X148189096Y-75791695D01*
X147693857Y-76591695D02*
X147693857Y-75791695D01*
X147351000Y-76591695D02*
X147351000Y-76172647D01*
X147351000Y-76172647D02*
X147389095Y-76096457D01*
X147389095Y-76096457D02*
X147465286Y-76058361D01*
X147465286Y-76058361D02*
X147579572Y-76058361D01*
X147579572Y-76058361D02*
X147655762Y-76096457D01*
X147655762Y-76096457D02*
X147693857Y-76134552D01*
X146665285Y-76553600D02*
X146741476Y-76591695D01*
X146741476Y-76591695D02*
X146893857Y-76591695D01*
X146893857Y-76591695D02*
X146970047Y-76553600D01*
X146970047Y-76553600D02*
X147008143Y-76477409D01*
X147008143Y-76477409D02*
X147008143Y-76172647D01*
X147008143Y-76172647D02*
X146970047Y-76096457D01*
X146970047Y-76096457D02*
X146893857Y-76058361D01*
X146893857Y-76058361D02*
X146741476Y-76058361D01*
X146741476Y-76058361D02*
X146665285Y-76096457D01*
X146665285Y-76096457D02*
X146627190Y-76172647D01*
X146627190Y-76172647D02*
X146627190Y-76248838D01*
X146627190Y-76248838D02*
X147008143Y-76325028D01*
X145293857Y-76591695D02*
X145674809Y-76591695D01*
X145674809Y-76591695D02*
X145674809Y-75791695D01*
X145027190Y-76591695D02*
X145027190Y-76058361D01*
X145027190Y-75791695D02*
X145065286Y-75829790D01*
X145065286Y-75829790D02*
X145027190Y-75867885D01*
X145027190Y-75867885D02*
X144989095Y-75829790D01*
X144989095Y-75829790D02*
X145027190Y-75791695D01*
X145027190Y-75791695D02*
X145027190Y-75867885D01*
X144760524Y-76058361D02*
X144455762Y-76058361D01*
X144646238Y-75791695D02*
X144646238Y-76477409D01*
X144646238Y-76477409D02*
X144608143Y-76553600D01*
X144608143Y-76553600D02*
X144531953Y-76591695D01*
X144531953Y-76591695D02*
X144455762Y-76591695D01*
X144303381Y-76058361D02*
X143998619Y-76058361D01*
X144189095Y-75791695D02*
X144189095Y-76477409D01*
X144189095Y-76477409D02*
X144151000Y-76553600D01*
X144151000Y-76553600D02*
X144074810Y-76591695D01*
X144074810Y-76591695D02*
X143998619Y-76591695D01*
X143617667Y-76591695D02*
X143693857Y-76553600D01*
X143693857Y-76553600D02*
X143731952Y-76477409D01*
X143731952Y-76477409D02*
X143731952Y-75791695D01*
X143008142Y-76553600D02*
X143084333Y-76591695D01*
X143084333Y-76591695D02*
X143236714Y-76591695D01*
X143236714Y-76591695D02*
X143312904Y-76553600D01*
X143312904Y-76553600D02*
X143351000Y-76477409D01*
X143351000Y-76477409D02*
X143351000Y-76172647D01*
X143351000Y-76172647D02*
X143312904Y-76096457D01*
X143312904Y-76096457D02*
X143236714Y-76058361D01*
X143236714Y-76058361D02*
X143084333Y-76058361D01*
X143084333Y-76058361D02*
X143008142Y-76096457D01*
X143008142Y-76096457D02*
X142970047Y-76172647D01*
X142970047Y-76172647D02*
X142970047Y-76248838D01*
X142970047Y-76248838D02*
X143351000Y-76325028D01*
X142017666Y-76591695D02*
X142017666Y-75791695D01*
X142017666Y-75791695D02*
X141751000Y-76363123D01*
X141751000Y-76363123D02*
X141484333Y-75791695D01*
X141484333Y-75791695D02*
X141484333Y-76591695D01*
X140760523Y-76591695D02*
X140760523Y-76172647D01*
X140760523Y-76172647D02*
X140798618Y-76096457D01*
X140798618Y-76096457D02*
X140874809Y-76058361D01*
X140874809Y-76058361D02*
X141027190Y-76058361D01*
X141027190Y-76058361D02*
X141103380Y-76096457D01*
X140760523Y-76553600D02*
X140836714Y-76591695D01*
X140836714Y-76591695D02*
X141027190Y-76591695D01*
X141027190Y-76591695D02*
X141103380Y-76553600D01*
X141103380Y-76553600D02*
X141141476Y-76477409D01*
X141141476Y-76477409D02*
X141141476Y-76401219D01*
X141141476Y-76401219D02*
X141103380Y-76325028D01*
X141103380Y-76325028D02*
X141027190Y-76286933D01*
X141027190Y-76286933D02*
X140836714Y-76286933D01*
X140836714Y-76286933D02*
X140760523Y-76248838D01*
X140417666Y-76553600D02*
X140341475Y-76591695D01*
X140341475Y-76591695D02*
X140189094Y-76591695D01*
X140189094Y-76591695D02*
X140112904Y-76553600D01*
X140112904Y-76553600D02*
X140074808Y-76477409D01*
X140074808Y-76477409D02*
X140074808Y-76439314D01*
X140074808Y-76439314D02*
X140112904Y-76363123D01*
X140112904Y-76363123D02*
X140189094Y-76325028D01*
X140189094Y-76325028D02*
X140303380Y-76325028D01*
X140303380Y-76325028D02*
X140379570Y-76286933D01*
X140379570Y-76286933D02*
X140417666Y-76210742D01*
X140417666Y-76210742D02*
X140417666Y-76172647D01*
X140417666Y-76172647D02*
X140379570Y-76096457D01*
X140379570Y-76096457D02*
X140303380Y-76058361D01*
X140303380Y-76058361D02*
X140189094Y-76058361D01*
X140189094Y-76058361D02*
X140112904Y-76096457D01*
X139846237Y-76058361D02*
X139541475Y-76058361D01*
X139731951Y-75791695D02*
X139731951Y-76477409D01*
X139731951Y-76477409D02*
X139693856Y-76553600D01*
X139693856Y-76553600D02*
X139617666Y-76591695D01*
X139617666Y-76591695D02*
X139541475Y-76591695D01*
X138970046Y-76553600D02*
X139046237Y-76591695D01*
X139046237Y-76591695D02*
X139198618Y-76591695D01*
X139198618Y-76591695D02*
X139274808Y-76553600D01*
X139274808Y-76553600D02*
X139312904Y-76477409D01*
X139312904Y-76477409D02*
X139312904Y-76172647D01*
X139312904Y-76172647D02*
X139274808Y-76096457D01*
X139274808Y-76096457D02*
X139198618Y-76058361D01*
X139198618Y-76058361D02*
X139046237Y-76058361D01*
X139046237Y-76058361D02*
X138970046Y-76096457D01*
X138970046Y-76096457D02*
X138931951Y-76172647D01*
X138931951Y-76172647D02*
X138931951Y-76248838D01*
X138931951Y-76248838D02*
X139312904Y-76325028D01*
X138589094Y-76591695D02*
X138589094Y-76058361D01*
X138589094Y-76210742D02*
X138550999Y-76134552D01*
X138550999Y-76134552D02*
X138512904Y-76096457D01*
X138512904Y-76096457D02*
X138436713Y-76058361D01*
X138436713Y-76058361D02*
X138360523Y-76058361D01*
X137217666Y-76172647D02*
X137103380Y-76210742D01*
X137103380Y-76210742D02*
X137065285Y-76248838D01*
X137065285Y-76248838D02*
X137027189Y-76325028D01*
X137027189Y-76325028D02*
X137027189Y-76439314D01*
X137027189Y-76439314D02*
X137065285Y-76515504D01*
X137065285Y-76515504D02*
X137103380Y-76553600D01*
X137103380Y-76553600D02*
X137179570Y-76591695D01*
X137179570Y-76591695D02*
X137484332Y-76591695D01*
X137484332Y-76591695D02*
X137484332Y-75791695D01*
X137484332Y-75791695D02*
X137217666Y-75791695D01*
X137217666Y-75791695D02*
X137141475Y-75829790D01*
X137141475Y-75829790D02*
X137103380Y-75867885D01*
X137103380Y-75867885D02*
X137065285Y-75944076D01*
X137065285Y-75944076D02*
X137065285Y-76020266D01*
X137065285Y-76020266D02*
X137103380Y-76096457D01*
X137103380Y-76096457D02*
X137141475Y-76134552D01*
X137141475Y-76134552D02*
X137217666Y-76172647D01*
X137217666Y-76172647D02*
X137484332Y-76172647D01*
X136570047Y-76591695D02*
X136646237Y-76553600D01*
X136646237Y-76553600D02*
X136684332Y-76515504D01*
X136684332Y-76515504D02*
X136722428Y-76439314D01*
X136722428Y-76439314D02*
X136722428Y-76210742D01*
X136722428Y-76210742D02*
X136684332Y-76134552D01*
X136684332Y-76134552D02*
X136646237Y-76096457D01*
X136646237Y-76096457D02*
X136570047Y-76058361D01*
X136570047Y-76058361D02*
X136455761Y-76058361D01*
X136455761Y-76058361D02*
X136379570Y-76096457D01*
X136379570Y-76096457D02*
X136341475Y-76134552D01*
X136341475Y-76134552D02*
X136303380Y-76210742D01*
X136303380Y-76210742D02*
X136303380Y-76439314D01*
X136303380Y-76439314D02*
X136341475Y-76515504D01*
X136341475Y-76515504D02*
X136379570Y-76553600D01*
X136379570Y-76553600D02*
X136455761Y-76591695D01*
X136455761Y-76591695D02*
X136570047Y-76591695D01*
X135617665Y-76591695D02*
X135617665Y-76172647D01*
X135617665Y-76172647D02*
X135655760Y-76096457D01*
X135655760Y-76096457D02*
X135731951Y-76058361D01*
X135731951Y-76058361D02*
X135884332Y-76058361D01*
X135884332Y-76058361D02*
X135960522Y-76096457D01*
X135617665Y-76553600D02*
X135693856Y-76591695D01*
X135693856Y-76591695D02*
X135884332Y-76591695D01*
X135884332Y-76591695D02*
X135960522Y-76553600D01*
X135960522Y-76553600D02*
X135998618Y-76477409D01*
X135998618Y-76477409D02*
X135998618Y-76401219D01*
X135998618Y-76401219D02*
X135960522Y-76325028D01*
X135960522Y-76325028D02*
X135884332Y-76286933D01*
X135884332Y-76286933D02*
X135693856Y-76286933D01*
X135693856Y-76286933D02*
X135617665Y-76248838D01*
X135236712Y-76591695D02*
X135236712Y-76058361D01*
X135236712Y-76210742D02*
X135198617Y-76134552D01*
X135198617Y-76134552D02*
X135160522Y-76096457D01*
X135160522Y-76096457D02*
X135084331Y-76058361D01*
X135084331Y-76058361D02*
X135008141Y-76058361D01*
X134398617Y-76591695D02*
X134398617Y-75791695D01*
X134398617Y-76553600D02*
X134474808Y-76591695D01*
X134474808Y-76591695D02*
X134627189Y-76591695D01*
X134627189Y-76591695D02*
X134703379Y-76553600D01*
X134703379Y-76553600D02*
X134741474Y-76515504D01*
X134741474Y-76515504D02*
X134779570Y-76439314D01*
X134779570Y-76439314D02*
X134779570Y-76210742D01*
X134779570Y-76210742D02*
X134741474Y-76134552D01*
X134741474Y-76134552D02*
X134703379Y-76096457D01*
X134703379Y-76096457D02*
X134627189Y-76058361D01*
X134627189Y-76058361D02*
X134474808Y-76058361D01*
X134474808Y-76058361D02*
X134398617Y-76096457D01*
X147008143Y-77879695D02*
X147008143Y-77079695D01*
X147008143Y-77079695D02*
X146817667Y-77079695D01*
X146817667Y-77079695D02*
X146703381Y-77117790D01*
X146703381Y-77117790D02*
X146627191Y-77193980D01*
X146627191Y-77193980D02*
X146589096Y-77270171D01*
X146589096Y-77270171D02*
X146551000Y-77422552D01*
X146551000Y-77422552D02*
X146551000Y-77536838D01*
X146551000Y-77536838D02*
X146589096Y-77689219D01*
X146589096Y-77689219D02*
X146627191Y-77765409D01*
X146627191Y-77765409D02*
X146703381Y-77841600D01*
X146703381Y-77841600D02*
X146817667Y-77879695D01*
X146817667Y-77879695D02*
X147008143Y-77879695D01*
X145903381Y-77841600D02*
X145979572Y-77879695D01*
X145979572Y-77879695D02*
X146131953Y-77879695D01*
X146131953Y-77879695D02*
X146208143Y-77841600D01*
X146208143Y-77841600D02*
X146246239Y-77765409D01*
X146246239Y-77765409D02*
X146246239Y-77460647D01*
X146246239Y-77460647D02*
X146208143Y-77384457D01*
X146208143Y-77384457D02*
X146131953Y-77346361D01*
X146131953Y-77346361D02*
X145979572Y-77346361D01*
X145979572Y-77346361D02*
X145903381Y-77384457D01*
X145903381Y-77384457D02*
X145865286Y-77460647D01*
X145865286Y-77460647D02*
X145865286Y-77536838D01*
X145865286Y-77536838D02*
X146246239Y-77613028D01*
X145522429Y-77346361D02*
X145522429Y-77879695D01*
X145522429Y-77422552D02*
X145484334Y-77384457D01*
X145484334Y-77384457D02*
X145408144Y-77346361D01*
X145408144Y-77346361D02*
X145293858Y-77346361D01*
X145293858Y-77346361D02*
X145217667Y-77384457D01*
X145217667Y-77384457D02*
X145179572Y-77460647D01*
X145179572Y-77460647D02*
X145179572Y-77879695D01*
X144798619Y-77346361D02*
X144798619Y-77879695D01*
X144798619Y-77422552D02*
X144760524Y-77384457D01*
X144760524Y-77384457D02*
X144684334Y-77346361D01*
X144684334Y-77346361D02*
X144570048Y-77346361D01*
X144570048Y-77346361D02*
X144493857Y-77384457D01*
X144493857Y-77384457D02*
X144455762Y-77460647D01*
X144455762Y-77460647D02*
X144455762Y-77879695D01*
X144074809Y-77879695D02*
X144074809Y-77346361D01*
X144074809Y-77079695D02*
X144112905Y-77117790D01*
X144112905Y-77117790D02*
X144074809Y-77155885D01*
X144074809Y-77155885D02*
X144036714Y-77117790D01*
X144036714Y-77117790D02*
X144074809Y-77079695D01*
X144074809Y-77079695D02*
X144074809Y-77155885D01*
X143731953Y-77841600D02*
X143655762Y-77879695D01*
X143655762Y-77879695D02*
X143503381Y-77879695D01*
X143503381Y-77879695D02*
X143427191Y-77841600D01*
X143427191Y-77841600D02*
X143389095Y-77765409D01*
X143389095Y-77765409D02*
X143389095Y-77727314D01*
X143389095Y-77727314D02*
X143427191Y-77651123D01*
X143427191Y-77651123D02*
X143503381Y-77613028D01*
X143503381Y-77613028D02*
X143617667Y-77613028D01*
X143617667Y-77613028D02*
X143693857Y-77574933D01*
X143693857Y-77574933D02*
X143731953Y-77498742D01*
X143731953Y-77498742D02*
X143731953Y-77460647D01*
X143731953Y-77460647D02*
X143693857Y-77384457D01*
X143693857Y-77384457D02*
X143617667Y-77346361D01*
X143617667Y-77346361D02*
X143503381Y-77346361D01*
X143503381Y-77346361D02*
X143427191Y-77384457D01*
X142436714Y-77879695D02*
X142436714Y-77079695D01*
X142436714Y-77460647D02*
X141979571Y-77460647D01*
X141979571Y-77879695D02*
X141979571Y-77079695D01*
X141598619Y-77803504D02*
X141560524Y-77841600D01*
X141560524Y-77841600D02*
X141598619Y-77879695D01*
X141598619Y-77879695D02*
X141636715Y-77841600D01*
X141636715Y-77841600D02*
X141598619Y-77803504D01*
X141598619Y-77803504D02*
X141598619Y-77879695D01*
X140151000Y-77803504D02*
X140189096Y-77841600D01*
X140189096Y-77841600D02*
X140303381Y-77879695D01*
X140303381Y-77879695D02*
X140379572Y-77879695D01*
X140379572Y-77879695D02*
X140493858Y-77841600D01*
X140493858Y-77841600D02*
X140570048Y-77765409D01*
X140570048Y-77765409D02*
X140608143Y-77689219D01*
X140608143Y-77689219D02*
X140646239Y-77536838D01*
X140646239Y-77536838D02*
X140646239Y-77422552D01*
X140646239Y-77422552D02*
X140608143Y-77270171D01*
X140608143Y-77270171D02*
X140570048Y-77193980D01*
X140570048Y-77193980D02*
X140493858Y-77117790D01*
X140493858Y-77117790D02*
X140379572Y-77079695D01*
X140379572Y-77079695D02*
X140303381Y-77079695D01*
X140303381Y-77079695D02*
X140189096Y-77117790D01*
X140189096Y-77117790D02*
X140151000Y-77155885D01*
X139465286Y-77879695D02*
X139465286Y-77460647D01*
X139465286Y-77460647D02*
X139503381Y-77384457D01*
X139503381Y-77384457D02*
X139579572Y-77346361D01*
X139579572Y-77346361D02*
X139731953Y-77346361D01*
X139731953Y-77346361D02*
X139808143Y-77384457D01*
X139465286Y-77841600D02*
X139541477Y-77879695D01*
X139541477Y-77879695D02*
X139731953Y-77879695D01*
X139731953Y-77879695D02*
X139808143Y-77841600D01*
X139808143Y-77841600D02*
X139846239Y-77765409D01*
X139846239Y-77765409D02*
X139846239Y-77689219D01*
X139846239Y-77689219D02*
X139808143Y-77613028D01*
X139808143Y-77613028D02*
X139731953Y-77574933D01*
X139731953Y-77574933D02*
X139541477Y-77574933D01*
X139541477Y-77574933D02*
X139465286Y-77536838D01*
X138970048Y-77879695D02*
X139046238Y-77841600D01*
X139046238Y-77841600D02*
X139084333Y-77765409D01*
X139084333Y-77765409D02*
X139084333Y-77079695D01*
X138322428Y-77879695D02*
X138322428Y-77079695D01*
X138322428Y-77841600D02*
X138398619Y-77879695D01*
X138398619Y-77879695D02*
X138551000Y-77879695D01*
X138551000Y-77879695D02*
X138627190Y-77841600D01*
X138627190Y-77841600D02*
X138665285Y-77803504D01*
X138665285Y-77803504D02*
X138703381Y-77727314D01*
X138703381Y-77727314D02*
X138703381Y-77498742D01*
X138703381Y-77498742D02*
X138665285Y-77422552D01*
X138665285Y-77422552D02*
X138627190Y-77384457D01*
X138627190Y-77384457D02*
X138551000Y-77346361D01*
X138551000Y-77346361D02*
X138398619Y-77346361D01*
X138398619Y-77346361D02*
X138322428Y-77384457D01*
X137636713Y-77841600D02*
X137712904Y-77879695D01*
X137712904Y-77879695D02*
X137865285Y-77879695D01*
X137865285Y-77879695D02*
X137941475Y-77841600D01*
X137941475Y-77841600D02*
X137979571Y-77765409D01*
X137979571Y-77765409D02*
X137979571Y-77460647D01*
X137979571Y-77460647D02*
X137941475Y-77384457D01*
X137941475Y-77384457D02*
X137865285Y-77346361D01*
X137865285Y-77346361D02*
X137712904Y-77346361D01*
X137712904Y-77346361D02*
X137636713Y-77384457D01*
X137636713Y-77384457D02*
X137598618Y-77460647D01*
X137598618Y-77460647D02*
X137598618Y-77536838D01*
X137598618Y-77536838D02*
X137979571Y-77613028D01*
X137255761Y-77879695D02*
X137255761Y-77346361D01*
X137255761Y-77498742D02*
X137217666Y-77422552D01*
X137217666Y-77422552D02*
X137179571Y-77384457D01*
X137179571Y-77384457D02*
X137103380Y-77346361D01*
X137103380Y-77346361D02*
X137027190Y-77346361D01*
X136646238Y-77879695D02*
X136722428Y-77841600D01*
X136722428Y-77841600D02*
X136760523Y-77803504D01*
X136760523Y-77803504D02*
X136798619Y-77727314D01*
X136798619Y-77727314D02*
X136798619Y-77498742D01*
X136798619Y-77498742D02*
X136760523Y-77422552D01*
X136760523Y-77422552D02*
X136722428Y-77384457D01*
X136722428Y-77384457D02*
X136646238Y-77346361D01*
X136646238Y-77346361D02*
X136531952Y-77346361D01*
X136531952Y-77346361D02*
X136455761Y-77384457D01*
X136455761Y-77384457D02*
X136417666Y-77422552D01*
X136417666Y-77422552D02*
X136379571Y-77498742D01*
X136379571Y-77498742D02*
X136379571Y-77727314D01*
X136379571Y-77727314D02*
X136417666Y-77803504D01*
X136417666Y-77803504D02*
X136455761Y-77841600D01*
X136455761Y-77841600D02*
X136531952Y-77879695D01*
X136531952Y-77879695D02*
X136646238Y-77879695D01*
X136036713Y-77346361D02*
X136036713Y-77879695D01*
X136036713Y-77422552D02*
X135998618Y-77384457D01*
X135998618Y-77384457D02*
X135922428Y-77346361D01*
X135922428Y-77346361D02*
X135808142Y-77346361D01*
X135808142Y-77346361D02*
X135731951Y-77384457D01*
X135731951Y-77384457D02*
X135693856Y-77460647D01*
X135693856Y-77460647D02*
X135693856Y-77879695D01*
X144893857Y-78367695D02*
X144817667Y-78367695D01*
X144817667Y-78367695D02*
X144741476Y-78405790D01*
X144741476Y-78405790D02*
X144703381Y-78443885D01*
X144703381Y-78443885D02*
X144665286Y-78520076D01*
X144665286Y-78520076D02*
X144627191Y-78672457D01*
X144627191Y-78672457D02*
X144627191Y-78862933D01*
X144627191Y-78862933D02*
X144665286Y-79015314D01*
X144665286Y-79015314D02*
X144703381Y-79091504D01*
X144703381Y-79091504D02*
X144741476Y-79129600D01*
X144741476Y-79129600D02*
X144817667Y-79167695D01*
X144817667Y-79167695D02*
X144893857Y-79167695D01*
X144893857Y-79167695D02*
X144970048Y-79129600D01*
X144970048Y-79129600D02*
X145008143Y-79091504D01*
X145008143Y-79091504D02*
X145046238Y-79015314D01*
X145046238Y-79015314D02*
X145084334Y-78862933D01*
X145084334Y-78862933D02*
X145084334Y-78672457D01*
X145084334Y-78672457D02*
X145046238Y-78520076D01*
X145046238Y-78520076D02*
X145008143Y-78443885D01*
X145008143Y-78443885D02*
X144970048Y-78405790D01*
X144970048Y-78405790D02*
X144893857Y-78367695D01*
X144246238Y-79167695D02*
X144093857Y-79167695D01*
X144093857Y-79167695D02*
X144017667Y-79129600D01*
X144017667Y-79129600D02*
X143979571Y-79091504D01*
X143979571Y-79091504D02*
X143903381Y-78977219D01*
X143903381Y-78977219D02*
X143865286Y-78824838D01*
X143865286Y-78824838D02*
X143865286Y-78520076D01*
X143865286Y-78520076D02*
X143903381Y-78443885D01*
X143903381Y-78443885D02*
X143941476Y-78405790D01*
X143941476Y-78405790D02*
X144017667Y-78367695D01*
X144017667Y-78367695D02*
X144170048Y-78367695D01*
X144170048Y-78367695D02*
X144246238Y-78405790D01*
X144246238Y-78405790D02*
X144284333Y-78443885D01*
X144284333Y-78443885D02*
X144322429Y-78520076D01*
X144322429Y-78520076D02*
X144322429Y-78710552D01*
X144322429Y-78710552D02*
X144284333Y-78786742D01*
X144284333Y-78786742D02*
X144246238Y-78824838D01*
X144246238Y-78824838D02*
X144170048Y-78862933D01*
X144170048Y-78862933D02*
X144017667Y-78862933D01*
X144017667Y-78862933D02*
X143941476Y-78824838D01*
X143941476Y-78824838D02*
X143903381Y-78786742D01*
X143903381Y-78786742D02*
X143865286Y-78710552D01*
X142951000Y-78329600D02*
X143636714Y-79358171D01*
X142722429Y-78443885D02*
X142684333Y-78405790D01*
X142684333Y-78405790D02*
X142608143Y-78367695D01*
X142608143Y-78367695D02*
X142417667Y-78367695D01*
X142417667Y-78367695D02*
X142341476Y-78405790D01*
X142341476Y-78405790D02*
X142303381Y-78443885D01*
X142303381Y-78443885D02*
X142265286Y-78520076D01*
X142265286Y-78520076D02*
X142265286Y-78596266D01*
X142265286Y-78596266D02*
X142303381Y-78710552D01*
X142303381Y-78710552D02*
X142760524Y-79167695D01*
X142760524Y-79167695D02*
X142265286Y-79167695D01*
X141770047Y-78367695D02*
X141693857Y-78367695D01*
X141693857Y-78367695D02*
X141617666Y-78405790D01*
X141617666Y-78405790D02*
X141579571Y-78443885D01*
X141579571Y-78443885D02*
X141541476Y-78520076D01*
X141541476Y-78520076D02*
X141503381Y-78672457D01*
X141503381Y-78672457D02*
X141503381Y-78862933D01*
X141503381Y-78862933D02*
X141541476Y-79015314D01*
X141541476Y-79015314D02*
X141579571Y-79091504D01*
X141579571Y-79091504D02*
X141617666Y-79129600D01*
X141617666Y-79129600D02*
X141693857Y-79167695D01*
X141693857Y-79167695D02*
X141770047Y-79167695D01*
X141770047Y-79167695D02*
X141846238Y-79129600D01*
X141846238Y-79129600D02*
X141884333Y-79091504D01*
X141884333Y-79091504D02*
X141922428Y-79015314D01*
X141922428Y-79015314D02*
X141960524Y-78862933D01*
X141960524Y-78862933D02*
X141960524Y-78672457D01*
X141960524Y-78672457D02*
X141922428Y-78520076D01*
X141922428Y-78520076D02*
X141884333Y-78443885D01*
X141884333Y-78443885D02*
X141846238Y-78405790D01*
X141846238Y-78405790D02*
X141770047Y-78367695D01*
X140589095Y-78329600D02*
X141274809Y-79358171D01*
X140360524Y-78443885D02*
X140322428Y-78405790D01*
X140322428Y-78405790D02*
X140246238Y-78367695D01*
X140246238Y-78367695D02*
X140055762Y-78367695D01*
X140055762Y-78367695D02*
X139979571Y-78405790D01*
X139979571Y-78405790D02*
X139941476Y-78443885D01*
X139941476Y-78443885D02*
X139903381Y-78520076D01*
X139903381Y-78520076D02*
X139903381Y-78596266D01*
X139903381Y-78596266D02*
X139941476Y-78710552D01*
X139941476Y-78710552D02*
X140398619Y-79167695D01*
X140398619Y-79167695D02*
X139903381Y-79167695D01*
X139408142Y-78367695D02*
X139331952Y-78367695D01*
X139331952Y-78367695D02*
X139255761Y-78405790D01*
X139255761Y-78405790D02*
X139217666Y-78443885D01*
X139217666Y-78443885D02*
X139179571Y-78520076D01*
X139179571Y-78520076D02*
X139141476Y-78672457D01*
X139141476Y-78672457D02*
X139141476Y-78862933D01*
X139141476Y-78862933D02*
X139179571Y-79015314D01*
X139179571Y-79015314D02*
X139217666Y-79091504D01*
X139217666Y-79091504D02*
X139255761Y-79129600D01*
X139255761Y-79129600D02*
X139331952Y-79167695D01*
X139331952Y-79167695D02*
X139408142Y-79167695D01*
X139408142Y-79167695D02*
X139484333Y-79129600D01*
X139484333Y-79129600D02*
X139522428Y-79091504D01*
X139522428Y-79091504D02*
X139560523Y-79015314D01*
X139560523Y-79015314D02*
X139598619Y-78862933D01*
X139598619Y-78862933D02*
X139598619Y-78672457D01*
X139598619Y-78672457D02*
X139560523Y-78520076D01*
X139560523Y-78520076D02*
X139522428Y-78443885D01*
X139522428Y-78443885D02*
X139484333Y-78405790D01*
X139484333Y-78405790D02*
X139408142Y-78367695D01*
X138836714Y-78443885D02*
X138798618Y-78405790D01*
X138798618Y-78405790D02*
X138722428Y-78367695D01*
X138722428Y-78367695D02*
X138531952Y-78367695D01*
X138531952Y-78367695D02*
X138455761Y-78405790D01*
X138455761Y-78405790D02*
X138417666Y-78443885D01*
X138417666Y-78443885D02*
X138379571Y-78520076D01*
X138379571Y-78520076D02*
X138379571Y-78596266D01*
X138379571Y-78596266D02*
X138417666Y-78710552D01*
X138417666Y-78710552D02*
X138874809Y-79167695D01*
X138874809Y-79167695D02*
X138379571Y-79167695D01*
X138112904Y-78367695D02*
X137617666Y-78367695D01*
X137617666Y-78367695D02*
X137884332Y-78672457D01*
X137884332Y-78672457D02*
X137770047Y-78672457D01*
X137770047Y-78672457D02*
X137693856Y-78710552D01*
X137693856Y-78710552D02*
X137655761Y-78748647D01*
X137655761Y-78748647D02*
X137617666Y-78824838D01*
X137617666Y-78824838D02*
X137617666Y-79015314D01*
X137617666Y-79015314D02*
X137655761Y-79091504D01*
X137655761Y-79091504D02*
X137693856Y-79129600D01*
X137693856Y-79129600D02*
X137770047Y-79167695D01*
X137770047Y-79167695D02*
X137998618Y-79167695D01*
X137998618Y-79167695D02*
X138074809Y-79129600D01*
X138074809Y-79129600D02*
X138112904Y-79091504D01*
%TO.C,G\u002A\u002A\u002A*%
G36*
X148065943Y-75070300D02*
G01*
X134636058Y-75070300D01*
X134636058Y-74972982D01*
X148065943Y-74972982D01*
X148065943Y-75070300D01*
G37*
G36*
X135090209Y-70707210D02*
G01*
X134964641Y-70707210D01*
X134942621Y-70512574D01*
X134652278Y-70512574D01*
X134652278Y-71500363D01*
X134846914Y-71522383D01*
X134846914Y-71647950D01*
X134165688Y-71647950D01*
X134165688Y-71522383D01*
X134360324Y-71500363D01*
X134360324Y-70512574D01*
X134069980Y-70512574D01*
X134047960Y-70707210D01*
X133922393Y-70707210D01*
X133922393Y-70350377D01*
X135090209Y-70350377D01*
X135090209Y-70707210D01*
G37*
G36*
X144611154Y-72909899D02*
G01*
X144416518Y-72932489D01*
X144416518Y-73932936D01*
X144493561Y-73943250D01*
X144528353Y-73948081D01*
X144574891Y-73957080D01*
X144599621Y-73969536D01*
X144609416Y-73990151D01*
X144611154Y-74023623D01*
X144611154Y-74080901D01*
X143927969Y-74080901D01*
X143933004Y-74020077D01*
X143933610Y-74012834D01*
X143938249Y-73981565D01*
X143950679Y-73963986D01*
X143978997Y-73953935D01*
X144031301Y-73945247D01*
X144124564Y-73931241D01*
X144124564Y-72932489D01*
X143929928Y-72909899D01*
X143929928Y-72783327D01*
X144611154Y-72783327D01*
X144611154Y-72909899D01*
G37*
G36*
X142129545Y-67130095D02*
G01*
X141996090Y-67264246D01*
X141862636Y-67398397D01*
X140837725Y-67398397D01*
X140705091Y-67262512D01*
X140572456Y-67126627D01*
X140572456Y-67099271D01*
X140669774Y-67099271D01*
X140771584Y-67200175D01*
X140873393Y-67301079D01*
X141830418Y-67301079D01*
X141931322Y-67199270D01*
X142032227Y-67097461D01*
X142032227Y-64940248D01*
X141812447Y-64722152D01*
X140887870Y-64722152D01*
X140669774Y-64941932D01*
X140669774Y-67099271D01*
X140572456Y-67099271D01*
X140572456Y-64912825D01*
X140705091Y-64776939D01*
X140837725Y-64641054D01*
X141861242Y-64641054D01*
X141995394Y-64774508D01*
X142129545Y-64907962D01*
X142129545Y-67097461D01*
X142129545Y-67130095D01*
G37*
G36*
X143167603Y-67552267D02*
G01*
X142725728Y-67994362D01*
X142283853Y-68436456D01*
X140419753Y-68436456D01*
X139550617Y-67569504D01*
X139550617Y-67196231D01*
X140442699Y-67196231D01*
X140609228Y-67362193D01*
X140775756Y-67528155D01*
X141927352Y-67528155D01*
X142101437Y-67353529D01*
X142275522Y-67178902D01*
X142275522Y-64859490D01*
X142092797Y-64677284D01*
X141910071Y-64495077D01*
X140790869Y-64495077D01*
X140442699Y-64844329D01*
X140442699Y-67196231D01*
X139550617Y-67196231D01*
X139550617Y-64470969D01*
X139984381Y-64036982D01*
X140418144Y-63602995D01*
X142283414Y-63602995D01*
X142725509Y-64044871D01*
X143167603Y-64486746D01*
X143167603Y-67178902D01*
X143167603Y-67552267D01*
G37*
G36*
X143361021Y-67649802D02*
G01*
X142873177Y-68148557D01*
X142385334Y-68647312D01*
X140337464Y-68647312D01*
X139838613Y-68148655D01*
X139339762Y-67649999D01*
X139339762Y-64411439D01*
X139415499Y-64411439D01*
X139437411Y-67617363D01*
X139903456Y-68083678D01*
X140369501Y-68549994D01*
X142332497Y-68549994D01*
X142806819Y-68075467D01*
X143281141Y-67600941D01*
X143281141Y-64405659D01*
X142814722Y-63939448D01*
X142348304Y-63473238D01*
X140353281Y-63473238D01*
X139884390Y-63942338D01*
X139415499Y-64411439D01*
X139339762Y-64411439D01*
X139339762Y-64364982D01*
X140317506Y-63375920D01*
X142380753Y-63375920D01*
X143362239Y-64357010D01*
X143361039Y-67600941D01*
X143361021Y-67649802D01*
G37*
G36*
X137442061Y-73140160D02*
G01*
X137315488Y-73140160D01*
X137292898Y-72945524D01*
X137004129Y-72945524D01*
X137004129Y-73931241D01*
X137097393Y-73945247D01*
X137108497Y-73946919D01*
X137156077Y-73955402D01*
X137181071Y-73966314D01*
X137191577Y-73985817D01*
X137195690Y-74020077D01*
X137200724Y-74080901D01*
X136515581Y-74080901D01*
X136520615Y-74020077D01*
X136521222Y-74012834D01*
X136525861Y-73981565D01*
X136538291Y-73963986D01*
X136566609Y-73953935D01*
X136618912Y-73945247D01*
X136712175Y-73931241D01*
X136712175Y-72945524D01*
X136421832Y-72945524D01*
X136399812Y-73140160D01*
X136274244Y-73140160D01*
X136274244Y-72783327D01*
X137442061Y-72783327D01*
X137442061Y-73140160D01*
G37*
G36*
X138261154Y-72791437D02*
G01*
X138261154Y-72848206D01*
X138261147Y-72854829D01*
X138259070Y-72884095D01*
X138247957Y-72900655D01*
X138220125Y-72910340D01*
X138167891Y-72918981D01*
X138074628Y-72932987D01*
X138074628Y-73932936D01*
X138151671Y-73943250D01*
X138186463Y-73948081D01*
X138233001Y-73957080D01*
X138257731Y-73969536D01*
X138267526Y-73990151D01*
X138269264Y-74023623D01*
X138269264Y-74080901D01*
X137586079Y-74080901D01*
X137591113Y-74020077D01*
X137591741Y-74012579D01*
X137596394Y-73981446D01*
X137608871Y-73963936D01*
X137637259Y-73953906D01*
X137689642Y-73945213D01*
X137783137Y-73931173D01*
X137778850Y-73434293D01*
X137774564Y-72937414D01*
X137588038Y-72907834D01*
X137588038Y-72782669D01*
X138261154Y-72791437D01*
G37*
G36*
X141753416Y-70411201D02*
G01*
X141752810Y-70418443D01*
X141748171Y-70449713D01*
X141735741Y-70467291D01*
X141707423Y-70477342D01*
X141655119Y-70486030D01*
X141561856Y-70500036D01*
X141561856Y-71498291D01*
X141655119Y-71512297D01*
X141666223Y-71513969D01*
X141713804Y-71522452D01*
X141738798Y-71533364D01*
X141749303Y-71552867D01*
X141753416Y-71587127D01*
X141758450Y-71647950D01*
X141075266Y-71647950D01*
X141075266Y-71522712D01*
X141156751Y-71513061D01*
X141185393Y-71509195D01*
X141229738Y-71501088D01*
X141254069Y-71493625D01*
X141258228Y-71478297D01*
X141262238Y-71432437D01*
X141265483Y-71358476D01*
X141267890Y-71258705D01*
X141269387Y-71135417D01*
X141269902Y-70990902D01*
X141269902Y-70497965D01*
X141172584Y-70486955D01*
X141075266Y-70475944D01*
X141075266Y-70350377D01*
X141758450Y-70350377D01*
X141753416Y-70411201D01*
G37*
G36*
X137652916Y-70707210D02*
G01*
X137588772Y-70707210D01*
X137573652Y-70707114D01*
X137539405Y-70702838D01*
X137523443Y-70685590D01*
X137514849Y-70646386D01*
X137508725Y-70607139D01*
X137499485Y-70557439D01*
X137486369Y-70529003D01*
X137462255Y-70515962D01*
X137420020Y-70512442D01*
X137352543Y-70512574D01*
X137214985Y-70512574D01*
X137214985Y-71499639D01*
X137304193Y-71510785D01*
X137393402Y-71521931D01*
X137393402Y-71647950D01*
X136728395Y-71647950D01*
X136728395Y-71521931D01*
X136906811Y-71499639D01*
X136906811Y-70512574D01*
X136768435Y-70512574D01*
X136735909Y-70512546D01*
X136678466Y-70513931D01*
X136643709Y-70521391D01*
X136624779Y-70539921D01*
X136614817Y-70574514D01*
X136606965Y-70630166D01*
X136596650Y-70707210D01*
X136468880Y-70707210D01*
X136468880Y-70350377D01*
X137652916Y-70350377D01*
X137652916Y-70707210D01*
G37*
G36*
X133805779Y-70411201D02*
G01*
X133805173Y-70418443D01*
X133800534Y-70449713D01*
X133788104Y-70467291D01*
X133759785Y-70477342D01*
X133707482Y-70486030D01*
X133614219Y-70500036D01*
X133614219Y-71500363D01*
X133808855Y-71522383D01*
X133808855Y-71647950D01*
X132689698Y-71647950D01*
X132689698Y-71307337D01*
X132816981Y-71307337D01*
X132830517Y-71392491D01*
X132844053Y-71477644D01*
X133083159Y-71482132D01*
X133322265Y-71486621D01*
X133322265Y-71047823D01*
X133018270Y-71047823D01*
X133007512Y-71128921D01*
X133001396Y-71170059D01*
X132991958Y-71197781D01*
X132973954Y-71208340D01*
X132940544Y-71210019D01*
X132884334Y-71210019D01*
X132884334Y-70723429D01*
X132938821Y-70723429D01*
X132967907Y-70724707D01*
X132987135Y-70733972D01*
X132998252Y-70759255D01*
X133007755Y-70808583D01*
X133022201Y-70893736D01*
X133172233Y-70898399D01*
X133322265Y-70903063D01*
X133322265Y-70511707D01*
X133083159Y-70516195D01*
X132844053Y-70520684D01*
X132816981Y-70690990D01*
X132689698Y-70690990D01*
X132689698Y-70350377D01*
X133810813Y-70350377D01*
X133805779Y-70411201D01*
G37*
G36*
X146927490Y-70411201D02*
G01*
X146926884Y-70418443D01*
X146922245Y-70449713D01*
X146909815Y-70467291D01*
X146881497Y-70477342D01*
X146829193Y-70486030D01*
X146735930Y-70500036D01*
X146735930Y-71498291D01*
X146829193Y-71512297D01*
X146840298Y-71513969D01*
X146887878Y-71522452D01*
X146912872Y-71533364D01*
X146923377Y-71552867D01*
X146927490Y-71587127D01*
X146932524Y-71647950D01*
X145811409Y-71647950D01*
X145811409Y-71307337D01*
X145938832Y-71307337D01*
X145949978Y-71396546D01*
X145961124Y-71485754D01*
X146443976Y-71485754D01*
X146443976Y-71047823D01*
X146138847Y-71047823D01*
X146127693Y-71128921D01*
X146121491Y-71169334D01*
X146111962Y-71197455D01*
X146094155Y-71208258D01*
X146061292Y-71210019D01*
X146006045Y-71210019D01*
X146006045Y-70721374D01*
X146057982Y-70726457D01*
X146078424Y-70729202D01*
X146101250Y-70739496D01*
X146115123Y-70764402D01*
X146127030Y-70812638D01*
X146144142Y-70893736D01*
X146435866Y-70893736D01*
X146445006Y-70512574D01*
X145961124Y-70512574D01*
X145938832Y-70690990D01*
X145811409Y-70690990D01*
X145811409Y-70350377D01*
X146932524Y-70350377D01*
X146927490Y-70411201D01*
G37*
G36*
X141647009Y-72787169D02*
G01*
X142202533Y-72791437D01*
X142202533Y-72848206D01*
X142202526Y-72854829D01*
X142200450Y-72884095D01*
X142189336Y-72900655D01*
X142161504Y-72910340D01*
X142109270Y-72918981D01*
X142016007Y-72932987D01*
X142016007Y-73932936D01*
X142093050Y-73943250D01*
X142127842Y-73948081D01*
X142174380Y-73957080D01*
X142199110Y-73969536D01*
X142208906Y-73990151D01*
X142210643Y-74023623D01*
X142210643Y-74080901D01*
X141091486Y-74080901D01*
X141091486Y-73740288D01*
X141218909Y-73740288D01*
X141241201Y-73918704D01*
X141724053Y-73918704D01*
X141724053Y-73480773D01*
X141416996Y-73480773D01*
X141406238Y-73561871D01*
X141400278Y-73602033D01*
X141390929Y-73630299D01*
X141373332Y-73641183D01*
X141340801Y-73642970D01*
X141286122Y-73642970D01*
X141286122Y-73154324D01*
X141338059Y-73159407D01*
X141358500Y-73162152D01*
X141381326Y-73172446D01*
X141395200Y-73197352D01*
X141407107Y-73245588D01*
X141424218Y-73326686D01*
X141715943Y-73326686D01*
X141720513Y-73136105D01*
X141725082Y-72945524D01*
X141241201Y-72945524D01*
X141218909Y-73123940D01*
X141091486Y-73123940D01*
X141091486Y-72782901D01*
X141647009Y-72787169D01*
G37*
G36*
X146003037Y-72786931D02*
G01*
X146225011Y-72791437D01*
X146225011Y-72848206D01*
X146225004Y-72854829D01*
X146222927Y-72884095D01*
X146211814Y-72900655D01*
X146183982Y-72910340D01*
X146131748Y-72918981D01*
X146038485Y-72932987D01*
X146038485Y-73932936D01*
X146115528Y-73943250D01*
X146150319Y-73948081D01*
X146196858Y-73957080D01*
X146221588Y-73969536D01*
X146231383Y-73990151D01*
X146233121Y-74023623D01*
X146233121Y-74080901D01*
X145647254Y-74080901D01*
X145652288Y-74020077D01*
X145652895Y-74012834D01*
X145657534Y-73981565D01*
X145669964Y-73963986D01*
X145698282Y-73953935D01*
X145750585Y-73945247D01*
X145843849Y-73931241D01*
X145843265Y-73547865D01*
X145842682Y-73164489D01*
X145805054Y-73210483D01*
X145799892Y-73217072D01*
X145774754Y-73250935D01*
X145734638Y-73306226D01*
X145682183Y-73379262D01*
X145620029Y-73466357D01*
X145550818Y-73563828D01*
X145477189Y-73667990D01*
X145186952Y-74079504D01*
X145069359Y-74080202D01*
X144951767Y-74080901D01*
X144951767Y-72932489D01*
X144757131Y-72909899D01*
X144757131Y-72783327D01*
X145341039Y-72783327D01*
X145341039Y-72909899D01*
X145146403Y-72932489D01*
X145146403Y-73666407D01*
X145223446Y-73558924D01*
X145241655Y-73533533D01*
X145283230Y-73475596D01*
X145337640Y-73399799D01*
X145401174Y-73311312D01*
X145470123Y-73215300D01*
X145540777Y-73116933D01*
X145781064Y-72782425D01*
X146003037Y-72786931D01*
G37*
G36*
X135301064Y-72907834D02*
G01*
X135212021Y-72922624D01*
X135122979Y-72937414D01*
X135229587Y-73107721D01*
X135272479Y-73176173D01*
X135311714Y-73238664D01*
X135342405Y-73287417D01*
X135360227Y-73315550D01*
X135364066Y-73321404D01*
X135373864Y-73332265D01*
X135384978Y-73332622D01*
X135400620Y-73319097D01*
X135424005Y-73288314D01*
X135458345Y-73236895D01*
X135506853Y-73161463D01*
X135521191Y-73139004D01*
X135564540Y-73070444D01*
X135600531Y-73012555D01*
X135625752Y-72970864D01*
X135636791Y-72950899D01*
X135635637Y-72943714D01*
X135609764Y-72930917D01*
X135553698Y-72920646D01*
X135463261Y-72909347D01*
X135463261Y-72783327D01*
X136144487Y-72783327D01*
X136144487Y-72909347D01*
X136056287Y-72920367D01*
X135968087Y-72931386D01*
X135772443Y-73230473D01*
X135576799Y-73529559D01*
X135576799Y-73931241D01*
X135670062Y-73945247D01*
X135681166Y-73946919D01*
X135728746Y-73955402D01*
X135753741Y-73966314D01*
X135764246Y-73985817D01*
X135768359Y-74020077D01*
X135773393Y-74080901D01*
X135090209Y-74080901D01*
X135090209Y-74023623D01*
X135090523Y-74004459D01*
X135095559Y-73978207D01*
X135112201Y-73962388D01*
X135147323Y-73952302D01*
X135207801Y-73943250D01*
X135284845Y-73932936D01*
X135284845Y-73512874D01*
X135097568Y-73222162D01*
X134910290Y-72931451D01*
X134733376Y-72909347D01*
X134733376Y-72783327D01*
X135301064Y-72783327D01*
X135301064Y-72907834D01*
G37*
G36*
X142867539Y-72791437D02*
G01*
X142867539Y-72848012D01*
X142865849Y-72879819D01*
X142855609Y-72898258D01*
X142829032Y-72909728D01*
X142778331Y-72920628D01*
X142741055Y-72929437D01*
X142704850Y-72942481D01*
X142691994Y-72953940D01*
X142693477Y-72959625D01*
X142704298Y-72992542D01*
X142723833Y-73048246D01*
X142750285Y-73121893D01*
X142781858Y-73208639D01*
X142816754Y-73303638D01*
X142853177Y-73402049D01*
X142889330Y-73499025D01*
X142923416Y-73589723D01*
X142953639Y-73669299D01*
X142978202Y-73732908D01*
X142995307Y-73775707D01*
X143003159Y-73792851D01*
X143008767Y-73784539D01*
X143024304Y-73750427D01*
X143047787Y-73694355D01*
X143077445Y-73620941D01*
X143111505Y-73534803D01*
X143148195Y-73440558D01*
X143185743Y-73342825D01*
X143222376Y-73246220D01*
X143256323Y-73155362D01*
X143285811Y-73074868D01*
X143309068Y-73009355D01*
X143324322Y-72963442D01*
X143329800Y-72941747D01*
X143321760Y-72936560D01*
X143289358Y-72928241D01*
X143240592Y-72920493D01*
X143151384Y-72909347D01*
X143151384Y-72783327D01*
X143816390Y-72783327D01*
X143816390Y-72907834D01*
X143724925Y-72922624D01*
X143633461Y-72937414D01*
X143428253Y-73480773D01*
X143384584Y-73596385D01*
X143339764Y-73715009D01*
X143299517Y-73821489D01*
X143265222Y-73912184D01*
X143238254Y-73983453D01*
X143219991Y-74031656D01*
X143211809Y-74053152D01*
X143208845Y-74059485D01*
X143196512Y-74071048D01*
X143171864Y-74077193D01*
X143128218Y-74078983D01*
X143058891Y-74077481D01*
X142917210Y-74072791D01*
X142704420Y-73505102D01*
X142491630Y-72937414D01*
X142399796Y-72922624D01*
X142307961Y-72907834D01*
X142307961Y-72782561D01*
X142867539Y-72791437D01*
G37*
G36*
X150012303Y-70366597D02*
G01*
X149947734Y-70366597D01*
X149942135Y-70366602D01*
X149910961Y-70365536D01*
X149891255Y-70357992D01*
X149878764Y-70337600D01*
X149869235Y-70297988D01*
X149858416Y-70232784D01*
X149848637Y-70171961D01*
X149477054Y-70171961D01*
X149477054Y-70827764D01*
X149477040Y-70870171D01*
X149476805Y-71027331D01*
X149476698Y-71155735D01*
X149477264Y-71258346D01*
X149479050Y-71338128D01*
X149482602Y-71398047D01*
X149488465Y-71441067D01*
X149497185Y-71470153D01*
X149509309Y-71488268D01*
X149525382Y-71498379D01*
X149545950Y-71503449D01*
X149571560Y-71506442D01*
X149602757Y-71510324D01*
X149628310Y-71514567D01*
X149658380Y-71524455D01*
X149669855Y-71544553D01*
X149671690Y-71584497D01*
X149671690Y-71647950D01*
X148974244Y-71647950D01*
X148974244Y-71584497D01*
X148974536Y-71560931D01*
X148980198Y-71532371D01*
X149000093Y-71518714D01*
X149043178Y-71510324D01*
X149051218Y-71509151D01*
X149081022Y-71505753D01*
X149105370Y-71502531D01*
X149124807Y-71496520D01*
X149139881Y-71484756D01*
X149151136Y-71464273D01*
X149159120Y-71432108D01*
X149164377Y-71385295D01*
X149167454Y-71320871D01*
X149168897Y-71235870D01*
X149169252Y-71127329D01*
X149169064Y-70992282D01*
X149168880Y-70827764D01*
X149168880Y-70171961D01*
X148982663Y-70171961D01*
X148937141Y-70171795D01*
X148870930Y-70171987D01*
X148828088Y-70176014D01*
X148802680Y-70187641D01*
X148788769Y-70210634D01*
X148780421Y-70248756D01*
X148771698Y-70305773D01*
X148769294Y-70320097D01*
X148759668Y-70351919D01*
X148739468Y-70364425D01*
X148697775Y-70366597D01*
X148633631Y-70366597D01*
X148633631Y-69993544D01*
X150012303Y-69993544D01*
X150012303Y-70366597D01*
G37*
G36*
X147738474Y-70411201D02*
G01*
X147737868Y-70418443D01*
X147733229Y-70449713D01*
X147720798Y-70467291D01*
X147692480Y-70477342D01*
X147640177Y-70486030D01*
X147546914Y-70500036D01*
X147546914Y-70885626D01*
X148049723Y-70885626D01*
X148049723Y-70500036D01*
X147956460Y-70486030D01*
X147945356Y-70484358D01*
X147897776Y-70475875D01*
X147872782Y-70464964D01*
X147862276Y-70445460D01*
X147858163Y-70411201D01*
X147853129Y-70350377D01*
X148538272Y-70350377D01*
X148533238Y-70411201D01*
X148532631Y-70418443D01*
X148527992Y-70449713D01*
X148515562Y-70467291D01*
X148487244Y-70477342D01*
X148434940Y-70486030D01*
X148341677Y-70500036D01*
X148341677Y-71500363D01*
X148536313Y-71522383D01*
X148536313Y-71647950D01*
X147853129Y-71647950D01*
X147858163Y-71587127D01*
X147858770Y-71579884D01*
X147863409Y-71548615D01*
X147875839Y-71531036D01*
X147904157Y-71520985D01*
X147956460Y-71512297D01*
X148049723Y-71498291D01*
X148049723Y-71047823D01*
X147546914Y-71047823D01*
X147546914Y-71265831D01*
X147546935Y-71277772D01*
X147548354Y-71360763D01*
X147551722Y-71428139D01*
X147556650Y-71474295D01*
X147562747Y-71493625D01*
X147573003Y-71497528D01*
X147609924Y-71505651D01*
X147660065Y-71513061D01*
X147741550Y-71522712D01*
X147741550Y-71647950D01*
X147058365Y-71647950D01*
X147063399Y-71587127D01*
X147064006Y-71579884D01*
X147068645Y-71548615D01*
X147081075Y-71531036D01*
X147109393Y-71520985D01*
X147161697Y-71512297D01*
X147254960Y-71498291D01*
X147254960Y-70500036D01*
X147161697Y-70486030D01*
X147150592Y-70484358D01*
X147103012Y-70475875D01*
X147078018Y-70464964D01*
X147067513Y-70445460D01*
X147063399Y-70411201D01*
X147058365Y-70350377D01*
X147743508Y-70350377D01*
X147738474Y-70411201D01*
G37*
G36*
X142580619Y-70410417D02*
G01*
X142580557Y-70411165D01*
X142576041Y-70445309D01*
X142564340Y-70464911D01*
X142537202Y-70476713D01*
X142486377Y-70487461D01*
X142397169Y-70504464D01*
X142392599Y-70695045D01*
X142388030Y-70885626D01*
X142891869Y-70885626D01*
X142891869Y-70500036D01*
X142798606Y-70486030D01*
X142787502Y-70484358D01*
X142739921Y-70475875D01*
X142714927Y-70464964D01*
X142704422Y-70445460D01*
X142700309Y-70411201D01*
X142695275Y-70350377D01*
X143380417Y-70350377D01*
X143375383Y-70411201D01*
X143374777Y-70418443D01*
X143370138Y-70449713D01*
X143357708Y-70467291D01*
X143329389Y-70477342D01*
X143277086Y-70486030D01*
X143183823Y-70500036D01*
X143183823Y-71500363D01*
X143378459Y-71522383D01*
X143378459Y-71647950D01*
X142695275Y-71647950D01*
X142700309Y-71587127D01*
X142700915Y-71579884D01*
X142705554Y-71548615D01*
X142717984Y-71531036D01*
X142746302Y-71520985D01*
X142798606Y-71512297D01*
X142891869Y-71498291D01*
X142891869Y-71047823D01*
X142389059Y-71047823D01*
X142389059Y-71265831D01*
X142389080Y-71277772D01*
X142390500Y-71360763D01*
X142393868Y-71428139D01*
X142398795Y-71474295D01*
X142404893Y-71493625D01*
X142415149Y-71497528D01*
X142452070Y-71505651D01*
X142502211Y-71513061D01*
X142583695Y-71522712D01*
X142583695Y-71647950D01*
X141900511Y-71647950D01*
X141905545Y-71587127D01*
X141906151Y-71579884D01*
X141910790Y-71548615D01*
X141923220Y-71531036D01*
X141951539Y-71520985D01*
X142003842Y-71512297D01*
X142097105Y-71498291D01*
X142097105Y-70500036D01*
X142003842Y-70486030D01*
X141992738Y-70484358D01*
X141945158Y-70475875D01*
X141920163Y-70464964D01*
X141909658Y-70445460D01*
X141905545Y-70411201D01*
X141900511Y-70350377D01*
X142585653Y-70350377D01*
X142580619Y-70410417D01*
G37*
G36*
X136364444Y-71493864D02*
G01*
X136457211Y-71508654D01*
X136549979Y-71523444D01*
X136549979Y-71647950D01*
X135980332Y-71647950D01*
X135985366Y-71587193D01*
X135989414Y-71553663D01*
X136000247Y-71533130D01*
X136026117Y-71521905D01*
X136075554Y-71512968D01*
X136105396Y-71507159D01*
X136145694Y-71493721D01*
X136160707Y-71479162D01*
X136156189Y-71458594D01*
X136142052Y-71415990D01*
X136121642Y-71362807D01*
X136082578Y-71266788D01*
X135589357Y-71266788D01*
X135498931Y-71493864D01*
X135590579Y-71510464D01*
X135597108Y-71511649D01*
X135646020Y-71521761D01*
X135671926Y-71533454D01*
X135682962Y-71553209D01*
X135687261Y-71587507D01*
X135692295Y-71647950D01*
X135007152Y-71647950D01*
X135012186Y-71587127D01*
X135012582Y-71582377D01*
X135017106Y-71549776D01*
X135029097Y-71531524D01*
X135056761Y-71521260D01*
X135108308Y-71512620D01*
X135199397Y-71498937D01*
X135325642Y-71172007D01*
X135353178Y-71100766D01*
X135657897Y-71100766D01*
X135669040Y-71104908D01*
X135706679Y-71108946D01*
X135764619Y-71111690D01*
X135836313Y-71112701D01*
X135898227Y-71111956D01*
X135958587Y-71109438D01*
X135999603Y-71105562D01*
X136014730Y-71100766D01*
X136013979Y-71095682D01*
X136005013Y-71064673D01*
X135987800Y-71013598D01*
X135964719Y-70948788D01*
X135938151Y-70876577D01*
X135910477Y-70803295D01*
X135884075Y-70735275D01*
X135861328Y-70678850D01*
X135844614Y-70640351D01*
X135836313Y-70626111D01*
X135834402Y-70628108D01*
X135822746Y-70651962D01*
X135803548Y-70697756D01*
X135779187Y-70759159D01*
X135752044Y-70829839D01*
X135724498Y-70903464D01*
X135698930Y-70973701D01*
X135677721Y-71034219D01*
X135663250Y-71078685D01*
X135657897Y-71100766D01*
X135353178Y-71100766D01*
X135367481Y-71063762D01*
X135416523Y-70937088D01*
X135465659Y-70810349D01*
X135510971Y-70693656D01*
X135548536Y-70597121D01*
X135645186Y-70349165D01*
X135925270Y-70358487D01*
X136144857Y-70926175D01*
X136212390Y-71100766D01*
X136364444Y-71493864D01*
G37*
G36*
X144974349Y-70828857D02*
G01*
X144972333Y-70909869D01*
X144952988Y-71091235D01*
X144913077Y-71247635D01*
X144852466Y-71379267D01*
X144771018Y-71486327D01*
X144668598Y-71569012D01*
X144545070Y-71627519D01*
X144400298Y-71662045D01*
X144337604Y-71668156D01*
X144252651Y-71670987D01*
X144173223Y-71668762D01*
X144074998Y-71657455D01*
X143930862Y-71620797D01*
X143808780Y-71561269D01*
X143708291Y-71478335D01*
X143628934Y-71371461D01*
X143570250Y-71240111D01*
X143531778Y-71083751D01*
X143513058Y-70901846D01*
X143512919Y-70816104D01*
X143835321Y-70816104D01*
X143839915Y-70953358D01*
X143855625Y-71081279D01*
X143884127Y-71199080D01*
X143931902Y-71310677D01*
X143995687Y-71394951D01*
X144075905Y-71452612D01*
X144094755Y-71461382D01*
X144190463Y-71487876D01*
X144290032Y-71490012D01*
X144384334Y-71468465D01*
X144464239Y-71423910D01*
X144483883Y-71407070D01*
X144546560Y-71333166D01*
X144593849Y-71239275D01*
X144626517Y-71122894D01*
X144645328Y-70981517D01*
X144651048Y-70812638D01*
X144645636Y-70661338D01*
X144627488Y-70519104D01*
X144595710Y-70402650D01*
X144549417Y-70309667D01*
X144487718Y-70237846D01*
X144409728Y-70184877D01*
X144362813Y-70167146D01*
X144278319Y-70153071D01*
X144187842Y-70153895D01*
X144105305Y-70170287D01*
X144051627Y-70199181D01*
X143992656Y-70250422D01*
X143939807Y-70313966D01*
X143902033Y-70380553D01*
X143882395Y-70436598D01*
X143857145Y-70548897D01*
X143841259Y-70678341D01*
X143835321Y-70816104D01*
X143512919Y-70816104D01*
X143512791Y-70737335D01*
X143530983Y-70564720D01*
X143568329Y-70412092D01*
X143624150Y-70281447D01*
X143697764Y-70174779D01*
X143788492Y-70094086D01*
X143872879Y-70046161D01*
X144002061Y-69999158D01*
X144141046Y-69973681D01*
X144283852Y-69969352D01*
X144424495Y-69985795D01*
X144556991Y-70022635D01*
X144675357Y-70079496D01*
X144773610Y-70156000D01*
X144838981Y-70234974D01*
X144899613Y-70348038D01*
X144942021Y-70483486D01*
X144966751Y-70643148D01*
X144973685Y-70812638D01*
X144974349Y-70828857D01*
G37*
G36*
X140702214Y-73932936D02*
G01*
X140779257Y-73943250D01*
X140814049Y-73948081D01*
X140860587Y-73957080D01*
X140885317Y-73969536D01*
X140895112Y-73990151D01*
X140896850Y-74023623D01*
X140896850Y-74080901D01*
X140213666Y-74080901D01*
X140218700Y-74020077D01*
X140219306Y-74012834D01*
X140223945Y-73981565D01*
X140236375Y-73963986D01*
X140264693Y-73953935D01*
X140316997Y-73945247D01*
X140410260Y-73931241D01*
X140410260Y-73492774D01*
X140335251Y-73501228D01*
X140320110Y-73503290D01*
X140271007Y-73516883D01*
X140227880Y-73542981D01*
X140187706Y-73585310D01*
X140147462Y-73647592D01*
X140104126Y-73733552D01*
X140054676Y-73846914D01*
X139960463Y-74072791D01*
X139747430Y-74077317D01*
X139534398Y-74081842D01*
X139534398Y-74024094D01*
X139534652Y-74006281D01*
X139539399Y-73979074D01*
X139555575Y-73962774D01*
X139590119Y-73952545D01*
X139649966Y-73943554D01*
X139724986Y-73933543D01*
X139784853Y-73789109D01*
X139794613Y-73766177D01*
X139831533Y-73686624D01*
X139871177Y-73609628D01*
X139906494Y-73549099D01*
X139968267Y-73453523D01*
X139910634Y-73422544D01*
X139892103Y-73410589D01*
X139846636Y-73369455D01*
X139807915Y-73320525D01*
X139781776Y-73272791D01*
X139752324Y-73174762D01*
X139752398Y-73170154D01*
X140045100Y-73170154D01*
X140066644Y-73242221D01*
X140111162Y-73303264D01*
X140136193Y-73323012D01*
X140167687Y-73336353D01*
X140213121Y-73344067D01*
X140281741Y-73348614D01*
X140410260Y-73354450D01*
X140410260Y-72945524D01*
X140282690Y-72945524D01*
X140232053Y-72946242D01*
X140178453Y-72950767D01*
X140141757Y-72961030D01*
X140112774Y-72978833D01*
X140070756Y-73027821D01*
X140046485Y-73095782D01*
X140045100Y-73170154D01*
X139752398Y-73170154D01*
X139753882Y-73077887D01*
X139786080Y-72985976D01*
X139848547Y-72902841D01*
X139879327Y-72873777D01*
X139911995Y-72848846D01*
X139948413Y-72829566D01*
X139992679Y-72815212D01*
X140048889Y-72805059D01*
X140121142Y-72798380D01*
X140213537Y-72794452D01*
X140330169Y-72792548D01*
X140475138Y-72791943D01*
X140888740Y-72791437D01*
X140888740Y-72848206D01*
X140888733Y-72854829D01*
X140886656Y-72884095D01*
X140875543Y-72900655D01*
X140847711Y-72910340D01*
X140795477Y-72918981D01*
X140702214Y-72932987D01*
X140702214Y-73354450D01*
X140702214Y-73932936D01*
G37*
G36*
X140952697Y-71058336D02*
G01*
X140951067Y-71139602D01*
X140947291Y-71200143D01*
X140940510Y-71247385D01*
X140929863Y-71288751D01*
X140914490Y-71331667D01*
X140876595Y-71408136D01*
X140802008Y-71504032D01*
X140708514Y-71579869D01*
X140602234Y-71629804D01*
X140591443Y-71633107D01*
X140482026Y-71655457D01*
X140351145Y-71663259D01*
X140250560Y-71659551D01*
X140108332Y-71635343D01*
X139988893Y-71588339D01*
X139891910Y-71518190D01*
X139817054Y-71424546D01*
X139763994Y-71307059D01*
X139732401Y-71165382D01*
X139722963Y-71015383D01*
X140032022Y-71015383D01*
X140033806Y-71086444D01*
X140045922Y-71209081D01*
X140070664Y-71306051D01*
X140109527Y-71380746D01*
X140164007Y-71436556D01*
X140235599Y-71476870D01*
X140241767Y-71479338D01*
X140297380Y-71495287D01*
X140348915Y-71501617D01*
X140384902Y-71497991D01*
X140455902Y-71475818D01*
X140521092Y-71439104D01*
X140567174Y-71394381D01*
X140595149Y-71350305D01*
X140616815Y-71304415D01*
X140631343Y-71253095D01*
X140640067Y-71189607D01*
X140644323Y-71107210D01*
X140645445Y-70999164D01*
X140645442Y-70987419D01*
X140644975Y-70896952D01*
X140643049Y-70831046D01*
X140638723Y-70782607D01*
X140631056Y-70744540D01*
X140619106Y-70709750D01*
X140601933Y-70671141D01*
X140568507Y-70614011D01*
X140502938Y-70547792D01*
X140423593Y-70508911D01*
X140334512Y-70499053D01*
X140239734Y-70519905D01*
X140195023Y-70540981D01*
X140132620Y-70590811D01*
X140086202Y-70660583D01*
X140054685Y-70752881D01*
X140036985Y-70870286D01*
X140032022Y-71015383D01*
X139722963Y-71015383D01*
X139721943Y-70999164D01*
X139725992Y-70880268D01*
X139742619Y-70760874D01*
X139773944Y-70661064D01*
X139821939Y-70574893D01*
X139888572Y-70496417D01*
X139934316Y-70453496D01*
X139996472Y-70407187D01*
X140062397Y-70375263D01*
X140139162Y-70355380D01*
X140233837Y-70345196D01*
X140353491Y-70342369D01*
X140391367Y-70342463D01*
X140465909Y-70343771D01*
X140520268Y-70347717D01*
X140563165Y-70355679D01*
X140603322Y-70369037D01*
X140649459Y-70389170D01*
X140657312Y-70392860D01*
X140766588Y-70462148D01*
X140852614Y-70554032D01*
X140914881Y-70667977D01*
X140926458Y-70698210D01*
X140938459Y-70737576D01*
X140946268Y-70780016D01*
X140950731Y-70832868D01*
X140952692Y-70903471D01*
X140952997Y-70999164D01*
X140952697Y-71058336D01*
G37*
G36*
X138491122Y-69983509D02*
G01*
X138612254Y-70016930D01*
X138713605Y-70069747D01*
X138792771Y-70141494D01*
X138847350Y-70231704D01*
X138872506Y-70314934D01*
X138882237Y-70426508D01*
X138868668Y-70537772D01*
X138833019Y-70640224D01*
X138776509Y-70725360D01*
X138761936Y-70740771D01*
X138715965Y-70780872D01*
X138659053Y-70817784D01*
X138586047Y-70854188D01*
X138491794Y-70892763D01*
X138371142Y-70936191D01*
X138299353Y-70961835D01*
X138230167Y-70988339D01*
X138176257Y-71010911D01*
X138145389Y-71026444D01*
X138106977Y-71061109D01*
X138070950Y-71128719D01*
X138058408Y-71213522D01*
X138058420Y-71216187D01*
X138074079Y-71305209D01*
X138118369Y-71379702D01*
X138189778Y-71437095D01*
X138202757Y-71444308D01*
X138234729Y-71459426D01*
X138268314Y-71469110D01*
X138311216Y-71474518D01*
X138371140Y-71476810D01*
X138455790Y-71477147D01*
X138519960Y-71476709D01*
X138599819Y-71473781D01*
X138655277Y-71465836D01*
X138691285Y-71450268D01*
X138712793Y-71424475D01*
X138724751Y-71385851D01*
X138732109Y-71331795D01*
X138743413Y-71226239D01*
X138885611Y-71226239D01*
X138885611Y-71578346D01*
X138768018Y-71613007D01*
X138701839Y-71630448D01*
X138614496Y-71649431D01*
X138536888Y-71662471D01*
X138493838Y-71667080D01*
X138350062Y-71670282D01*
X138206106Y-71657027D01*
X138076622Y-71628399D01*
X138022159Y-71607800D01*
X137926411Y-71547872D01*
X137851228Y-71466606D01*
X137798345Y-71367794D01*
X137769498Y-71255226D01*
X137766422Y-71132695D01*
X137790852Y-71003993D01*
X137812211Y-70947689D01*
X137855579Y-70879204D01*
X137918004Y-70819505D01*
X138002828Y-70766167D01*
X138113394Y-70716768D01*
X138253044Y-70668884D01*
X138324190Y-70645463D01*
X138426150Y-70603597D01*
X138500313Y-70558939D01*
X138549633Y-70508949D01*
X138577061Y-70451088D01*
X138585547Y-70382816D01*
X138572940Y-70301951D01*
X138533223Y-70235686D01*
X138464314Y-70181496D01*
X138454055Y-70176222D01*
X138392902Y-70159145D01*
X138308334Y-70151102D01*
X138206711Y-70152404D01*
X138094393Y-70163363D01*
X138069498Y-70166701D01*
X138038507Y-70172832D01*
X138019065Y-70184965D01*
X138006745Y-70209561D01*
X137997125Y-70253082D01*
X137985778Y-70321993D01*
X137981338Y-70346719D01*
X137970977Y-70371769D01*
X137948436Y-70381304D01*
X137903586Y-70382816D01*
X137831333Y-70382816D01*
X137831333Y-70060939D01*
X137884046Y-70044374D01*
X138033065Y-70004303D01*
X138199124Y-69976729D01*
X138352611Y-69969953D01*
X138491122Y-69983509D01*
G37*
G36*
X146898127Y-72490272D02*
G01*
X146898022Y-72506079D01*
X146893697Y-72540138D01*
X146876426Y-72556006D01*
X146837303Y-72564561D01*
X146832334Y-72565366D01*
X146780747Y-72574201D01*
X146739019Y-72582067D01*
X146701559Y-72589794D01*
X146711601Y-73699738D01*
X146755976Y-73775224D01*
X146805423Y-73839637D01*
X146874323Y-73887969D01*
X146963016Y-73915766D01*
X147075478Y-73924890D01*
X147076791Y-73924893D01*
X147146386Y-73922225D01*
X147211409Y-73915042D01*
X147257945Y-73904871D01*
X147306449Y-73879827D01*
X147366996Y-73827971D01*
X147417549Y-73763447D01*
X147448426Y-73696832D01*
X147453112Y-73664970D01*
X147457403Y-73602304D01*
X147460895Y-73512798D01*
X147463503Y-73399338D01*
X147465141Y-73264805D01*
X147465725Y-73112085D01*
X147465815Y-72589309D01*
X147429321Y-72581825D01*
X147426086Y-72581171D01*
X147382982Y-72573189D01*
X147332003Y-72564561D01*
X147317679Y-72562157D01*
X147285857Y-72552531D01*
X147273351Y-72532331D01*
X147271179Y-72490638D01*
X147271179Y-72426495D01*
X147968625Y-72426495D01*
X147968625Y-72490638D01*
X147968529Y-72505759D01*
X147964253Y-72540006D01*
X147947005Y-72555967D01*
X147907801Y-72564561D01*
X147902632Y-72565398D01*
X147851452Y-72574142D01*
X147810483Y-72581825D01*
X147773989Y-72589309D01*
X147773989Y-73127240D01*
X147773983Y-73156650D01*
X147773685Y-73303378D01*
X147772820Y-73422188D01*
X147771221Y-73516915D01*
X147768721Y-73591395D01*
X147765154Y-73649463D01*
X147760353Y-73694953D01*
X147754153Y-73731702D01*
X147746387Y-73763543D01*
X147716307Y-73840025D01*
X147651287Y-73930520D01*
X147559434Y-74003793D01*
X147441440Y-74059333D01*
X147297995Y-74096626D01*
X147240944Y-74103365D01*
X147142998Y-74105700D01*
X147035686Y-74100398D01*
X146931747Y-74088208D01*
X146843925Y-74069882D01*
X146805024Y-74057222D01*
X146734313Y-74021272D01*
X146663203Y-73964780D01*
X146657911Y-73959944D01*
X146622893Y-73927344D01*
X146594229Y-73897432D01*
X146571252Y-73866696D01*
X146553295Y-73831624D01*
X146539689Y-73788702D01*
X146529768Y-73734419D01*
X146522863Y-73665260D01*
X146518306Y-73577715D01*
X146515430Y-73468269D01*
X146513567Y-73333412D01*
X146512050Y-73169629D01*
X146506994Y-72590860D01*
X146463320Y-72582220D01*
X146459931Y-72581554D01*
X146411765Y-72572522D01*
X146357961Y-72562950D01*
X146344448Y-72560546D01*
X146311748Y-72550877D01*
X146300216Y-72532049D01*
X146301192Y-72493461D01*
X146306109Y-72434604D01*
X146602118Y-72430184D01*
X146898127Y-72425763D01*
X146898127Y-72490272D01*
G37*
G36*
X139009110Y-72774668D02*
G01*
X139124344Y-72794689D01*
X139222151Y-72829189D01*
X139296291Y-72877210D01*
X139306406Y-72886953D01*
X139356491Y-72959001D01*
X139387273Y-73048144D01*
X139396593Y-73145246D01*
X139382293Y-73241171D01*
X139380629Y-73246770D01*
X139354025Y-73312227D01*
X139315005Y-73367552D01*
X139259612Y-73415550D01*
X139183887Y-73459026D01*
X139083872Y-73500787D01*
X138955611Y-73543636D01*
X138941088Y-73548168D01*
X138851407Y-73579883D01*
X138789044Y-73611242D01*
X138749753Y-73645813D01*
X138729292Y-73687165D01*
X138723414Y-73738866D01*
X138723464Y-73744142D01*
X138735479Y-73810079D01*
X138769930Y-73859351D01*
X138828729Y-73893088D01*
X138913785Y-73912422D01*
X139027012Y-73918483D01*
X139046202Y-73918448D01*
X139125984Y-73917450D01*
X139180081Y-73912902D01*
X139214139Y-73901830D01*
X139233803Y-73881265D01*
X139244718Y-73848233D01*
X139252530Y-73799763D01*
X139266773Y-73699738D01*
X139335707Y-73694751D01*
X139404640Y-73689763D01*
X139404640Y-73851935D01*
X139404003Y-73898119D01*
X139400840Y-73960062D01*
X139395627Y-74004412D01*
X139389038Y-74023750D01*
X139387610Y-74024524D01*
X139361563Y-74033961D01*
X139314403Y-74048161D01*
X139255225Y-74064364D01*
X139174019Y-74080949D01*
X139054861Y-74093580D01*
X138931190Y-74096003D01*
X138814733Y-74088100D01*
X138717220Y-74069754D01*
X138633439Y-74036669D01*
X138547153Y-73975588D01*
X138483676Y-73895797D01*
X138446848Y-73801111D01*
X138436669Y-73724956D01*
X138445578Y-73618632D01*
X138481180Y-73523337D01*
X138541499Y-73443699D01*
X138624561Y-73384350D01*
X138648987Y-73373417D01*
X138704787Y-73351967D01*
X138775631Y-73327226D01*
X138851929Y-73302643D01*
X138853922Y-73302028D01*
X138956307Y-73266643D01*
X139029914Y-73231590D01*
X139078206Y-73194204D01*
X139104643Y-73151817D01*
X139112686Y-73101763D01*
X139103040Y-73046378D01*
X139066726Y-72992943D01*
X139005854Y-72956161D01*
X138922997Y-72937473D01*
X138820732Y-72938321D01*
X138789988Y-72941425D01*
X138728012Y-72948931D01*
X138689503Y-72958125D01*
X138668050Y-72972486D01*
X138657244Y-72995494D01*
X138650675Y-73030626D01*
X138642750Y-73079253D01*
X138632417Y-73122928D01*
X138618380Y-73145926D01*
X138595872Y-73154870D01*
X138560125Y-73156380D01*
X138496339Y-73156380D01*
X138496339Y-73001891D01*
X138496303Y-72949679D01*
X138498585Y-72896658D01*
X138508022Y-72860451D01*
X138529513Y-72836277D01*
X138567957Y-72819350D01*
X138628254Y-72804888D01*
X138715304Y-72788107D01*
X138751318Y-72781888D01*
X138882688Y-72770082D01*
X139009110Y-72774668D01*
G37*
%TD*%
M02*
