%TF.GenerationSoftware,KiCad,Pcbnew,7.0.7*%
%TF.CreationDate,2023-09-21T17:56:24-04:00*%
%TF.ProjectId,Little_Master_Board,4c697474-6c65-45f4-9d61-737465725f42,rev?*%
%TF.SameCoordinates,Original*%
%TF.FileFunction,Copper,L1,Top*%
%TF.FilePolarity,Positive*%
%FSLAX46Y46*%
G04 Gerber Fmt 4.6, Leading zero omitted, Abs format (unit mm)*
G04 Created by KiCad (PCBNEW 7.0.7) date 2023-09-21 17:56:24*
%MOMM*%
%LPD*%
G01*
G04 APERTURE LIST*
G04 Aperture macros list*
%AMRoundRect*
0 Rectangle with rounded corners*
0 $1 Rounding radius*
0 $2 $3 $4 $5 $6 $7 $8 $9 X,Y pos of 4 corners*
0 Add a 4 corners polygon primitive as box body*
4,1,4,$2,$3,$4,$5,$6,$7,$8,$9,$2,$3,0*
0 Add four circle primitives for the rounded corners*
1,1,$1+$1,$2,$3*
1,1,$1+$1,$4,$5*
1,1,$1+$1,$6,$7*
1,1,$1+$1,$8,$9*
0 Add four rect primitives between the rounded corners*
20,1,$1+$1,$2,$3,$4,$5,0*
20,1,$1+$1,$4,$5,$6,$7,0*
20,1,$1+$1,$6,$7,$8,$9,0*
20,1,$1+$1,$8,$9,$2,$3,0*%
G04 Aperture macros list end*
%TA.AperFunction,SMDPad,CuDef*%
%ADD10RoundRect,0.140000X-0.170000X0.140000X-0.170000X-0.140000X0.170000X-0.140000X0.170000X0.140000X0*%
%TD*%
%TA.AperFunction,SMDPad,CuDef*%
%ADD11R,1.780000X0.420000*%
%TD*%
%TA.AperFunction,ComponentPad*%
%ADD12R,1.700000X1.700000*%
%TD*%
%TA.AperFunction,ComponentPad*%
%ADD13O,1.700000X1.700000*%
%TD*%
%TA.AperFunction,SMDPad,CuDef*%
%ADD14RoundRect,0.140000X0.140000X0.170000X-0.140000X0.170000X-0.140000X-0.170000X0.140000X-0.170000X0*%
%TD*%
%TA.AperFunction,SMDPad,CuDef*%
%ADD15RoundRect,0.140000X-0.140000X-0.170000X0.140000X-0.170000X0.140000X0.170000X-0.140000X0.170000X0*%
%TD*%
%TA.AperFunction,ComponentPad*%
%ADD16O,3.016000X1.508000*%
%TD*%
%TA.AperFunction,ComponentPad*%
%ADD17O,1.508000X3.016000*%
%TD*%
%TA.AperFunction,SMDPad,CuDef*%
%ADD18RoundRect,0.200000X0.200000X0.275000X-0.200000X0.275000X-0.200000X-0.275000X0.200000X-0.275000X0*%
%TD*%
%TA.AperFunction,ViaPad*%
%ADD19C,0.508000*%
%TD*%
%TA.AperFunction,Conductor*%
%ADD20C,0.254000*%
%TD*%
G04 APERTURE END LIST*
D10*
%TO.P,C1,1*%
%TO.N,Net-(U1-C1+)*%
X134466400Y-67310000D03*
%TO.P,C1,2*%
%TO.N,Net-(U1-C1-)*%
X134466400Y-68270000D03*
%TD*%
D11*
%TO.P,U1,1,~{EN}*%
%TO.N,/~{EN}*%
X139220900Y-66431400D03*
%TO.P,U1,2,C1+*%
%TO.N,Net-(U1-C1+)*%
X139220900Y-67081400D03*
%TO.P,U1,3,V+*%
%TO.N,Net-(U1-V+)*%
X139220900Y-67731400D03*
%TO.P,U1,4,C1-*%
%TO.N,Net-(U1-C1-)*%
X139220900Y-68381400D03*
%TO.P,U1,5,C2+*%
%TO.N,Net-(U1-C2+)*%
X139220900Y-69031400D03*
%TO.P,U1,6,C2-*%
%TO.N,Net-(U1-C2-)*%
X139220900Y-69681400D03*
%TO.P,U1,7,V-*%
%TO.N,Net-(U1-V-)*%
X139220900Y-70331400D03*
%TO.P,U1,8,T2OUT*%
%TO.N,unconnected-(U1-T2OUT-Pad8)*%
X139220900Y-70981400D03*
%TO.P,U1,9,R2IN*%
%TO.N,GND*%
X139220900Y-71631400D03*
%TO.P,U1,10,R2OUT*%
%TO.N,unconnected-(U1-R2OUT-Pad10)*%
X139220900Y-72281400D03*
%TO.P,U1,11,N.C._1*%
%TO.N,unconnected-(U1-N.C._1-Pad11)*%
X145160900Y-72281400D03*
%TO.P,U1,12,T2IN*%
%TO.N,GND*%
X145160900Y-71631400D03*
%TO.P,U1,13,T1IN*%
%TO.N,/T1IN*%
X145160900Y-70981400D03*
%TO.P,U1,14,N.C._2*%
%TO.N,unconnected-(U1-N.C._2-Pad14)*%
X145160900Y-70331400D03*
%TO.P,U1,15,R1OUT*%
%TO.N,/R1OUT*%
X145160900Y-69681400D03*
%TO.P,U1,16,R1IN*%
%TO.N,/R1IN*%
X145160900Y-69031400D03*
%TO.P,U1,17,T1OUT*%
%TO.N,/T1OUT*%
X145160900Y-68381400D03*
%TO.P,U1,18,GND*%
%TO.N,GND*%
X145160900Y-67731400D03*
%TO.P,U1,19,VCC*%
%TO.N,VCC*%
X145160900Y-67081400D03*
%TO.P,U1,20,~{SHDN}*%
%TO.N,/~{SHDN}*%
X145160900Y-66431400D03*
%TD*%
D12*
%TO.P,J1,1,Pin_1*%
%TO.N,Net-(J1-Pin_1)*%
X153974800Y-61595000D03*
D13*
%TO.P,J1,2,Pin_2*%
%TO.N,/~{EN}*%
X153974800Y-64135000D03*
%TO.P,J1,3,Pin_3*%
%TO.N,/T1IN*%
X153974800Y-66675000D03*
%TO.P,J1,4,Pin_4*%
%TO.N,/R1OUT*%
X153974800Y-69215000D03*
%TO.P,J1,5,Pin_5*%
%TO.N,/~{SHDN}*%
X153974800Y-71755000D03*
%TO.P,J1,6,Pin_6*%
%TO.N,VCC*%
X153974800Y-74295000D03*
%TO.P,J1,7,Pin_7*%
X153974800Y-76835000D03*
%TO.P,J1,8,Pin_8*%
%TO.N,GND*%
X156514800Y-76835000D03*
%TO.P,J1,9,Pin_9*%
X156514800Y-74295000D03*
%TO.P,J1,10,Pin_10*%
X156514800Y-71755000D03*
%TO.P,J1,11,Pin_11*%
X156514800Y-69215000D03*
%TO.P,J1,12,Pin_12*%
X156514800Y-66675000D03*
%TO.P,J1,13,Pin_13*%
X156514800Y-64135000D03*
%TO.P,J1,14,Pin_14*%
X156514800Y-61595000D03*
%TD*%
D14*
%TO.P,C3,1*%
%TO.N,Net-(U1-V+)*%
X136955600Y-67691000D03*
%TO.P,C3,2*%
%TO.N,GND*%
X135995600Y-67691000D03*
%TD*%
D10*
%TO.P,C2,1*%
%TO.N,Net-(U1-C2+)*%
X136955600Y-68912800D03*
%TO.P,C2,2*%
%TO.N,Net-(U1-C2-)*%
X136955600Y-69872800D03*
%TD*%
D15*
%TO.P,C4,1*%
%TO.N,GND*%
X135995600Y-70789800D03*
%TO.P,C4,2*%
%TO.N,Net-(U1-V-)*%
X136955600Y-70789800D03*
%TD*%
D16*
%TO.P,J3,3,Pin_3*%
%TO.N,Net-(J3-Pin_3)*%
X121634800Y-64113400D03*
%TO.P,J3,2,Pin_2*%
%TO.N,Net-(J3-Pin_2)*%
X116834800Y-73613400D03*
D17*
%TO.P,J3,1,Pin_1*%
%TO.N,GND*%
X113334800Y-69113400D03*
%TD*%
D15*
%TO.P,C5,1*%
%TO.N,VCC*%
X147475000Y-67081400D03*
%TO.P,C5,2*%
%TO.N,GND*%
X148435000Y-67081400D03*
%TD*%
D12*
%TO.P,J2,1,Pin_1*%
%TO.N,Net-(J1-Pin_1)*%
X148417200Y-61569600D03*
D13*
%TO.P,J2,2,Pin_2*%
%TO.N,GND*%
X145877200Y-61569600D03*
%TD*%
D18*
%TO.P,R1,1*%
%TO.N,/T1OUT*%
X132256800Y-72644000D03*
%TO.P,R1,2*%
%TO.N,Net-(J3-Pin_2)*%
X130606800Y-72644000D03*
%TD*%
%TO.P,R3,1*%
%TO.N,/T1OUT*%
X132256800Y-68656200D03*
%TO.P,R3,2*%
%TO.N,Net-(J3-Pin_3)*%
X130606800Y-68656200D03*
%TD*%
%TO.P,R4,1*%
%TO.N,/R1IN*%
X132256800Y-66624200D03*
%TO.P,R4,2*%
%TO.N,Net-(J3-Pin_3)*%
X130606800Y-66624200D03*
%TD*%
%TO.P,R2,2*%
%TO.N,Net-(J3-Pin_2)*%
X130606800Y-70612000D03*
%TO.P,R2,1*%
%TO.N,/R1IN*%
X132256800Y-70612000D03*
%TD*%
D19*
%TO.N,GND*%
X137285800Y-71653400D03*
X148463000Y-67665600D03*
X146431000Y-71631400D03*
X146431000Y-67731400D03*
X135431600Y-70789800D03*
X135253800Y-67691000D03*
%TD*%
D20*
%TO.N,GND*%
X139220900Y-71631400D02*
X137307800Y-71631400D01*
X137307800Y-71631400D02*
X137285800Y-71653400D01*
%TO.N,Net-(U1-C2-)*%
X139220900Y-69681400D02*
X137147000Y-69681400D01*
X137147000Y-69681400D02*
X136955600Y-69872800D01*
%TO.N,Net-(U1-V-)*%
X136955600Y-70789800D02*
X137414000Y-70331400D01*
X137414000Y-70331400D02*
X139220900Y-70331400D01*
%TO.N,/R1IN*%
X132256800Y-66624200D02*
X133342600Y-67710000D01*
X134271800Y-72880000D02*
X146221100Y-72880000D01*
X147167600Y-71933500D02*
X147167600Y-69894100D01*
X133342600Y-67710000D02*
X133342600Y-71950800D01*
X133342600Y-71950800D02*
X134271800Y-72880000D01*
X147167600Y-69894100D02*
X146304900Y-69031400D01*
X146221100Y-72880000D02*
X147167600Y-71933500D01*
X146304900Y-69031400D02*
X145160900Y-69031400D01*
%TO.N,GND*%
X139220900Y-71631400D02*
X138045600Y-71631400D01*
X148435000Y-67081400D02*
X148435000Y-67637600D01*
X148435000Y-67637600D02*
X148463000Y-67665600D01*
%TO.N,/T1OUT*%
X132256800Y-68656200D02*
X132936200Y-69335600D01*
X132936200Y-71964600D02*
X132256800Y-72644000D01*
X132936200Y-69335600D02*
X132936200Y-71964600D01*
%TO.N,/R1IN*%
X132256800Y-66624200D02*
X131577400Y-67303600D01*
X131577400Y-67303600D02*
X131577400Y-69932600D01*
X131577400Y-69932600D02*
X132256800Y-70612000D01*
%TO.N,/T1IN*%
X153974800Y-66675000D02*
X151993600Y-64693800D01*
X151993600Y-64693800D02*
X143383000Y-64693800D01*
X143383000Y-64693800D02*
X142748000Y-65328800D01*
X142748000Y-65328800D02*
X142748000Y-69712500D01*
X142748000Y-69712500D02*
X144016900Y-70981400D01*
X144016900Y-70981400D02*
X145160900Y-70981400D01*
%TO.N,/R1OUT*%
X153974800Y-69215000D02*
X149860000Y-65100200D01*
X149860000Y-65100200D02*
X143840200Y-65100200D01*
X143840200Y-65100200D02*
X143357600Y-65582800D01*
X143357600Y-65582800D02*
X143357600Y-69138800D01*
X143357600Y-69138800D02*
X143900200Y-69681400D01*
X143900200Y-69681400D02*
X145160900Y-69681400D01*
%TO.N,/~{SHDN}*%
X145160900Y-66431400D02*
X148688121Y-66431400D01*
X148688121Y-66431400D02*
X153974800Y-71718079D01*
X153974800Y-71718079D02*
X153974800Y-71755000D01*
%TO.N,/T1OUT*%
X146257800Y-68381400D02*
X147599400Y-69723000D01*
X145160900Y-68381400D02*
X146257800Y-68381400D01*
X147599400Y-69723000D02*
X147599400Y-72076436D01*
X147599400Y-72076436D02*
X146295236Y-73380600D01*
X146295236Y-73380600D02*
X132993400Y-73380600D01*
X132993400Y-73380600D02*
X132256800Y-72644000D01*
%TO.N,VCC*%
X153974800Y-74295000D02*
X153974800Y-76835000D01*
X153974800Y-74295000D02*
X147475000Y-67795200D01*
X147475000Y-67795200D02*
X147475000Y-67081400D01*
X147475000Y-67081400D02*
X145160900Y-67081400D01*
%TO.N,GND*%
X146431000Y-67731400D02*
X145160900Y-67731400D01*
X146431000Y-71631400D02*
X145160900Y-71631400D01*
X135995600Y-70789800D02*
X135431600Y-70789800D01*
%TO.N,Net-(U1-C2+)*%
X138483100Y-69031400D02*
X137074200Y-69031400D01*
X137074200Y-69031400D02*
X136955600Y-68912800D01*
%TO.N,Net-(U1-C1+)*%
X138483100Y-67081400D02*
X134695000Y-67081400D01*
X134695000Y-67081400D02*
X134466400Y-67310000D01*
%TO.N,Net-(U1-C1-)*%
X134466400Y-68270000D02*
X134476800Y-68280400D01*
X134476800Y-68280400D02*
X138382100Y-68280400D01*
X139119900Y-68280400D02*
X139220900Y-68381400D01*
%TO.N,/~{EN}*%
X153974800Y-64135000D02*
X141517300Y-64135000D01*
X141517300Y-64135000D02*
X139220900Y-66431400D01*
%TO.N,Net-(U1-V+)*%
X136955600Y-67691000D02*
X138442700Y-67691000D01*
X139180500Y-67691000D02*
X139220900Y-67731400D01*
%TO.N,GND*%
X135253800Y-67691000D02*
X135995600Y-67691000D01*
%TO.N,Net-(J3-Pin_3)*%
X130606800Y-66624200D02*
X128096000Y-64113400D01*
X128096000Y-64113400D02*
X121634800Y-64113400D01*
X130606800Y-68656200D02*
X130606800Y-66624200D01*
%TO.N,Net-(J3-Pin_2)*%
X130606800Y-70612000D02*
X130606800Y-72644000D01*
X116834800Y-73613400D02*
X129637400Y-73613400D01*
X129637400Y-73613400D02*
X130606800Y-72644000D01*
%TO.N,Net-(J1-Pin_1)*%
X153974800Y-61595000D02*
X148442600Y-61595000D01*
X148442600Y-61595000D02*
X148417200Y-61569600D01*
%TD*%
%TA.AperFunction,Conductor*%
%TO.N,GND*%
G36*
X136088139Y-68927585D02*
G01*
X136133894Y-68980389D01*
X136145100Y-69031900D01*
X136145100Y-69117492D01*
X136147956Y-69153791D01*
X136147957Y-69153797D01*
X136193104Y-69309191D01*
X136193106Y-69309197D01*
X136205220Y-69329680D01*
X136222401Y-69397404D01*
X136205220Y-69455920D01*
X136193106Y-69476402D01*
X136193104Y-69476408D01*
X136147957Y-69631802D01*
X136147956Y-69631808D01*
X136145100Y-69668108D01*
X136145100Y-70077492D01*
X136147956Y-70113791D01*
X136147957Y-70113797D01*
X136193104Y-70269190D01*
X136193104Y-70269191D01*
X136193105Y-70269193D01*
X136193106Y-70269195D01*
X136199724Y-70280386D01*
X136204263Y-70288060D01*
X136221444Y-70355784D01*
X136216606Y-70385775D01*
X136177957Y-70518802D01*
X136177956Y-70518808D01*
X136175100Y-70555108D01*
X136175100Y-71024492D01*
X136177956Y-71060791D01*
X136177957Y-71060797D01*
X136223104Y-71216190D01*
X136223105Y-71216193D01*
X136305481Y-71355484D01*
X136305487Y-71355492D01*
X136419907Y-71469912D01*
X136419911Y-71469915D01*
X136419913Y-71469917D01*
X136559205Y-71552294D01*
X136600187Y-71564200D01*
X136714602Y-71597442D01*
X136714605Y-71597442D01*
X136714607Y-71597443D01*
X136726707Y-71598395D01*
X136750908Y-71600300D01*
X136750910Y-71600300D01*
X137160292Y-71600300D01*
X137178441Y-71598871D01*
X137196593Y-71597443D01*
X137196595Y-71597442D01*
X137196597Y-71597442D01*
X137254212Y-71580703D01*
X137351995Y-71552294D01*
X137491287Y-71469917D01*
X137605717Y-71355487D01*
X137628204Y-71317462D01*
X137679271Y-71269780D01*
X137748013Y-71257274D01*
X137812602Y-71283919D01*
X137851118Y-71337249D01*
X137887103Y-71433730D01*
X137978669Y-71556046D01*
X137975963Y-71558071D01*
X138001611Y-71605042D01*
X137996627Y-71674734D01*
X137976905Y-71705435D01*
X137978668Y-71706755D01*
X137887106Y-71829064D01*
X137887102Y-71829071D01*
X137836808Y-71963917D01*
X137833960Y-71990413D01*
X137830401Y-72023523D01*
X137830400Y-72023535D01*
X137830400Y-72128500D01*
X137810715Y-72195539D01*
X137757911Y-72241294D01*
X137706400Y-72252500D01*
X134583081Y-72252500D01*
X134516042Y-72232815D01*
X134495400Y-72216181D01*
X134006418Y-71727199D01*
X133972933Y-71665876D01*
X133970099Y-71639518D01*
X133970099Y-70341663D01*
X133970099Y-69147333D01*
X133989784Y-69080298D01*
X134042588Y-69034543D01*
X134111746Y-69024599D01*
X134128693Y-69028260D01*
X134195407Y-69047643D01*
X134207507Y-69048595D01*
X134231708Y-69050500D01*
X134231710Y-69050500D01*
X134701092Y-69050500D01*
X134719241Y-69049071D01*
X134737393Y-69047643D01*
X134737395Y-69047642D01*
X134737397Y-69047642D01*
X134804105Y-69028261D01*
X134892795Y-69002494D01*
X134986836Y-68946877D01*
X135023547Y-68925168D01*
X135086668Y-68907900D01*
X136021100Y-68907900D01*
X136088139Y-68927585D01*
G37*
%TD.AperFunction*%
%TA.AperFunction,Conductor*%
G36*
X148460703Y-67091847D02*
G01*
X148467181Y-67097879D01*
X152641766Y-71272464D01*
X152675251Y-71333787D01*
X152673860Y-71392237D01*
X152639739Y-71519583D01*
X152639736Y-71519596D01*
X152618669Y-71760394D01*
X152616886Y-71760238D01*
X152599456Y-71819599D01*
X152546652Y-71865354D01*
X152477494Y-71875298D01*
X152413938Y-71846273D01*
X152407460Y-71840241D01*
X148226274Y-67659055D01*
X148192789Y-67597732D01*
X148197773Y-67528040D01*
X148207223Y-67508253D01*
X148207494Y-67507795D01*
X148252643Y-67352393D01*
X148255500Y-67316090D01*
X148255500Y-67185559D01*
X148275185Y-67118521D01*
X148327989Y-67072766D01*
X148397147Y-67062822D01*
X148460703Y-67091847D01*
G37*
%TD.AperFunction*%
%TA.AperFunction,Conductor*%
G36*
X157930539Y-58236985D02*
G01*
X157976294Y-58289789D01*
X157987500Y-58341300D01*
X157987500Y-79834700D01*
X157967815Y-79901739D01*
X157915011Y-79947494D01*
X157863500Y-79958700D01*
X111833700Y-79958700D01*
X111766661Y-79939015D01*
X111720906Y-79886211D01*
X111709700Y-79834700D01*
X111709700Y-73669906D01*
X114822496Y-73669906D01*
X114822497Y-73669910D01*
X114852809Y-73893681D01*
X114852810Y-73893684D01*
X114922589Y-74108444D01*
X115029594Y-74307291D01*
X115029596Y-74307294D01*
X115170386Y-74483839D01*
X115340439Y-74632411D01*
X115340440Y-74632412D01*
X115340443Y-74632414D01*
X115534293Y-74748234D01*
X115745707Y-74827580D01*
X115745708Y-74827580D01*
X115967890Y-74867900D01*
X115967893Y-74867900D01*
X117645137Y-74867900D01*
X117645143Y-74867900D01*
X117803243Y-74853670D01*
X117813706Y-74852729D01*
X118031370Y-74792658D01*
X118031375Y-74792655D01*
X118031382Y-74792654D01*
X118234833Y-74694677D01*
X118417521Y-74561947D01*
X118573572Y-74398730D01*
X118640994Y-74296589D01*
X118694355Y-74251484D01*
X118744482Y-74240900D01*
X129554433Y-74240900D01*
X129570081Y-74242627D01*
X129570108Y-74242346D01*
X129577875Y-74243080D01*
X129577876Y-74243079D01*
X129577877Y-74243080D01*
X129647260Y-74240900D01*
X129676876Y-74240900D01*
X129683778Y-74240027D01*
X129689590Y-74239569D01*
X129736343Y-74238101D01*
X129755672Y-74232484D01*
X129774728Y-74228537D01*
X129794693Y-74226016D01*
X129838170Y-74208801D01*
X129843676Y-74206916D01*
X129888591Y-74193868D01*
X129905915Y-74183621D01*
X129923383Y-74175063D01*
X129942103Y-74167653D01*
X129979942Y-74140159D01*
X129984791Y-74136974D01*
X130025056Y-74113163D01*
X130039297Y-74098920D01*
X130054078Y-74086297D01*
X130070367Y-74074463D01*
X130070369Y-74074459D01*
X130070371Y-74074459D01*
X130082676Y-74059583D01*
X130100176Y-74038428D01*
X130104089Y-74034128D01*
X130482399Y-73655819D01*
X130543723Y-73622334D01*
X130570081Y-73619500D01*
X130863413Y-73619500D01*
X130863416Y-73619500D01*
X130933996Y-73613086D01*
X131096406Y-73562478D01*
X131241985Y-73474472D01*
X131292860Y-73423597D01*
X131344119Y-73372339D01*
X131405442Y-73338854D01*
X131475134Y-73343838D01*
X131519481Y-73372339D01*
X131621611Y-73474469D01*
X131621613Y-73474470D01*
X131621615Y-73474472D01*
X131767194Y-73562478D01*
X131929604Y-73613086D01*
X132000184Y-73619500D01*
X132293519Y-73619500D01*
X132360558Y-73639185D01*
X132381200Y-73655819D01*
X132491024Y-73765643D01*
X132500871Y-73777933D01*
X132501089Y-73777754D01*
X132506057Y-73783760D01*
X132556657Y-73831277D01*
X132577601Y-73852220D01*
X132577607Y-73852226D01*
X132583097Y-73856483D01*
X132587548Y-73860284D01*
X132621635Y-73892295D01*
X132621637Y-73892296D01*
X132639267Y-73901987D01*
X132655535Y-73912672D01*
X132671438Y-73925008D01*
X132714345Y-73943575D01*
X132719581Y-73946139D01*
X132744489Y-73959833D01*
X132760558Y-73968668D01*
X132760560Y-73968669D01*
X132760566Y-73968672D01*
X132779640Y-73973569D01*
X132780060Y-73973677D01*
X132798464Y-73979977D01*
X132816942Y-73987974D01*
X132860438Y-73994862D01*
X132863124Y-73995288D01*
X132868829Y-73996469D01*
X132914128Y-74008100D01*
X132934258Y-74008100D01*
X132953657Y-74009627D01*
X132973533Y-74012775D01*
X133016179Y-74008743D01*
X133020079Y-74008375D01*
X133025917Y-74008100D01*
X146212269Y-74008100D01*
X146227917Y-74009827D01*
X146227944Y-74009546D01*
X146235711Y-74010280D01*
X146235712Y-74010279D01*
X146235713Y-74010280D01*
X146305096Y-74008100D01*
X146334712Y-74008100D01*
X146341614Y-74007227D01*
X146347426Y-74006769D01*
X146394179Y-74005301D01*
X146413508Y-73999684D01*
X146432564Y-73995737D01*
X146452529Y-73993216D01*
X146496006Y-73976001D01*
X146501512Y-73974116D01*
X146546427Y-73961068D01*
X146563751Y-73950821D01*
X146581219Y-73942263D01*
X146599939Y-73934853D01*
X146637778Y-73907359D01*
X146642627Y-73904174D01*
X146682892Y-73880363D01*
X146697133Y-73866120D01*
X146711914Y-73853497D01*
X146728203Y-73841663D01*
X146728205Y-73841659D01*
X146728207Y-73841659D01*
X146740081Y-73827303D01*
X146758012Y-73805628D01*
X146761925Y-73801328D01*
X147984443Y-72578810D01*
X147996725Y-72568973D01*
X147996544Y-72568754D01*
X148002552Y-72563782D01*
X148002562Y-72563776D01*
X148050077Y-72513177D01*
X148071023Y-72492232D01*
X148075292Y-72486726D01*
X148079076Y-72482295D01*
X148111093Y-72448203D01*
X148120789Y-72430564D01*
X148131473Y-72414297D01*
X148143808Y-72398398D01*
X148162378Y-72355482D01*
X148164934Y-72350263D01*
X148187472Y-72309270D01*
X148192478Y-72289770D01*
X148198782Y-72271360D01*
X148206770Y-72252901D01*
X148206773Y-72252895D01*
X148212194Y-72218664D01*
X148214087Y-72206716D01*
X148215268Y-72201006D01*
X148226900Y-72155708D01*
X148226900Y-72135571D01*
X148228427Y-72116171D01*
X148231574Y-72096303D01*
X148227175Y-72049765D01*
X148226900Y-72043927D01*
X148226900Y-69805964D01*
X148228628Y-69790313D01*
X148228346Y-69790287D01*
X148229080Y-69782524D01*
X148227697Y-69738511D01*
X148245267Y-69670887D01*
X148296607Y-69623496D01*
X148365420Y-69611385D01*
X148429855Y-69638400D01*
X148439317Y-69646936D01*
X152633964Y-73841583D01*
X152667449Y-73902906D01*
X152666058Y-73961356D01*
X152639739Y-74059583D01*
X152639736Y-74059596D01*
X152619141Y-74294999D01*
X152619141Y-74295000D01*
X152639736Y-74530403D01*
X152639738Y-74530413D01*
X152700894Y-74758655D01*
X152700896Y-74758659D01*
X152700897Y-74758663D01*
X152733034Y-74827580D01*
X152800765Y-74972830D01*
X152800767Y-74972834D01*
X152936301Y-75166395D01*
X152936306Y-75166402D01*
X153103397Y-75333493D01*
X153103403Y-75333498D01*
X153288958Y-75463425D01*
X153332583Y-75518002D01*
X153339777Y-75587500D01*
X153308254Y-75649855D01*
X153288958Y-75666575D01*
X153103397Y-75796505D01*
X152936305Y-75963597D01*
X152800765Y-76157169D01*
X152800764Y-76157171D01*
X152700898Y-76371335D01*
X152700894Y-76371344D01*
X152639738Y-76599586D01*
X152639736Y-76599596D01*
X152619141Y-76834999D01*
X152619141Y-76835000D01*
X152639736Y-77070403D01*
X152639738Y-77070413D01*
X152700894Y-77298655D01*
X152700896Y-77298659D01*
X152700897Y-77298663D01*
X152800764Y-77512829D01*
X152800765Y-77512830D01*
X152800767Y-77512834D01*
X152909081Y-77667521D01*
X152936305Y-77706401D01*
X153103399Y-77873495D01*
X153200184Y-77941264D01*
X153296965Y-78009032D01*
X153296967Y-78009033D01*
X153296970Y-78009035D01*
X153511137Y-78108903D01*
X153739392Y-78170063D01*
X153927718Y-78186539D01*
X153974799Y-78190659D01*
X153974800Y-78190659D01*
X153974801Y-78190659D01*
X154014034Y-78187226D01*
X154210208Y-78170063D01*
X154438463Y-78108903D01*
X154652630Y-78009035D01*
X154846201Y-77873495D01*
X155013295Y-77706401D01*
X155148835Y-77512830D01*
X155248703Y-77298663D01*
X155309863Y-77070408D01*
X155330459Y-76835000D01*
X155309863Y-76599592D01*
X155248703Y-76371337D01*
X155148835Y-76157171D01*
X155013295Y-75963599D01*
X155013294Y-75963597D01*
X154846202Y-75796506D01*
X154846196Y-75796501D01*
X154660642Y-75666575D01*
X154617017Y-75611998D01*
X154609823Y-75542500D01*
X154641346Y-75480145D01*
X154660642Y-75463425D01*
X154682826Y-75447891D01*
X154846201Y-75333495D01*
X155013295Y-75166401D01*
X155148835Y-74972830D01*
X155248703Y-74758663D01*
X155309863Y-74530408D01*
X155330459Y-74295000D01*
X155309863Y-74059592D01*
X155248703Y-73831337D01*
X155148835Y-73617171D01*
X155048915Y-73474469D01*
X155013294Y-73423597D01*
X154846202Y-73256506D01*
X154846196Y-73256501D01*
X154660642Y-73126575D01*
X154617017Y-73071998D01*
X154609823Y-73002500D01*
X154641346Y-72940145D01*
X154660642Y-72923425D01*
X154796821Y-72828071D01*
X154846201Y-72793495D01*
X155013295Y-72626401D01*
X155148835Y-72432830D01*
X155248703Y-72218663D01*
X155309863Y-71990408D01*
X155330459Y-71755000D01*
X155309863Y-71519592D01*
X155255704Y-71317464D01*
X155248705Y-71291344D01*
X155248704Y-71291343D01*
X155248703Y-71291337D01*
X155148835Y-71077171D01*
X155066022Y-70958900D01*
X155013294Y-70883597D01*
X154846202Y-70716506D01*
X154846196Y-70716501D01*
X154660642Y-70586575D01*
X154617017Y-70531998D01*
X154609823Y-70462500D01*
X154641346Y-70400145D01*
X154660642Y-70383425D01*
X154796837Y-70288060D01*
X154846201Y-70253495D01*
X155013295Y-70086401D01*
X155148835Y-69892830D01*
X155248703Y-69678663D01*
X155309863Y-69450408D01*
X155330459Y-69215000D01*
X155309863Y-68979592D01*
X155248703Y-68751337D01*
X155148835Y-68537171D01*
X155013295Y-68343599D01*
X155013294Y-68343597D01*
X154846202Y-68176506D01*
X154846196Y-68176501D01*
X154660642Y-68046575D01*
X154617017Y-67991998D01*
X154609823Y-67922500D01*
X154641346Y-67860145D01*
X154660642Y-67843425D01*
X154779579Y-67760144D01*
X154846201Y-67713495D01*
X155013295Y-67546401D01*
X155148835Y-67352830D01*
X155248703Y-67138663D01*
X155309863Y-66910408D01*
X155330459Y-66675000D01*
X155330336Y-66673599D01*
X155316967Y-66520786D01*
X155309863Y-66439592D01*
X155248703Y-66211337D01*
X155148835Y-65997171D01*
X155142679Y-65988378D01*
X155013294Y-65803597D01*
X154846202Y-65636506D01*
X154846196Y-65636501D01*
X154660642Y-65506575D01*
X154617017Y-65451998D01*
X154609823Y-65382500D01*
X154641346Y-65320145D01*
X154660642Y-65303425D01*
X154708866Y-65269658D01*
X154846201Y-65173495D01*
X155013295Y-65006401D01*
X155148835Y-64812830D01*
X155248703Y-64598663D01*
X155309863Y-64370408D01*
X155330459Y-64135000D01*
X155309863Y-63899592D01*
X155260737Y-63716249D01*
X155248705Y-63671344D01*
X155248704Y-63671343D01*
X155248703Y-63671337D01*
X155148835Y-63457171D01*
X155125718Y-63424157D01*
X155013296Y-63263600D01*
X154992654Y-63242958D01*
X154891367Y-63141671D01*
X154857884Y-63080351D01*
X154862868Y-63010659D01*
X154904739Y-62954725D01*
X154935715Y-62937810D01*
X155067131Y-62888796D01*
X155182346Y-62802546D01*
X155268596Y-62687331D01*
X155318891Y-62552483D01*
X155325300Y-62492873D01*
X155325299Y-60697128D01*
X155318891Y-60637517D01*
X155309417Y-60612117D01*
X155268597Y-60502671D01*
X155268593Y-60502664D01*
X155182347Y-60387455D01*
X155182344Y-60387452D01*
X155067135Y-60301206D01*
X155067128Y-60301202D01*
X154932282Y-60250908D01*
X154932283Y-60250908D01*
X154872683Y-60244501D01*
X154872681Y-60244500D01*
X154872673Y-60244500D01*
X154872664Y-60244500D01*
X153076929Y-60244500D01*
X153076923Y-60244501D01*
X153017316Y-60250908D01*
X152882471Y-60301202D01*
X152882464Y-60301206D01*
X152767255Y-60387452D01*
X152767252Y-60387455D01*
X152681006Y-60502664D01*
X152681002Y-60502671D01*
X152630708Y-60637517D01*
X152627030Y-60671735D01*
X152624301Y-60697123D01*
X152624300Y-60697135D01*
X152624300Y-60843500D01*
X152604615Y-60910539D01*
X152551811Y-60956294D01*
X152500300Y-60967500D01*
X149891699Y-60967500D01*
X149824660Y-60947815D01*
X149778905Y-60895011D01*
X149767699Y-60843500D01*
X149767699Y-60671729D01*
X149767698Y-60671723D01*
X149767697Y-60671716D01*
X149761291Y-60612117D01*
X149720470Y-60502671D01*
X149710997Y-60477271D01*
X149710993Y-60477264D01*
X149624747Y-60362055D01*
X149624744Y-60362052D01*
X149509535Y-60275806D01*
X149509528Y-60275802D01*
X149374682Y-60225508D01*
X149374683Y-60225508D01*
X149315083Y-60219101D01*
X149315081Y-60219100D01*
X149315073Y-60219100D01*
X149315064Y-60219100D01*
X147519329Y-60219100D01*
X147519323Y-60219101D01*
X147459716Y-60225508D01*
X147324871Y-60275802D01*
X147324864Y-60275806D01*
X147209655Y-60362052D01*
X147209652Y-60362055D01*
X147123406Y-60477264D01*
X147123402Y-60477271D01*
X147073108Y-60612117D01*
X147066701Y-60671716D01*
X147066701Y-60671723D01*
X147066700Y-60671735D01*
X147066700Y-62467470D01*
X147066701Y-62467476D01*
X147073108Y-62527083D01*
X147123402Y-62661928D01*
X147123406Y-62661935D01*
X147209652Y-62777144D01*
X147209655Y-62777147D01*
X147324864Y-62863393D01*
X147324871Y-62863397D01*
X147459717Y-62913691D01*
X147459716Y-62913691D01*
X147466644Y-62914435D01*
X147519327Y-62920100D01*
X149315072Y-62920099D01*
X149374683Y-62913691D01*
X149509531Y-62863396D01*
X149624746Y-62777146D01*
X149710996Y-62661931D01*
X149761291Y-62527083D01*
X149767700Y-62467473D01*
X149767700Y-62346500D01*
X149787385Y-62279461D01*
X149840189Y-62233706D01*
X149891700Y-62222500D01*
X152500301Y-62222500D01*
X152567340Y-62242185D01*
X152613095Y-62294989D01*
X152624301Y-62346500D01*
X152624301Y-62492876D01*
X152630708Y-62552483D01*
X152681002Y-62687328D01*
X152681006Y-62687335D01*
X152767252Y-62802544D01*
X152767255Y-62802547D01*
X152882464Y-62888793D01*
X152882471Y-62888797D01*
X153013881Y-62937810D01*
X153069815Y-62979681D01*
X153094232Y-63045145D01*
X153079380Y-63113418D01*
X153058230Y-63141673D01*
X152936303Y-63263600D01*
X152802549Y-63454623D01*
X152747972Y-63498248D01*
X152700974Y-63507500D01*
X141600267Y-63507500D01*
X141584618Y-63505772D01*
X141584592Y-63506054D01*
X141576824Y-63505319D01*
X141507440Y-63507500D01*
X141477822Y-63507500D01*
X141470918Y-63508371D01*
X141465100Y-63508829D01*
X141418357Y-63510298D01*
X141399013Y-63515918D01*
X141379969Y-63519862D01*
X141377009Y-63520235D01*
X141360007Y-63522384D01*
X141360003Y-63522385D01*
X141360000Y-63522386D01*
X141316535Y-63539594D01*
X141311010Y-63541485D01*
X141266109Y-63554531D01*
X141266106Y-63554533D01*
X141248780Y-63564779D01*
X141231310Y-63573337D01*
X141212598Y-63580745D01*
X141174763Y-63608233D01*
X141169880Y-63611440D01*
X141129646Y-63635234D01*
X141115406Y-63649474D01*
X141100620Y-63662102D01*
X141084333Y-63673936D01*
X141084332Y-63673936D01*
X141054527Y-63709963D01*
X141050595Y-63714285D01*
X139080298Y-65684581D01*
X139018975Y-65718066D01*
X138992617Y-65720900D01*
X138283029Y-65720900D01*
X138283023Y-65720901D01*
X138223416Y-65727308D01*
X138088571Y-65777602D01*
X138088564Y-65777606D01*
X137973355Y-65863852D01*
X137973352Y-65863855D01*
X137887106Y-65979064D01*
X137887102Y-65979071D01*
X137836810Y-66113913D01*
X137836809Y-66113917D01*
X137830400Y-66173527D01*
X137830400Y-66292586D01*
X137830401Y-66329899D01*
X137810717Y-66396939D01*
X137757913Y-66442694D01*
X137706401Y-66453900D01*
X134777967Y-66453900D01*
X134762319Y-66452172D01*
X134762293Y-66452454D01*
X134754525Y-66451719D01*
X134685154Y-66453900D01*
X134655521Y-66453900D01*
X134648607Y-66454773D01*
X134642790Y-66455230D01*
X134596058Y-66456699D01*
X134596054Y-66456700D01*
X134576722Y-66462316D01*
X134557682Y-66466259D01*
X134537712Y-66468782D01*
X134537708Y-66468783D01*
X134494237Y-66485994D01*
X134488710Y-66487886D01*
X134443812Y-66500930D01*
X134443810Y-66500931D01*
X134426480Y-66511180D01*
X134409029Y-66519730D01*
X134406361Y-66520786D01*
X134360701Y-66529500D01*
X134231708Y-66529500D01*
X134195408Y-66532356D01*
X134195402Y-66532357D01*
X134040009Y-66577504D01*
X134040006Y-66577505D01*
X133900715Y-66659881D01*
X133900707Y-66659887D01*
X133786287Y-66774307D01*
X133786281Y-66774315D01*
X133703905Y-66913606D01*
X133703905Y-66913607D01*
X133701554Y-66921698D01*
X133663944Y-66980582D01*
X133600470Y-67009785D01*
X133531284Y-67000035D01*
X133494798Y-66974778D01*
X133193619Y-66673599D01*
X133160134Y-66612276D01*
X133157300Y-66585918D01*
X133157300Y-66292586D01*
X133157300Y-66292584D01*
X133150886Y-66222004D01*
X133100278Y-66059594D01*
X133012272Y-65914015D01*
X133012270Y-65914013D01*
X133012269Y-65914011D01*
X132891988Y-65793730D01*
X132842840Y-65764019D01*
X132746406Y-65705722D01*
X132583996Y-65655114D01*
X132583994Y-65655113D01*
X132583992Y-65655113D01*
X132534578Y-65650623D01*
X132513416Y-65648700D01*
X132000184Y-65648700D01*
X131980945Y-65650448D01*
X131929607Y-65655113D01*
X131767193Y-65705722D01*
X131621613Y-65793729D01*
X131519480Y-65895862D01*
X131458157Y-65929346D01*
X131388465Y-65924362D01*
X131344119Y-65895862D01*
X131241985Y-65793728D01*
X131096406Y-65705722D01*
X130933996Y-65655114D01*
X130933994Y-65655113D01*
X130933992Y-65655113D01*
X130884578Y-65650623D01*
X130863416Y-65648700D01*
X130863413Y-65648700D01*
X130570081Y-65648700D01*
X130503042Y-65629015D01*
X130482400Y-65612381D01*
X128598376Y-63728357D01*
X128588531Y-63716068D01*
X128588313Y-63716249D01*
X128583340Y-63710238D01*
X128583047Y-63709963D01*
X128532741Y-63662722D01*
X128519493Y-63649474D01*
X128511797Y-63641777D01*
X128506296Y-63637511D01*
X128501848Y-63633712D01*
X128467768Y-63601708D01*
X128467763Y-63601704D01*
X128450122Y-63592006D01*
X128433857Y-63581322D01*
X128433113Y-63580745D01*
X128417962Y-63568992D01*
X128402804Y-63562432D01*
X128375054Y-63550423D01*
X128369807Y-63547853D01*
X128328837Y-63525329D01*
X128328828Y-63525326D01*
X128309334Y-63520320D01*
X128290933Y-63514020D01*
X128272459Y-63506026D01*
X128272452Y-63506024D01*
X128226287Y-63498713D01*
X128220563Y-63497528D01*
X128175279Y-63485900D01*
X128175272Y-63485900D01*
X128155142Y-63485900D01*
X128135743Y-63484373D01*
X128115868Y-63481225D01*
X128115867Y-63481225D01*
X128069321Y-63485625D01*
X128063483Y-63485900D01*
X123549819Y-63485900D01*
X123482780Y-63466215D01*
X123443563Y-63423834D01*
X123443074Y-63424157D01*
X123441112Y-63421185D01*
X123440626Y-63420660D01*
X123440010Y-63419516D01*
X123440003Y-63419505D01*
X123299213Y-63242960D01*
X123129160Y-63094388D01*
X123024946Y-63032123D01*
X122935307Y-62978566D01*
X122816954Y-62934147D01*
X122723891Y-62899219D01*
X122501710Y-62858900D01*
X122501707Y-62858900D01*
X120824457Y-62858900D01*
X120793071Y-62861724D01*
X120655893Y-62874070D01*
X120438229Y-62934141D01*
X120438214Y-62934147D01*
X120234773Y-63032119D01*
X120234765Y-63032123D01*
X120052084Y-63164848D01*
X120052082Y-63164849D01*
X119896026Y-63328071D01*
X119771628Y-63516525D01*
X119735220Y-63601707D01*
X119686341Y-63716068D01*
X119682877Y-63724172D01*
X119682875Y-63724178D01*
X119632628Y-63944322D01*
X119632628Y-63944326D01*
X119622496Y-64169906D01*
X119622497Y-64169910D01*
X119652809Y-64393681D01*
X119652810Y-64393684D01*
X119722589Y-64608444D01*
X119829594Y-64807291D01*
X119829596Y-64807294D01*
X119970386Y-64983839D01*
X119970388Y-64983840D01*
X119970389Y-64983842D01*
X119996710Y-65006838D01*
X120140439Y-65132411D01*
X120140440Y-65132412D01*
X120140443Y-65132414D01*
X120334293Y-65248234D01*
X120525898Y-65320145D01*
X120545708Y-65327580D01*
X120767890Y-65367900D01*
X120767893Y-65367900D01*
X122445137Y-65367900D01*
X122445143Y-65367900D01*
X122603243Y-65353670D01*
X122613706Y-65352729D01*
X122831370Y-65292658D01*
X122831375Y-65292655D01*
X122831382Y-65292654D01*
X123034833Y-65194677D01*
X123217521Y-65061947D01*
X123373572Y-64898730D01*
X123440994Y-64796589D01*
X123494355Y-64751484D01*
X123544482Y-64740900D01*
X127784719Y-64740900D01*
X127851758Y-64760585D01*
X127872399Y-64777219D01*
X129669982Y-66574801D01*
X129703466Y-66636122D01*
X129706300Y-66662480D01*
X129706300Y-66955813D01*
X129712713Y-67026392D01*
X129712713Y-67026394D01*
X129712714Y-67026396D01*
X129763322Y-67188806D01*
X129840269Y-67316092D01*
X129851330Y-67334388D01*
X129942981Y-67426039D01*
X129976466Y-67487362D01*
X129979300Y-67513720D01*
X129979300Y-67766680D01*
X129959615Y-67833719D01*
X129942981Y-67854361D01*
X129851331Y-67946010D01*
X129851330Y-67946011D01*
X129763322Y-68091593D01*
X129712713Y-68254007D01*
X129706300Y-68324586D01*
X129706300Y-68987813D01*
X129712713Y-69058392D01*
X129712713Y-69058394D01*
X129712714Y-69058396D01*
X129763322Y-69220806D01*
X129816756Y-69309197D01*
X129851330Y-69366388D01*
X129971611Y-69486669D01*
X129971613Y-69486670D01*
X129971615Y-69486672D01*
X130039952Y-69527983D01*
X130087140Y-69579511D01*
X130098978Y-69648371D01*
X130071709Y-69712699D01*
X130039953Y-69740215D01*
X130020500Y-69751976D01*
X129971611Y-69781530D01*
X129851330Y-69901811D01*
X129763322Y-70047393D01*
X129712713Y-70209807D01*
X129706300Y-70280386D01*
X129706300Y-70943613D01*
X129712713Y-71014192D01*
X129712713Y-71014194D01*
X129712714Y-71014196D01*
X129763322Y-71176606D01*
X129845072Y-71311837D01*
X129851330Y-71322188D01*
X129942981Y-71413839D01*
X129976466Y-71475162D01*
X129979300Y-71501520D01*
X129979300Y-71754480D01*
X129959615Y-71821519D01*
X129942981Y-71842161D01*
X129851331Y-71933810D01*
X129851330Y-71933811D01*
X129763322Y-72079393D01*
X129712713Y-72241807D01*
X129706299Y-72312387D01*
X129706299Y-72605718D01*
X129686614Y-72672758D01*
X129669980Y-72693399D01*
X129413798Y-72949582D01*
X129352478Y-72983066D01*
X129326119Y-72985900D01*
X118749819Y-72985900D01*
X118682780Y-72966215D01*
X118643563Y-72923834D01*
X118643074Y-72924157D01*
X118641112Y-72921185D01*
X118640626Y-72920660D01*
X118640010Y-72919516D01*
X118640003Y-72919505D01*
X118499213Y-72742960D01*
X118329160Y-72594388D01*
X118329157Y-72594386D01*
X118135307Y-72478566D01*
X118016954Y-72434147D01*
X117923891Y-72399219D01*
X117701710Y-72358900D01*
X117701707Y-72358900D01*
X116024457Y-72358900D01*
X115993071Y-72361724D01*
X115855893Y-72374070D01*
X115638229Y-72434141D01*
X115638214Y-72434147D01*
X115434773Y-72532119D01*
X115434765Y-72532123D01*
X115252084Y-72664848D01*
X115252082Y-72664849D01*
X115096026Y-72828071D01*
X114971628Y-73016525D01*
X114882877Y-73224172D01*
X114882875Y-73224178D01*
X114832628Y-73444322D01*
X114832628Y-73444326D01*
X114822496Y-73669906D01*
X111709700Y-73669906D01*
X111709700Y-58341300D01*
X111729385Y-58274261D01*
X111782189Y-58228506D01*
X111833700Y-58217300D01*
X157863500Y-58217300D01*
X157930539Y-58236985D01*
G37*
%TD.AperFunction*%
%TD*%
M02*
