%TF.GenerationSoftware,KiCad,Pcbnew,7.0.7*%
%TF.CreationDate,2023-09-29T20:54:03-04:00*%
%TF.ProjectId,Little_Master_Board,4c697474-6c65-45f4-9d61-737465725f42,B*%
%TF.SameCoordinates,Original*%
%TF.FileFunction,Legend,Top*%
%TF.FilePolarity,Positive*%
%FSLAX46Y46*%
G04 Gerber Fmt 4.6, Leading zero omitted, Abs format (unit mm)*
G04 Created by KiCad (PCBNEW 7.0.7) date 2023-09-29 20:54:03*
%MOMM*%
%LPD*%
G01*
G04 APERTURE LIST*
%ADD10C,0.150000*%
%ADD11C,0.120000*%
%ADD12C,0.100000*%
%ADD13C,0.127000*%
%ADD14C,0.340000*%
G04 APERTURE END LIST*
D10*
X150149265Y-73908045D02*
X150415932Y-74708045D01*
X150415932Y-74708045D02*
X150682598Y-73908045D01*
X151406408Y-74631854D02*
X151368312Y-74669950D01*
X151368312Y-74669950D02*
X151254027Y-74708045D01*
X151254027Y-74708045D02*
X151177836Y-74708045D01*
X151177836Y-74708045D02*
X151063550Y-74669950D01*
X151063550Y-74669950D02*
X150987360Y-74593759D01*
X150987360Y-74593759D02*
X150949265Y-74517569D01*
X150949265Y-74517569D02*
X150911169Y-74365188D01*
X150911169Y-74365188D02*
X150911169Y-74250902D01*
X150911169Y-74250902D02*
X150949265Y-74098521D01*
X150949265Y-74098521D02*
X150987360Y-74022330D01*
X150987360Y-74022330D02*
X151063550Y-73946140D01*
X151063550Y-73946140D02*
X151177836Y-73908045D01*
X151177836Y-73908045D02*
X151254027Y-73908045D01*
X151254027Y-73908045D02*
X151368312Y-73946140D01*
X151368312Y-73946140D02*
X151406408Y-73984235D01*
X152206408Y-74631854D02*
X152168312Y-74669950D01*
X152168312Y-74669950D02*
X152054027Y-74708045D01*
X152054027Y-74708045D02*
X151977836Y-74708045D01*
X151977836Y-74708045D02*
X151863550Y-74669950D01*
X151863550Y-74669950D02*
X151787360Y-74593759D01*
X151787360Y-74593759D02*
X151749265Y-74517569D01*
X151749265Y-74517569D02*
X151711169Y-74365188D01*
X151711169Y-74365188D02*
X151711169Y-74250902D01*
X151711169Y-74250902D02*
X151749265Y-74098521D01*
X151749265Y-74098521D02*
X151787360Y-74022330D01*
X151787360Y-74022330D02*
X151863550Y-73946140D01*
X151863550Y-73946140D02*
X151977836Y-73908045D01*
X151977836Y-73908045D02*
X152054027Y-73908045D01*
X152054027Y-73908045D02*
X152168312Y-73946140D01*
X152168312Y-73946140D02*
X152206408Y-73984235D01*
X120845627Y-62556095D02*
X120578960Y-62175142D01*
X120388484Y-62556095D02*
X120388484Y-61756095D01*
X120388484Y-61756095D02*
X120693246Y-61756095D01*
X120693246Y-61756095D02*
X120769436Y-61794190D01*
X120769436Y-61794190D02*
X120807531Y-61832285D01*
X120807531Y-61832285D02*
X120845627Y-61908476D01*
X120845627Y-61908476D02*
X120845627Y-62022761D01*
X120845627Y-62022761D02*
X120807531Y-62098952D01*
X120807531Y-62098952D02*
X120769436Y-62137047D01*
X120769436Y-62137047D02*
X120693246Y-62175142D01*
X120693246Y-62175142D02*
X120388484Y-62175142D01*
X121607531Y-62556095D02*
X121150388Y-62556095D01*
X121378960Y-62556095D02*
X121378960Y-61756095D01*
X121378960Y-61756095D02*
X121302769Y-61870380D01*
X121302769Y-61870380D02*
X121226579Y-61946571D01*
X121226579Y-61946571D02*
X121150388Y-61984666D01*
X121950389Y-62556095D02*
X121950389Y-61756095D01*
X122331341Y-62556095D02*
X122331341Y-61756095D01*
X122331341Y-61756095D02*
X122788484Y-62556095D01*
X122788484Y-62556095D02*
X122788484Y-61756095D01*
X150022017Y-66277295D02*
X150479160Y-66277295D01*
X150250588Y-67077295D02*
X150250588Y-66277295D01*
X151164874Y-67077295D02*
X150707731Y-67077295D01*
X150936303Y-67077295D02*
X150936303Y-66277295D01*
X150936303Y-66277295D02*
X150860112Y-66391580D01*
X150860112Y-66391580D02*
X150783922Y-66467771D01*
X150783922Y-66467771D02*
X150707731Y-66505866D01*
X151507732Y-67077295D02*
X151507732Y-66277295D01*
X151888684Y-67077295D02*
X151888684Y-66277295D01*
X151888684Y-66277295D02*
X152345827Y-67077295D01*
X152345827Y-67077295D02*
X152345827Y-66277295D01*
X127781932Y-75563095D02*
X128239075Y-75563095D01*
X128010503Y-76363095D02*
X128010503Y-75563095D01*
X128505742Y-76363095D02*
X128505742Y-75563095D01*
X128848599Y-76363095D02*
X128848599Y-75944047D01*
X128848599Y-75944047D02*
X128810504Y-75867857D01*
X128810504Y-75867857D02*
X128734313Y-75829761D01*
X128734313Y-75829761D02*
X128620027Y-75829761D01*
X128620027Y-75829761D02*
X128543837Y-75867857D01*
X128543837Y-75867857D02*
X128505742Y-75905952D01*
X129534314Y-76325000D02*
X129458123Y-76363095D01*
X129458123Y-76363095D02*
X129305742Y-76363095D01*
X129305742Y-76363095D02*
X129229552Y-76325000D01*
X129229552Y-76325000D02*
X129191456Y-76248809D01*
X129191456Y-76248809D02*
X129191456Y-75944047D01*
X129191456Y-75944047D02*
X129229552Y-75867857D01*
X129229552Y-75867857D02*
X129305742Y-75829761D01*
X129305742Y-75829761D02*
X129458123Y-75829761D01*
X129458123Y-75829761D02*
X129534314Y-75867857D01*
X129534314Y-75867857D02*
X129572409Y-75944047D01*
X129572409Y-75944047D02*
X129572409Y-76020238D01*
X129572409Y-76020238D02*
X129191456Y-76096428D01*
X130905742Y-76363095D02*
X130524790Y-76363095D01*
X130524790Y-76363095D02*
X130524790Y-75563095D01*
X131172409Y-76363095D02*
X131172409Y-75829761D01*
X131172409Y-75563095D02*
X131134313Y-75601190D01*
X131134313Y-75601190D02*
X131172409Y-75639285D01*
X131172409Y-75639285D02*
X131210504Y-75601190D01*
X131210504Y-75601190D02*
X131172409Y-75563095D01*
X131172409Y-75563095D02*
X131172409Y-75639285D01*
X131439075Y-75829761D02*
X131743837Y-75829761D01*
X131553361Y-75563095D02*
X131553361Y-76248809D01*
X131553361Y-76248809D02*
X131591456Y-76325000D01*
X131591456Y-76325000D02*
X131667646Y-76363095D01*
X131667646Y-76363095D02*
X131743837Y-76363095D01*
X131896218Y-75829761D02*
X132200980Y-75829761D01*
X132010504Y-75563095D02*
X132010504Y-76248809D01*
X132010504Y-76248809D02*
X132048599Y-76325000D01*
X132048599Y-76325000D02*
X132124789Y-76363095D01*
X132124789Y-76363095D02*
X132200980Y-76363095D01*
X132581932Y-76363095D02*
X132505742Y-76325000D01*
X132505742Y-76325000D02*
X132467647Y-76248809D01*
X132467647Y-76248809D02*
X132467647Y-75563095D01*
X133191457Y-76325000D02*
X133115266Y-76363095D01*
X133115266Y-76363095D02*
X132962885Y-76363095D01*
X132962885Y-76363095D02*
X132886695Y-76325000D01*
X132886695Y-76325000D02*
X132848599Y-76248809D01*
X132848599Y-76248809D02*
X132848599Y-75944047D01*
X132848599Y-75944047D02*
X132886695Y-75867857D01*
X132886695Y-75867857D02*
X132962885Y-75829761D01*
X132962885Y-75829761D02*
X133115266Y-75829761D01*
X133115266Y-75829761D02*
X133191457Y-75867857D01*
X133191457Y-75867857D02*
X133229552Y-75944047D01*
X133229552Y-75944047D02*
X133229552Y-76020238D01*
X133229552Y-76020238D02*
X132848599Y-76096428D01*
X134181933Y-76363095D02*
X134181933Y-75563095D01*
X134181933Y-75563095D02*
X134448599Y-76134523D01*
X134448599Y-76134523D02*
X134715266Y-75563095D01*
X134715266Y-75563095D02*
X134715266Y-76363095D01*
X135439076Y-76363095D02*
X135439076Y-75944047D01*
X135439076Y-75944047D02*
X135400981Y-75867857D01*
X135400981Y-75867857D02*
X135324790Y-75829761D01*
X135324790Y-75829761D02*
X135172409Y-75829761D01*
X135172409Y-75829761D02*
X135096219Y-75867857D01*
X135439076Y-76325000D02*
X135362885Y-76363095D01*
X135362885Y-76363095D02*
X135172409Y-76363095D01*
X135172409Y-76363095D02*
X135096219Y-76325000D01*
X135096219Y-76325000D02*
X135058123Y-76248809D01*
X135058123Y-76248809D02*
X135058123Y-76172619D01*
X135058123Y-76172619D02*
X135096219Y-76096428D01*
X135096219Y-76096428D02*
X135172409Y-76058333D01*
X135172409Y-76058333D02*
X135362885Y-76058333D01*
X135362885Y-76058333D02*
X135439076Y-76020238D01*
X135781933Y-76325000D02*
X135858124Y-76363095D01*
X135858124Y-76363095D02*
X136010505Y-76363095D01*
X136010505Y-76363095D02*
X136086695Y-76325000D01*
X136086695Y-76325000D02*
X136124791Y-76248809D01*
X136124791Y-76248809D02*
X136124791Y-76210714D01*
X136124791Y-76210714D02*
X136086695Y-76134523D01*
X136086695Y-76134523D02*
X136010505Y-76096428D01*
X136010505Y-76096428D02*
X135896219Y-76096428D01*
X135896219Y-76096428D02*
X135820029Y-76058333D01*
X135820029Y-76058333D02*
X135781933Y-75982142D01*
X135781933Y-75982142D02*
X135781933Y-75944047D01*
X135781933Y-75944047D02*
X135820029Y-75867857D01*
X135820029Y-75867857D02*
X135896219Y-75829761D01*
X135896219Y-75829761D02*
X136010505Y-75829761D01*
X136010505Y-75829761D02*
X136086695Y-75867857D01*
X136353362Y-75829761D02*
X136658124Y-75829761D01*
X136467648Y-75563095D02*
X136467648Y-76248809D01*
X136467648Y-76248809D02*
X136505743Y-76325000D01*
X136505743Y-76325000D02*
X136581933Y-76363095D01*
X136581933Y-76363095D02*
X136658124Y-76363095D01*
X137229553Y-76325000D02*
X137153362Y-76363095D01*
X137153362Y-76363095D02*
X137000981Y-76363095D01*
X137000981Y-76363095D02*
X136924791Y-76325000D01*
X136924791Y-76325000D02*
X136886695Y-76248809D01*
X136886695Y-76248809D02*
X136886695Y-75944047D01*
X136886695Y-75944047D02*
X136924791Y-75867857D01*
X136924791Y-75867857D02*
X137000981Y-75829761D01*
X137000981Y-75829761D02*
X137153362Y-75829761D01*
X137153362Y-75829761D02*
X137229553Y-75867857D01*
X137229553Y-75867857D02*
X137267648Y-75944047D01*
X137267648Y-75944047D02*
X137267648Y-76020238D01*
X137267648Y-76020238D02*
X136886695Y-76096428D01*
X137610505Y-76363095D02*
X137610505Y-75829761D01*
X137610505Y-75982142D02*
X137648600Y-75905952D01*
X137648600Y-75905952D02*
X137686695Y-75867857D01*
X137686695Y-75867857D02*
X137762886Y-75829761D01*
X137762886Y-75829761D02*
X137839076Y-75829761D01*
X138981933Y-75944047D02*
X139096219Y-75982142D01*
X139096219Y-75982142D02*
X139134314Y-76020238D01*
X139134314Y-76020238D02*
X139172410Y-76096428D01*
X139172410Y-76096428D02*
X139172410Y-76210714D01*
X139172410Y-76210714D02*
X139134314Y-76286904D01*
X139134314Y-76286904D02*
X139096219Y-76325000D01*
X139096219Y-76325000D02*
X139020029Y-76363095D01*
X139020029Y-76363095D02*
X138715267Y-76363095D01*
X138715267Y-76363095D02*
X138715267Y-75563095D01*
X138715267Y-75563095D02*
X138981933Y-75563095D01*
X138981933Y-75563095D02*
X139058124Y-75601190D01*
X139058124Y-75601190D02*
X139096219Y-75639285D01*
X139096219Y-75639285D02*
X139134314Y-75715476D01*
X139134314Y-75715476D02*
X139134314Y-75791666D01*
X139134314Y-75791666D02*
X139096219Y-75867857D01*
X139096219Y-75867857D02*
X139058124Y-75905952D01*
X139058124Y-75905952D02*
X138981933Y-75944047D01*
X138981933Y-75944047D02*
X138715267Y-75944047D01*
X139629552Y-76363095D02*
X139553362Y-76325000D01*
X139553362Y-76325000D02*
X139515267Y-76286904D01*
X139515267Y-76286904D02*
X139477171Y-76210714D01*
X139477171Y-76210714D02*
X139477171Y-75982142D01*
X139477171Y-75982142D02*
X139515267Y-75905952D01*
X139515267Y-75905952D02*
X139553362Y-75867857D01*
X139553362Y-75867857D02*
X139629552Y-75829761D01*
X139629552Y-75829761D02*
X139743838Y-75829761D01*
X139743838Y-75829761D02*
X139820029Y-75867857D01*
X139820029Y-75867857D02*
X139858124Y-75905952D01*
X139858124Y-75905952D02*
X139896219Y-75982142D01*
X139896219Y-75982142D02*
X139896219Y-76210714D01*
X139896219Y-76210714D02*
X139858124Y-76286904D01*
X139858124Y-76286904D02*
X139820029Y-76325000D01*
X139820029Y-76325000D02*
X139743838Y-76363095D01*
X139743838Y-76363095D02*
X139629552Y-76363095D01*
X140581934Y-76363095D02*
X140581934Y-75944047D01*
X140581934Y-75944047D02*
X140543839Y-75867857D01*
X140543839Y-75867857D02*
X140467648Y-75829761D01*
X140467648Y-75829761D02*
X140315267Y-75829761D01*
X140315267Y-75829761D02*
X140239077Y-75867857D01*
X140581934Y-76325000D02*
X140505743Y-76363095D01*
X140505743Y-76363095D02*
X140315267Y-76363095D01*
X140315267Y-76363095D02*
X140239077Y-76325000D01*
X140239077Y-76325000D02*
X140200981Y-76248809D01*
X140200981Y-76248809D02*
X140200981Y-76172619D01*
X140200981Y-76172619D02*
X140239077Y-76096428D01*
X140239077Y-76096428D02*
X140315267Y-76058333D01*
X140315267Y-76058333D02*
X140505743Y-76058333D01*
X140505743Y-76058333D02*
X140581934Y-76020238D01*
X140962887Y-76363095D02*
X140962887Y-75829761D01*
X140962887Y-75982142D02*
X141000982Y-75905952D01*
X141000982Y-75905952D02*
X141039077Y-75867857D01*
X141039077Y-75867857D02*
X141115268Y-75829761D01*
X141115268Y-75829761D02*
X141191458Y-75829761D01*
X141800982Y-76363095D02*
X141800982Y-75563095D01*
X141800982Y-76325000D02*
X141724791Y-76363095D01*
X141724791Y-76363095D02*
X141572410Y-76363095D01*
X141572410Y-76363095D02*
X141496220Y-76325000D01*
X141496220Y-76325000D02*
X141458125Y-76286904D01*
X141458125Y-76286904D02*
X141420029Y-76210714D01*
X141420029Y-76210714D02*
X141420029Y-75982142D01*
X141420029Y-75982142D02*
X141458125Y-75905952D01*
X141458125Y-75905952D02*
X141496220Y-75867857D01*
X141496220Y-75867857D02*
X141572410Y-75829761D01*
X141572410Y-75829761D02*
X141724791Y-75829761D01*
X141724791Y-75829761D02*
X141800982Y-75867857D01*
X133743838Y-77651095D02*
X133477171Y-77270142D01*
X133286695Y-77651095D02*
X133286695Y-76851095D01*
X133286695Y-76851095D02*
X133591457Y-76851095D01*
X133591457Y-76851095D02*
X133667647Y-76889190D01*
X133667647Y-76889190D02*
X133705742Y-76927285D01*
X133705742Y-76927285D02*
X133743838Y-77003476D01*
X133743838Y-77003476D02*
X133743838Y-77117761D01*
X133743838Y-77117761D02*
X133705742Y-77193952D01*
X133705742Y-77193952D02*
X133667647Y-77232047D01*
X133667647Y-77232047D02*
X133591457Y-77270142D01*
X133591457Y-77270142D02*
X133286695Y-77270142D01*
X134391457Y-77613000D02*
X134315266Y-77651095D01*
X134315266Y-77651095D02*
X134162885Y-77651095D01*
X134162885Y-77651095D02*
X134086695Y-77613000D01*
X134086695Y-77613000D02*
X134048599Y-77536809D01*
X134048599Y-77536809D02*
X134048599Y-77232047D01*
X134048599Y-77232047D02*
X134086695Y-77155857D01*
X134086695Y-77155857D02*
X134162885Y-77117761D01*
X134162885Y-77117761D02*
X134315266Y-77117761D01*
X134315266Y-77117761D02*
X134391457Y-77155857D01*
X134391457Y-77155857D02*
X134429552Y-77232047D01*
X134429552Y-77232047D02*
X134429552Y-77308238D01*
X134429552Y-77308238D02*
X134048599Y-77384428D01*
X134696218Y-77117761D02*
X134886694Y-77651095D01*
X134886694Y-77651095D02*
X135077171Y-77117761D01*
X136258123Y-77232047D02*
X136372409Y-77270142D01*
X136372409Y-77270142D02*
X136410504Y-77308238D01*
X136410504Y-77308238D02*
X136448600Y-77384428D01*
X136448600Y-77384428D02*
X136448600Y-77498714D01*
X136448600Y-77498714D02*
X136410504Y-77574904D01*
X136410504Y-77574904D02*
X136372409Y-77613000D01*
X136372409Y-77613000D02*
X136296219Y-77651095D01*
X136296219Y-77651095D02*
X135991457Y-77651095D01*
X135991457Y-77651095D02*
X135991457Y-76851095D01*
X135991457Y-76851095D02*
X136258123Y-76851095D01*
X136258123Y-76851095D02*
X136334314Y-76889190D01*
X136334314Y-76889190D02*
X136372409Y-76927285D01*
X136372409Y-76927285D02*
X136410504Y-77003476D01*
X136410504Y-77003476D02*
X136410504Y-77079666D01*
X136410504Y-77079666D02*
X136372409Y-77155857D01*
X136372409Y-77155857D02*
X136334314Y-77193952D01*
X136334314Y-77193952D02*
X136258123Y-77232047D01*
X136258123Y-77232047D02*
X135991457Y-77232047D01*
X129191456Y-78939095D02*
X129191456Y-78139095D01*
X129191456Y-78139095D02*
X129381932Y-78139095D01*
X129381932Y-78139095D02*
X129496218Y-78177190D01*
X129496218Y-78177190D02*
X129572408Y-78253380D01*
X129572408Y-78253380D02*
X129610503Y-78329571D01*
X129610503Y-78329571D02*
X129648599Y-78481952D01*
X129648599Y-78481952D02*
X129648599Y-78596238D01*
X129648599Y-78596238D02*
X129610503Y-78748619D01*
X129610503Y-78748619D02*
X129572408Y-78824809D01*
X129572408Y-78824809D02*
X129496218Y-78901000D01*
X129496218Y-78901000D02*
X129381932Y-78939095D01*
X129381932Y-78939095D02*
X129191456Y-78939095D01*
X130296218Y-78901000D02*
X130220027Y-78939095D01*
X130220027Y-78939095D02*
X130067646Y-78939095D01*
X130067646Y-78939095D02*
X129991456Y-78901000D01*
X129991456Y-78901000D02*
X129953360Y-78824809D01*
X129953360Y-78824809D02*
X129953360Y-78520047D01*
X129953360Y-78520047D02*
X129991456Y-78443857D01*
X129991456Y-78443857D02*
X130067646Y-78405761D01*
X130067646Y-78405761D02*
X130220027Y-78405761D01*
X130220027Y-78405761D02*
X130296218Y-78443857D01*
X130296218Y-78443857D02*
X130334313Y-78520047D01*
X130334313Y-78520047D02*
X130334313Y-78596238D01*
X130334313Y-78596238D02*
X129953360Y-78672428D01*
X130677170Y-78405761D02*
X130677170Y-78939095D01*
X130677170Y-78481952D02*
X130715265Y-78443857D01*
X130715265Y-78443857D02*
X130791455Y-78405761D01*
X130791455Y-78405761D02*
X130905741Y-78405761D01*
X130905741Y-78405761D02*
X130981932Y-78443857D01*
X130981932Y-78443857D02*
X131020027Y-78520047D01*
X131020027Y-78520047D02*
X131020027Y-78939095D01*
X131400980Y-78405761D02*
X131400980Y-78939095D01*
X131400980Y-78481952D02*
X131439075Y-78443857D01*
X131439075Y-78443857D02*
X131515265Y-78405761D01*
X131515265Y-78405761D02*
X131629551Y-78405761D01*
X131629551Y-78405761D02*
X131705742Y-78443857D01*
X131705742Y-78443857D02*
X131743837Y-78520047D01*
X131743837Y-78520047D02*
X131743837Y-78939095D01*
X132124790Y-78939095D02*
X132124790Y-78405761D01*
X132124790Y-78139095D02*
X132086694Y-78177190D01*
X132086694Y-78177190D02*
X132124790Y-78215285D01*
X132124790Y-78215285D02*
X132162885Y-78177190D01*
X132162885Y-78177190D02*
X132124790Y-78139095D01*
X132124790Y-78139095D02*
X132124790Y-78215285D01*
X132467646Y-78901000D02*
X132543837Y-78939095D01*
X132543837Y-78939095D02*
X132696218Y-78939095D01*
X132696218Y-78939095D02*
X132772408Y-78901000D01*
X132772408Y-78901000D02*
X132810504Y-78824809D01*
X132810504Y-78824809D02*
X132810504Y-78786714D01*
X132810504Y-78786714D02*
X132772408Y-78710523D01*
X132772408Y-78710523D02*
X132696218Y-78672428D01*
X132696218Y-78672428D02*
X132581932Y-78672428D01*
X132581932Y-78672428D02*
X132505742Y-78634333D01*
X132505742Y-78634333D02*
X132467646Y-78558142D01*
X132467646Y-78558142D02*
X132467646Y-78520047D01*
X132467646Y-78520047D02*
X132505742Y-78443857D01*
X132505742Y-78443857D02*
X132581932Y-78405761D01*
X132581932Y-78405761D02*
X132696218Y-78405761D01*
X132696218Y-78405761D02*
X132772408Y-78443857D01*
X133762885Y-78939095D02*
X133762885Y-78139095D01*
X133762885Y-78520047D02*
X134220028Y-78520047D01*
X134220028Y-78939095D02*
X134220028Y-78139095D01*
X134600980Y-78862904D02*
X134639075Y-78901000D01*
X134639075Y-78901000D02*
X134600980Y-78939095D01*
X134600980Y-78939095D02*
X134562884Y-78901000D01*
X134562884Y-78901000D02*
X134600980Y-78862904D01*
X134600980Y-78862904D02*
X134600980Y-78939095D01*
X136048599Y-78862904D02*
X136010503Y-78901000D01*
X136010503Y-78901000D02*
X135896218Y-78939095D01*
X135896218Y-78939095D02*
X135820027Y-78939095D01*
X135820027Y-78939095D02*
X135705741Y-78901000D01*
X135705741Y-78901000D02*
X135629551Y-78824809D01*
X135629551Y-78824809D02*
X135591456Y-78748619D01*
X135591456Y-78748619D02*
X135553360Y-78596238D01*
X135553360Y-78596238D02*
X135553360Y-78481952D01*
X135553360Y-78481952D02*
X135591456Y-78329571D01*
X135591456Y-78329571D02*
X135629551Y-78253380D01*
X135629551Y-78253380D02*
X135705741Y-78177190D01*
X135705741Y-78177190D02*
X135820027Y-78139095D01*
X135820027Y-78139095D02*
X135896218Y-78139095D01*
X135896218Y-78139095D02*
X136010503Y-78177190D01*
X136010503Y-78177190D02*
X136048599Y-78215285D01*
X136734313Y-78939095D02*
X136734313Y-78520047D01*
X136734313Y-78520047D02*
X136696218Y-78443857D01*
X136696218Y-78443857D02*
X136620027Y-78405761D01*
X136620027Y-78405761D02*
X136467646Y-78405761D01*
X136467646Y-78405761D02*
X136391456Y-78443857D01*
X136734313Y-78901000D02*
X136658122Y-78939095D01*
X136658122Y-78939095D02*
X136467646Y-78939095D01*
X136467646Y-78939095D02*
X136391456Y-78901000D01*
X136391456Y-78901000D02*
X136353360Y-78824809D01*
X136353360Y-78824809D02*
X136353360Y-78748619D01*
X136353360Y-78748619D02*
X136391456Y-78672428D01*
X136391456Y-78672428D02*
X136467646Y-78634333D01*
X136467646Y-78634333D02*
X136658122Y-78634333D01*
X136658122Y-78634333D02*
X136734313Y-78596238D01*
X137229551Y-78939095D02*
X137153361Y-78901000D01*
X137153361Y-78901000D02*
X137115266Y-78824809D01*
X137115266Y-78824809D02*
X137115266Y-78139095D01*
X137877171Y-78939095D02*
X137877171Y-78139095D01*
X137877171Y-78901000D02*
X137800980Y-78939095D01*
X137800980Y-78939095D02*
X137648599Y-78939095D01*
X137648599Y-78939095D02*
X137572409Y-78901000D01*
X137572409Y-78901000D02*
X137534314Y-78862904D01*
X137534314Y-78862904D02*
X137496218Y-78786714D01*
X137496218Y-78786714D02*
X137496218Y-78558142D01*
X137496218Y-78558142D02*
X137534314Y-78481952D01*
X137534314Y-78481952D02*
X137572409Y-78443857D01*
X137572409Y-78443857D02*
X137648599Y-78405761D01*
X137648599Y-78405761D02*
X137800980Y-78405761D01*
X137800980Y-78405761D02*
X137877171Y-78443857D01*
X138562886Y-78901000D02*
X138486695Y-78939095D01*
X138486695Y-78939095D02*
X138334314Y-78939095D01*
X138334314Y-78939095D02*
X138258124Y-78901000D01*
X138258124Y-78901000D02*
X138220028Y-78824809D01*
X138220028Y-78824809D02*
X138220028Y-78520047D01*
X138220028Y-78520047D02*
X138258124Y-78443857D01*
X138258124Y-78443857D02*
X138334314Y-78405761D01*
X138334314Y-78405761D02*
X138486695Y-78405761D01*
X138486695Y-78405761D02*
X138562886Y-78443857D01*
X138562886Y-78443857D02*
X138600981Y-78520047D01*
X138600981Y-78520047D02*
X138600981Y-78596238D01*
X138600981Y-78596238D02*
X138220028Y-78672428D01*
X138943838Y-78939095D02*
X138943838Y-78405761D01*
X138943838Y-78558142D02*
X138981933Y-78481952D01*
X138981933Y-78481952D02*
X139020028Y-78443857D01*
X139020028Y-78443857D02*
X139096219Y-78405761D01*
X139096219Y-78405761D02*
X139172409Y-78405761D01*
X139553361Y-78939095D02*
X139477171Y-78901000D01*
X139477171Y-78901000D02*
X139439076Y-78862904D01*
X139439076Y-78862904D02*
X139400980Y-78786714D01*
X139400980Y-78786714D02*
X139400980Y-78558142D01*
X139400980Y-78558142D02*
X139439076Y-78481952D01*
X139439076Y-78481952D02*
X139477171Y-78443857D01*
X139477171Y-78443857D02*
X139553361Y-78405761D01*
X139553361Y-78405761D02*
X139667647Y-78405761D01*
X139667647Y-78405761D02*
X139743838Y-78443857D01*
X139743838Y-78443857D02*
X139781933Y-78481952D01*
X139781933Y-78481952D02*
X139820028Y-78558142D01*
X139820028Y-78558142D02*
X139820028Y-78786714D01*
X139820028Y-78786714D02*
X139781933Y-78862904D01*
X139781933Y-78862904D02*
X139743838Y-78901000D01*
X139743838Y-78901000D02*
X139667647Y-78939095D01*
X139667647Y-78939095D02*
X139553361Y-78939095D01*
X140162886Y-78405761D02*
X140162886Y-78939095D01*
X140162886Y-78481952D02*
X140200981Y-78443857D01*
X140200981Y-78443857D02*
X140277171Y-78405761D01*
X140277171Y-78405761D02*
X140391457Y-78405761D01*
X140391457Y-78405761D02*
X140467648Y-78443857D01*
X140467648Y-78443857D02*
X140505743Y-78520047D01*
X140505743Y-78520047D02*
X140505743Y-78939095D01*
X136193630Y-74024200D02*
X136307916Y-74062295D01*
X136307916Y-74062295D02*
X136498392Y-74062295D01*
X136498392Y-74062295D02*
X136574583Y-74024200D01*
X136574583Y-74024200D02*
X136612678Y-73986104D01*
X136612678Y-73986104D02*
X136650773Y-73909914D01*
X136650773Y-73909914D02*
X136650773Y-73833723D01*
X136650773Y-73833723D02*
X136612678Y-73757533D01*
X136612678Y-73757533D02*
X136574583Y-73719438D01*
X136574583Y-73719438D02*
X136498392Y-73681342D01*
X136498392Y-73681342D02*
X136346011Y-73643247D01*
X136346011Y-73643247D02*
X136269821Y-73605152D01*
X136269821Y-73605152D02*
X136231726Y-73567057D01*
X136231726Y-73567057D02*
X136193630Y-73490866D01*
X136193630Y-73490866D02*
X136193630Y-73414676D01*
X136193630Y-73414676D02*
X136231726Y-73338485D01*
X136231726Y-73338485D02*
X136269821Y-73300390D01*
X136269821Y-73300390D02*
X136346011Y-73262295D01*
X136346011Y-73262295D02*
X136536488Y-73262295D01*
X136536488Y-73262295D02*
X136650773Y-73300390D01*
X136993631Y-74062295D02*
X136993631Y-73262295D01*
X136993631Y-73262295D02*
X137298393Y-73262295D01*
X137298393Y-73262295D02*
X137374583Y-73300390D01*
X137374583Y-73300390D02*
X137412678Y-73338485D01*
X137412678Y-73338485D02*
X137450774Y-73414676D01*
X137450774Y-73414676D02*
X137450774Y-73528961D01*
X137450774Y-73528961D02*
X137412678Y-73605152D01*
X137412678Y-73605152D02*
X137374583Y-73643247D01*
X137374583Y-73643247D02*
X137298393Y-73681342D01*
X137298393Y-73681342D02*
X136993631Y-73681342D01*
X137717440Y-73262295D02*
X138212678Y-73262295D01*
X138212678Y-73262295D02*
X137946012Y-73567057D01*
X137946012Y-73567057D02*
X138060297Y-73567057D01*
X138060297Y-73567057D02*
X138136488Y-73605152D01*
X138136488Y-73605152D02*
X138174583Y-73643247D01*
X138174583Y-73643247D02*
X138212678Y-73719438D01*
X138212678Y-73719438D02*
X138212678Y-73909914D01*
X138212678Y-73909914D02*
X138174583Y-73986104D01*
X138174583Y-73986104D02*
X138136488Y-74024200D01*
X138136488Y-74024200D02*
X138060297Y-74062295D01*
X138060297Y-74062295D02*
X137831726Y-74062295D01*
X137831726Y-74062295D02*
X137755535Y-74024200D01*
X137755535Y-74024200D02*
X137717440Y-73986104D01*
X138517440Y-73338485D02*
X138555536Y-73300390D01*
X138555536Y-73300390D02*
X138631726Y-73262295D01*
X138631726Y-73262295D02*
X138822202Y-73262295D01*
X138822202Y-73262295D02*
X138898393Y-73300390D01*
X138898393Y-73300390D02*
X138936488Y-73338485D01*
X138936488Y-73338485D02*
X138974583Y-73414676D01*
X138974583Y-73414676D02*
X138974583Y-73490866D01*
X138974583Y-73490866D02*
X138936488Y-73605152D01*
X138936488Y-73605152D02*
X138479345Y-74062295D01*
X138479345Y-74062295D02*
X138974583Y-74062295D01*
X139279345Y-73338485D02*
X139317441Y-73300390D01*
X139317441Y-73300390D02*
X139393631Y-73262295D01*
X139393631Y-73262295D02*
X139584107Y-73262295D01*
X139584107Y-73262295D02*
X139660298Y-73300390D01*
X139660298Y-73300390D02*
X139698393Y-73338485D01*
X139698393Y-73338485D02*
X139736488Y-73414676D01*
X139736488Y-73414676D02*
X139736488Y-73490866D01*
X139736488Y-73490866D02*
X139698393Y-73605152D01*
X139698393Y-73605152D02*
X139241250Y-74062295D01*
X139241250Y-74062295D02*
X139736488Y-74062295D01*
X140041250Y-73338485D02*
X140079346Y-73300390D01*
X140079346Y-73300390D02*
X140155536Y-73262295D01*
X140155536Y-73262295D02*
X140346012Y-73262295D01*
X140346012Y-73262295D02*
X140422203Y-73300390D01*
X140422203Y-73300390D02*
X140460298Y-73338485D01*
X140460298Y-73338485D02*
X140498393Y-73414676D01*
X140498393Y-73414676D02*
X140498393Y-73490866D01*
X140498393Y-73490866D02*
X140460298Y-73605152D01*
X140460298Y-73605152D02*
X140003155Y-74062295D01*
X140003155Y-74062295D02*
X140498393Y-74062295D01*
X140841251Y-73643247D02*
X141107917Y-73643247D01*
X141222203Y-74062295D02*
X140841251Y-74062295D01*
X140841251Y-74062295D02*
X140841251Y-73262295D01*
X140841251Y-73262295D02*
X141222203Y-73262295D01*
X141565061Y-73262295D02*
X141565061Y-73909914D01*
X141565061Y-73909914D02*
X141603156Y-73986104D01*
X141603156Y-73986104D02*
X141641251Y-74024200D01*
X141641251Y-74024200D02*
X141717442Y-74062295D01*
X141717442Y-74062295D02*
X141869823Y-74062295D01*
X141869823Y-74062295D02*
X141946013Y-74024200D01*
X141946013Y-74024200D02*
X141984108Y-73986104D01*
X141984108Y-73986104D02*
X142022204Y-73909914D01*
X142022204Y-73909914D02*
X142022204Y-73262295D01*
X142403156Y-73643247D02*
X142669822Y-73643247D01*
X142784108Y-74062295D02*
X142403156Y-74062295D01*
X142403156Y-74062295D02*
X142403156Y-73262295D01*
X142403156Y-73262295D02*
X142784108Y-73262295D01*
X143279347Y-73681342D02*
X143279347Y-74062295D01*
X143012680Y-73262295D02*
X143279347Y-73681342D01*
X143279347Y-73681342D02*
X143546013Y-73262295D01*
X143812680Y-73757533D02*
X144422204Y-73757533D01*
X145184108Y-74062295D02*
X144803156Y-74062295D01*
X144803156Y-74062295D02*
X144803156Y-73262295D01*
X146022203Y-73224200D02*
X145336489Y-74252771D01*
X146174584Y-73262295D02*
X146631727Y-73262295D01*
X146403155Y-74062295D02*
X146403155Y-73262295D01*
X147355537Y-74062295D02*
X147088870Y-73681342D01*
X146898394Y-74062295D02*
X146898394Y-73262295D01*
X146898394Y-73262295D02*
X147203156Y-73262295D01*
X147203156Y-73262295D02*
X147279346Y-73300390D01*
X147279346Y-73300390D02*
X147317441Y-73338485D01*
X147317441Y-73338485D02*
X147355537Y-73414676D01*
X147355537Y-73414676D02*
X147355537Y-73528961D01*
X147355537Y-73528961D02*
X147317441Y-73605152D01*
X147317441Y-73605152D02*
X147279346Y-73643247D01*
X147279346Y-73643247D02*
X147203156Y-73681342D01*
X147203156Y-73681342D02*
X146898394Y-73681342D01*
X149285503Y-69732212D02*
X149018836Y-69351259D01*
X148828360Y-69732212D02*
X148828360Y-68932212D01*
X148828360Y-68932212D02*
X149133122Y-68932212D01*
X149133122Y-68932212D02*
X149209312Y-68970307D01*
X149209312Y-68970307D02*
X149247407Y-69008402D01*
X149247407Y-69008402D02*
X149285503Y-69084593D01*
X149285503Y-69084593D02*
X149285503Y-69198878D01*
X149285503Y-69198878D02*
X149247407Y-69275069D01*
X149247407Y-69275069D02*
X149209312Y-69313164D01*
X149209312Y-69313164D02*
X149133122Y-69351259D01*
X149133122Y-69351259D02*
X148828360Y-69351259D01*
X150047407Y-69732212D02*
X149590264Y-69732212D01*
X149818836Y-69732212D02*
X149818836Y-68932212D01*
X149818836Y-68932212D02*
X149742645Y-69046497D01*
X149742645Y-69046497D02*
X149666455Y-69122688D01*
X149666455Y-69122688D02*
X149590264Y-69160783D01*
X150542646Y-68932212D02*
X150695027Y-68932212D01*
X150695027Y-68932212D02*
X150771217Y-68970307D01*
X150771217Y-68970307D02*
X150847408Y-69046497D01*
X150847408Y-69046497D02*
X150885503Y-69198878D01*
X150885503Y-69198878D02*
X150885503Y-69465545D01*
X150885503Y-69465545D02*
X150847408Y-69617926D01*
X150847408Y-69617926D02*
X150771217Y-69694117D01*
X150771217Y-69694117D02*
X150695027Y-69732212D01*
X150695027Y-69732212D02*
X150542646Y-69732212D01*
X150542646Y-69732212D02*
X150466455Y-69694117D01*
X150466455Y-69694117D02*
X150390265Y-69617926D01*
X150390265Y-69617926D02*
X150352169Y-69465545D01*
X150352169Y-69465545D02*
X150352169Y-69198878D01*
X150352169Y-69198878D02*
X150390265Y-69046497D01*
X150390265Y-69046497D02*
X150466455Y-68970307D01*
X150466455Y-68970307D02*
X150542646Y-68932212D01*
X151228360Y-68932212D02*
X151228360Y-69579831D01*
X151228360Y-69579831D02*
X151266455Y-69656021D01*
X151266455Y-69656021D02*
X151304550Y-69694117D01*
X151304550Y-69694117D02*
X151380741Y-69732212D01*
X151380741Y-69732212D02*
X151533122Y-69732212D01*
X151533122Y-69732212D02*
X151609312Y-69694117D01*
X151609312Y-69694117D02*
X151647407Y-69656021D01*
X151647407Y-69656021D02*
X151685503Y-69579831D01*
X151685503Y-69579831D02*
X151685503Y-68932212D01*
X151952169Y-68932212D02*
X152409312Y-68932212D01*
X152180740Y-69732212D02*
X152180740Y-68932212D01*
X150987360Y-71687447D02*
X151254026Y-71687447D01*
X151368312Y-72106495D02*
X150987360Y-72106495D01*
X150987360Y-72106495D02*
X150987360Y-71306495D01*
X150987360Y-71306495D02*
X151368312Y-71306495D01*
X151711170Y-72106495D02*
X151711170Y-71306495D01*
X151711170Y-71306495D02*
X152168313Y-72106495D01*
X152168313Y-72106495D02*
X152168313Y-71306495D01*
X150876884Y-71084400D02*
X152278789Y-71084400D01*
X115592474Y-75065695D02*
X116049617Y-75065695D01*
X115821045Y-75865695D02*
X115821045Y-75065695D01*
X116735331Y-75865695D02*
X116278188Y-75865695D01*
X116506760Y-75865695D02*
X116506760Y-75065695D01*
X116506760Y-75065695D02*
X116430569Y-75179980D01*
X116430569Y-75179980D02*
X116354379Y-75256171D01*
X116354379Y-75256171D02*
X116278188Y-75294266D01*
X117230570Y-75065695D02*
X117382951Y-75065695D01*
X117382951Y-75065695D02*
X117459141Y-75103790D01*
X117459141Y-75103790D02*
X117535332Y-75179980D01*
X117535332Y-75179980D02*
X117573427Y-75332361D01*
X117573427Y-75332361D02*
X117573427Y-75599028D01*
X117573427Y-75599028D02*
X117535332Y-75751409D01*
X117535332Y-75751409D02*
X117459141Y-75827600D01*
X117459141Y-75827600D02*
X117382951Y-75865695D01*
X117382951Y-75865695D02*
X117230570Y-75865695D01*
X117230570Y-75865695D02*
X117154379Y-75827600D01*
X117154379Y-75827600D02*
X117078189Y-75751409D01*
X117078189Y-75751409D02*
X117040093Y-75599028D01*
X117040093Y-75599028D02*
X117040093Y-75332361D01*
X117040093Y-75332361D02*
X117078189Y-75179980D01*
X117078189Y-75179980D02*
X117154379Y-75103790D01*
X117154379Y-75103790D02*
X117230570Y-75065695D01*
X117916284Y-75065695D02*
X117916284Y-75713314D01*
X117916284Y-75713314D02*
X117954379Y-75789504D01*
X117954379Y-75789504D02*
X117992474Y-75827600D01*
X117992474Y-75827600D02*
X118068665Y-75865695D01*
X118068665Y-75865695D02*
X118221046Y-75865695D01*
X118221046Y-75865695D02*
X118297236Y-75827600D01*
X118297236Y-75827600D02*
X118335331Y-75789504D01*
X118335331Y-75789504D02*
X118373427Y-75713314D01*
X118373427Y-75713314D02*
X118373427Y-75065695D01*
X118640093Y-75065695D02*
X119097236Y-75065695D01*
X118868664Y-75865695D02*
X118868664Y-75065695D01*
X134307667Y-66653704D02*
X134269571Y-66691800D01*
X134269571Y-66691800D02*
X134155286Y-66729895D01*
X134155286Y-66729895D02*
X134079095Y-66729895D01*
X134079095Y-66729895D02*
X133964809Y-66691800D01*
X133964809Y-66691800D02*
X133888619Y-66615609D01*
X133888619Y-66615609D02*
X133850524Y-66539419D01*
X133850524Y-66539419D02*
X133812428Y-66387038D01*
X133812428Y-66387038D02*
X133812428Y-66272752D01*
X133812428Y-66272752D02*
X133850524Y-66120371D01*
X133850524Y-66120371D02*
X133888619Y-66044180D01*
X133888619Y-66044180D02*
X133964809Y-65967990D01*
X133964809Y-65967990D02*
X134079095Y-65929895D01*
X134079095Y-65929895D02*
X134155286Y-65929895D01*
X134155286Y-65929895D02*
X134269571Y-65967990D01*
X134269571Y-65967990D02*
X134307667Y-66006085D01*
X135069571Y-66729895D02*
X134612428Y-66729895D01*
X134841000Y-66729895D02*
X134841000Y-65929895D01*
X134841000Y-65929895D02*
X134764809Y-66044180D01*
X134764809Y-66044180D02*
X134688619Y-66120371D01*
X134688619Y-66120371D02*
X134612428Y-66158466D01*
X141630476Y-63824295D02*
X141630476Y-64471914D01*
X141630476Y-64471914D02*
X141668571Y-64548104D01*
X141668571Y-64548104D02*
X141706666Y-64586200D01*
X141706666Y-64586200D02*
X141782857Y-64624295D01*
X141782857Y-64624295D02*
X141935238Y-64624295D01*
X141935238Y-64624295D02*
X142011428Y-64586200D01*
X142011428Y-64586200D02*
X142049523Y-64548104D01*
X142049523Y-64548104D02*
X142087619Y-64471914D01*
X142087619Y-64471914D02*
X142087619Y-63824295D01*
X142887618Y-64624295D02*
X142430475Y-64624295D01*
X142659047Y-64624295D02*
X142659047Y-63824295D01*
X142659047Y-63824295D02*
X142582856Y-63938580D01*
X142582856Y-63938580D02*
X142506666Y-64014771D01*
X142506666Y-64014771D02*
X142430475Y-64052866D01*
X154978133Y-58827295D02*
X154978133Y-59398723D01*
X154978133Y-59398723D02*
X154940038Y-59513009D01*
X154940038Y-59513009D02*
X154863847Y-59589200D01*
X154863847Y-59589200D02*
X154749562Y-59627295D01*
X154749562Y-59627295D02*
X154673371Y-59627295D01*
X155778133Y-59627295D02*
X155320990Y-59627295D01*
X155549562Y-59627295D02*
X155549562Y-58827295D01*
X155549562Y-58827295D02*
X155473371Y-58941580D01*
X155473371Y-58941580D02*
X155397181Y-59017771D01*
X155397181Y-59017771D02*
X155320990Y-59055866D01*
X128797067Y-73006295D02*
X128530400Y-72625342D01*
X128339924Y-73006295D02*
X128339924Y-72206295D01*
X128339924Y-72206295D02*
X128644686Y-72206295D01*
X128644686Y-72206295D02*
X128720876Y-72244390D01*
X128720876Y-72244390D02*
X128758971Y-72282485D01*
X128758971Y-72282485D02*
X128797067Y-72358676D01*
X128797067Y-72358676D02*
X128797067Y-72472961D01*
X128797067Y-72472961D02*
X128758971Y-72549152D01*
X128758971Y-72549152D02*
X128720876Y-72587247D01*
X128720876Y-72587247D02*
X128644686Y-72625342D01*
X128644686Y-72625342D02*
X128339924Y-72625342D01*
X129558971Y-73006295D02*
X129101828Y-73006295D01*
X129330400Y-73006295D02*
X129330400Y-72206295D01*
X129330400Y-72206295D02*
X129254209Y-72320580D01*
X129254209Y-72320580D02*
X129178019Y-72396771D01*
X129178019Y-72396771D02*
X129101828Y-72434866D01*
X136342267Y-66910304D02*
X136304171Y-66948400D01*
X136304171Y-66948400D02*
X136189886Y-66986495D01*
X136189886Y-66986495D02*
X136113695Y-66986495D01*
X136113695Y-66986495D02*
X135999409Y-66948400D01*
X135999409Y-66948400D02*
X135923219Y-66872209D01*
X135923219Y-66872209D02*
X135885124Y-66796019D01*
X135885124Y-66796019D02*
X135847028Y-66643638D01*
X135847028Y-66643638D02*
X135847028Y-66529352D01*
X135847028Y-66529352D02*
X135885124Y-66376971D01*
X135885124Y-66376971D02*
X135923219Y-66300780D01*
X135923219Y-66300780D02*
X135999409Y-66224590D01*
X135999409Y-66224590D02*
X136113695Y-66186495D01*
X136113695Y-66186495D02*
X136189886Y-66186495D01*
X136189886Y-66186495D02*
X136304171Y-66224590D01*
X136304171Y-66224590D02*
X136342267Y-66262685D01*
X136608933Y-66186495D02*
X137104171Y-66186495D01*
X137104171Y-66186495D02*
X136837505Y-66491257D01*
X136837505Y-66491257D02*
X136951790Y-66491257D01*
X136951790Y-66491257D02*
X137027981Y-66529352D01*
X137027981Y-66529352D02*
X137066076Y-66567447D01*
X137066076Y-66567447D02*
X137104171Y-66643638D01*
X137104171Y-66643638D02*
X137104171Y-66834114D01*
X137104171Y-66834114D02*
X137066076Y-66910304D01*
X137066076Y-66910304D02*
X137027981Y-66948400D01*
X137027981Y-66948400D02*
X136951790Y-66986495D01*
X136951790Y-66986495D02*
X136723219Y-66986495D01*
X136723219Y-66986495D02*
X136647028Y-66948400D01*
X136647028Y-66948400D02*
X136608933Y-66910304D01*
X128797067Y-69018495D02*
X128530400Y-68637542D01*
X128339924Y-69018495D02*
X128339924Y-68218495D01*
X128339924Y-68218495D02*
X128644686Y-68218495D01*
X128644686Y-68218495D02*
X128720876Y-68256590D01*
X128720876Y-68256590D02*
X128758971Y-68294685D01*
X128758971Y-68294685D02*
X128797067Y-68370876D01*
X128797067Y-68370876D02*
X128797067Y-68485161D01*
X128797067Y-68485161D02*
X128758971Y-68561352D01*
X128758971Y-68561352D02*
X128720876Y-68599447D01*
X128720876Y-68599447D02*
X128644686Y-68637542D01*
X128644686Y-68637542D02*
X128339924Y-68637542D01*
X129063733Y-68218495D02*
X129558971Y-68218495D01*
X129558971Y-68218495D02*
X129292305Y-68523257D01*
X129292305Y-68523257D02*
X129406590Y-68523257D01*
X129406590Y-68523257D02*
X129482781Y-68561352D01*
X129482781Y-68561352D02*
X129520876Y-68599447D01*
X129520876Y-68599447D02*
X129558971Y-68675638D01*
X129558971Y-68675638D02*
X129558971Y-68866114D01*
X129558971Y-68866114D02*
X129520876Y-68942304D01*
X129520876Y-68942304D02*
X129482781Y-68980400D01*
X129482781Y-68980400D02*
X129406590Y-69018495D01*
X129406590Y-69018495D02*
X129178019Y-69018495D01*
X129178019Y-69018495D02*
X129101828Y-68980400D01*
X129101828Y-68980400D02*
X129063733Y-68942304D01*
X136124104Y-69526132D02*
X136162200Y-69564228D01*
X136162200Y-69564228D02*
X136200295Y-69678513D01*
X136200295Y-69678513D02*
X136200295Y-69754704D01*
X136200295Y-69754704D02*
X136162200Y-69868990D01*
X136162200Y-69868990D02*
X136086009Y-69945180D01*
X136086009Y-69945180D02*
X136009819Y-69983275D01*
X136009819Y-69983275D02*
X135857438Y-70021371D01*
X135857438Y-70021371D02*
X135743152Y-70021371D01*
X135743152Y-70021371D02*
X135590771Y-69983275D01*
X135590771Y-69983275D02*
X135514580Y-69945180D01*
X135514580Y-69945180D02*
X135438390Y-69868990D01*
X135438390Y-69868990D02*
X135400295Y-69754704D01*
X135400295Y-69754704D02*
X135400295Y-69678513D01*
X135400295Y-69678513D02*
X135438390Y-69564228D01*
X135438390Y-69564228D02*
X135476485Y-69526132D01*
X135476485Y-69221371D02*
X135438390Y-69183275D01*
X135438390Y-69183275D02*
X135400295Y-69107085D01*
X135400295Y-69107085D02*
X135400295Y-68916609D01*
X135400295Y-68916609D02*
X135438390Y-68840418D01*
X135438390Y-68840418D02*
X135476485Y-68802323D01*
X135476485Y-68802323D02*
X135552676Y-68764228D01*
X135552676Y-68764228D02*
X135628866Y-68764228D01*
X135628866Y-68764228D02*
X135743152Y-68802323D01*
X135743152Y-68802323D02*
X136200295Y-69259466D01*
X136200295Y-69259466D02*
X136200295Y-68764228D01*
X128797067Y-66986495D02*
X128530400Y-66605542D01*
X128339924Y-66986495D02*
X128339924Y-66186495D01*
X128339924Y-66186495D02*
X128644686Y-66186495D01*
X128644686Y-66186495D02*
X128720876Y-66224590D01*
X128720876Y-66224590D02*
X128758971Y-66262685D01*
X128758971Y-66262685D02*
X128797067Y-66338876D01*
X128797067Y-66338876D02*
X128797067Y-66453161D01*
X128797067Y-66453161D02*
X128758971Y-66529352D01*
X128758971Y-66529352D02*
X128720876Y-66567447D01*
X128720876Y-66567447D02*
X128644686Y-66605542D01*
X128644686Y-66605542D02*
X128339924Y-66605542D01*
X129482781Y-66453161D02*
X129482781Y-66986495D01*
X129292305Y-66148400D02*
X129101828Y-66719828D01*
X129101828Y-66719828D02*
X129597067Y-66719828D01*
X136659733Y-58827295D02*
X136659733Y-59398723D01*
X136659733Y-59398723D02*
X136621638Y-59513009D01*
X136621638Y-59513009D02*
X136545447Y-59589200D01*
X136545447Y-59589200D02*
X136431162Y-59627295D01*
X136431162Y-59627295D02*
X136354971Y-59627295D01*
X137383543Y-59093961D02*
X137383543Y-59627295D01*
X137193067Y-58789200D02*
X137002590Y-59360628D01*
X137002590Y-59360628D02*
X137497829Y-59360628D01*
X136062867Y-72193504D02*
X136024771Y-72231600D01*
X136024771Y-72231600D02*
X135910486Y-72269695D01*
X135910486Y-72269695D02*
X135834295Y-72269695D01*
X135834295Y-72269695D02*
X135720009Y-72231600D01*
X135720009Y-72231600D02*
X135643819Y-72155409D01*
X135643819Y-72155409D02*
X135605724Y-72079219D01*
X135605724Y-72079219D02*
X135567628Y-71926838D01*
X135567628Y-71926838D02*
X135567628Y-71812552D01*
X135567628Y-71812552D02*
X135605724Y-71660171D01*
X135605724Y-71660171D02*
X135643819Y-71583980D01*
X135643819Y-71583980D02*
X135720009Y-71507790D01*
X135720009Y-71507790D02*
X135834295Y-71469695D01*
X135834295Y-71469695D02*
X135910486Y-71469695D01*
X135910486Y-71469695D02*
X136024771Y-71507790D01*
X136024771Y-71507790D02*
X136062867Y-71545885D01*
X136748581Y-71736361D02*
X136748581Y-72269695D01*
X136558105Y-71431600D02*
X136367628Y-72003028D01*
X136367628Y-72003028D02*
X136862867Y-72003028D01*
X128797067Y-70974295D02*
X128530400Y-70593342D01*
X128339924Y-70974295D02*
X128339924Y-70174295D01*
X128339924Y-70174295D02*
X128644686Y-70174295D01*
X128644686Y-70174295D02*
X128720876Y-70212390D01*
X128720876Y-70212390D02*
X128758971Y-70250485D01*
X128758971Y-70250485D02*
X128797067Y-70326676D01*
X128797067Y-70326676D02*
X128797067Y-70440961D01*
X128797067Y-70440961D02*
X128758971Y-70517152D01*
X128758971Y-70517152D02*
X128720876Y-70555247D01*
X128720876Y-70555247D02*
X128644686Y-70593342D01*
X128644686Y-70593342D02*
X128339924Y-70593342D01*
X129101828Y-70250485D02*
X129139924Y-70212390D01*
X129139924Y-70212390D02*
X129216114Y-70174295D01*
X129216114Y-70174295D02*
X129406590Y-70174295D01*
X129406590Y-70174295D02*
X129482781Y-70212390D01*
X129482781Y-70212390D02*
X129520876Y-70250485D01*
X129520876Y-70250485D02*
X129558971Y-70326676D01*
X129558971Y-70326676D02*
X129558971Y-70402866D01*
X129558971Y-70402866D02*
X129520876Y-70517152D01*
X129520876Y-70517152D02*
X129063733Y-70974295D01*
X129063733Y-70974295D02*
X129558971Y-70974295D01*
X126788733Y-61782045D02*
X126788733Y-62353473D01*
X126788733Y-62353473D02*
X126750638Y-62467759D01*
X126750638Y-62467759D02*
X126674447Y-62543950D01*
X126674447Y-62543950D02*
X126560162Y-62582045D01*
X126560162Y-62582045D02*
X126483971Y-62582045D01*
X127093495Y-61782045D02*
X127588733Y-61782045D01*
X127588733Y-61782045D02*
X127322067Y-62086807D01*
X127322067Y-62086807D02*
X127436352Y-62086807D01*
X127436352Y-62086807D02*
X127512543Y-62124902D01*
X127512543Y-62124902D02*
X127550638Y-62162997D01*
X127550638Y-62162997D02*
X127588733Y-62239188D01*
X127588733Y-62239188D02*
X127588733Y-62429664D01*
X127588733Y-62429664D02*
X127550638Y-62505854D01*
X127550638Y-62505854D02*
X127512543Y-62543950D01*
X127512543Y-62543950D02*
X127436352Y-62582045D01*
X127436352Y-62582045D02*
X127207781Y-62582045D01*
X127207781Y-62582045D02*
X127131590Y-62543950D01*
X127131590Y-62543950D02*
X127093495Y-62505854D01*
X147742867Y-66300704D02*
X147704771Y-66338800D01*
X147704771Y-66338800D02*
X147590486Y-66376895D01*
X147590486Y-66376895D02*
X147514295Y-66376895D01*
X147514295Y-66376895D02*
X147400009Y-66338800D01*
X147400009Y-66338800D02*
X147323819Y-66262609D01*
X147323819Y-66262609D02*
X147285724Y-66186419D01*
X147285724Y-66186419D02*
X147247628Y-66034038D01*
X147247628Y-66034038D02*
X147247628Y-65919752D01*
X147247628Y-65919752D02*
X147285724Y-65767371D01*
X147285724Y-65767371D02*
X147323819Y-65691180D01*
X147323819Y-65691180D02*
X147400009Y-65614990D01*
X147400009Y-65614990D02*
X147514295Y-65576895D01*
X147514295Y-65576895D02*
X147590486Y-65576895D01*
X147590486Y-65576895D02*
X147704771Y-65614990D01*
X147704771Y-65614990D02*
X147742867Y-65653085D01*
X148466676Y-65576895D02*
X148085724Y-65576895D01*
X148085724Y-65576895D02*
X148047628Y-65957847D01*
X148047628Y-65957847D02*
X148085724Y-65919752D01*
X148085724Y-65919752D02*
X148161914Y-65881657D01*
X148161914Y-65881657D02*
X148352390Y-65881657D01*
X148352390Y-65881657D02*
X148428581Y-65919752D01*
X148428581Y-65919752D02*
X148466676Y-65957847D01*
X148466676Y-65957847D02*
X148504771Y-66034038D01*
X148504771Y-66034038D02*
X148504771Y-66224514D01*
X148504771Y-66224514D02*
X148466676Y-66300704D01*
X148466676Y-66300704D02*
X148428581Y-66338800D01*
X148428581Y-66338800D02*
X148352390Y-66376895D01*
X148352390Y-66376895D02*
X148161914Y-66376895D01*
X148161914Y-66376895D02*
X148085724Y-66338800D01*
X148085724Y-66338800D02*
X148047628Y-66300704D01*
X145371933Y-58801895D02*
X145371933Y-59373323D01*
X145371933Y-59373323D02*
X145333838Y-59487609D01*
X145333838Y-59487609D02*
X145257647Y-59563800D01*
X145257647Y-59563800D02*
X145143362Y-59601895D01*
X145143362Y-59601895D02*
X145067171Y-59601895D01*
X145714790Y-58878085D02*
X145752886Y-58839990D01*
X145752886Y-58839990D02*
X145829076Y-58801895D01*
X145829076Y-58801895D02*
X146019552Y-58801895D01*
X146019552Y-58801895D02*
X146095743Y-58839990D01*
X146095743Y-58839990D02*
X146133838Y-58878085D01*
X146133838Y-58878085D02*
X146171933Y-58954276D01*
X146171933Y-58954276D02*
X146171933Y-59030466D01*
X146171933Y-59030466D02*
X146133838Y-59144752D01*
X146133838Y-59144752D02*
X145676695Y-59601895D01*
X145676695Y-59601895D02*
X146171933Y-59601895D01*
D11*
%TO.C,C1*%
X134826400Y-67682164D02*
X134826400Y-67897836D01*
X134106400Y-67682164D02*
X134106400Y-67897836D01*
D12*
%TO.C,U1*%
X137590900Y-65856400D02*
X137590900Y-65856400D01*
X137690900Y-65856400D02*
X137690900Y-65856400D01*
X140690900Y-66106400D02*
X143690900Y-66106400D01*
X140690900Y-72606400D02*
X143190900Y-72606400D01*
X137690900Y-65856400D02*
G75*
G03*
X137590900Y-65856400I-50000J0D01*
G01*
X137590900Y-65856400D02*
G75*
G03*
X137690900Y-65856400I50000J0D01*
G01*
D11*
%TO.C,J1*%
X152644800Y-60265000D02*
X153974800Y-60265000D01*
X152644800Y-61595000D02*
X152644800Y-60265000D01*
X152644800Y-62865000D02*
X152644800Y-78165000D01*
X152644800Y-62865000D02*
X155244800Y-62865000D01*
X152644800Y-78165000D02*
X157844800Y-78165000D01*
X155244800Y-60265000D02*
X157844800Y-60265000D01*
X155244800Y-62865000D02*
X155244800Y-60265000D01*
X157844800Y-60265000D02*
X157844800Y-78165000D01*
%TO.C,R1*%
X131669058Y-73166500D02*
X131194542Y-73166500D01*
X131669058Y-72121500D02*
X131194542Y-72121500D01*
%TO.C,C3*%
X136583436Y-68051000D02*
X136367764Y-68051000D01*
X136583436Y-67331000D02*
X136367764Y-67331000D01*
%TO.C,R3*%
X131669058Y-69178700D02*
X131194542Y-69178700D01*
X131669058Y-68133700D02*
X131194542Y-68133700D01*
%TO.C,C2*%
X137315600Y-69284964D02*
X137315600Y-69500636D01*
X136595600Y-69284964D02*
X136595600Y-69500636D01*
%TO.C,R4*%
X131669058Y-67146700D02*
X131194542Y-67146700D01*
X131669058Y-66101700D02*
X131194542Y-66101700D01*
%TO.C,J4*%
X139607600Y-60214200D02*
X139607600Y-61544200D01*
X138277600Y-60214200D02*
X139607600Y-60214200D01*
X137007600Y-60214200D02*
X134407600Y-60214200D01*
X137007600Y-60214200D02*
X137007600Y-62874200D01*
X134407600Y-60214200D02*
X134407600Y-62874200D01*
X137007600Y-62874200D02*
X134407600Y-62874200D01*
%TO.C,C4*%
X136367764Y-70429800D02*
X136583436Y-70429800D01*
X136367764Y-71149800D02*
X136583436Y-71149800D01*
%TO.C,R2*%
X131669058Y-71134500D02*
X131194542Y-71134500D01*
X131669058Y-70089500D02*
X131194542Y-70089500D01*
D13*
%TO.C,J3*%
X111534800Y-63163400D02*
X127634800Y-63163400D01*
X111534800Y-66113400D02*
X111534800Y-63163400D01*
X111534800Y-74663400D02*
X111534800Y-72113400D01*
X127634800Y-63163400D02*
X127634800Y-74663400D01*
X127634800Y-74663400D02*
X111534800Y-74663400D01*
D14*
X113404800Y-62613400D02*
G75*
G03*
X113404800Y-62613400I-170000J0D01*
G01*
D11*
%TO.C,C5*%
X147847164Y-66721400D02*
X148062836Y-66721400D01*
X147847164Y-67441400D02*
X148062836Y-67441400D01*
%TO.C,J2*%
X147684800Y-60214200D02*
X147684800Y-61544200D01*
X146354800Y-60214200D02*
X147684800Y-60214200D01*
X145084800Y-60214200D02*
X142484800Y-60214200D01*
X145084800Y-60214200D02*
X145084800Y-62874200D01*
X142484800Y-60214200D02*
X142484800Y-62874200D01*
X145084800Y-62874200D02*
X142484800Y-62874200D01*
%TD*%
M02*
