M48
; DRILL file {KiCad 7.0.7} date Fri 29 Sep 2023 08:53:57 PM EDT
; FORMAT={-:-/ absolute / inch / decimal}
; #@! TF.CreationDate,2023-09-29T20:53:57-04:00
; #@! TF.GenerationSoftware,Kicad,Pcbnew,7.0.7
; #@! TF.FileFunction,Plated,1,2,PTH
FMAT,2
INCH
; #@! TA.AperFunction,Plated,PTH,ViaDrill
T1C0.0100
; #@! TA.AperFunction,Plated,PTH,ComponentDrill
T2C0.0394
%
G90
G05
T1
X5.325Y-2.665
X5.332Y-2.787
X5.405Y-2.821
X5.765Y-2.6666
X5.765Y-2.8201
X5.845Y-2.664
T2
X5.344Y-2.423
X5.444Y-2.423
X5.662Y-2.423
X5.762Y-2.423
X6.062Y-2.425
X6.062Y-2.525
X6.062Y-2.625
X6.062Y-2.725
X6.062Y-2.825
X6.062Y-2.925
X6.062Y-3.025
X6.162Y-2.425
X6.162Y-2.525
X6.162Y-2.625
X6.162Y-2.725
X6.162Y-2.825
X6.162Y-2.925
X6.162Y-3.025
T2
G00X4.462Y-2.7013
M15
G01X4.462Y-2.7407
M16
G05
G00X4.5801Y-2.8982
M15
G01X4.6195Y-2.8982
M16
G05
G00X4.7691Y-2.5241
M15
G01X4.8085Y-2.5241
M16
G05
T0
M30
