%TF.GenerationSoftware,KiCad,Pcbnew,7.0.7*%
%TF.CreationDate,2023-09-29T20:54:03-04:00*%
%TF.ProjectId,Little_Master_Board,4c697474-6c65-45f4-9d61-737465725f42,B*%
%TF.SameCoordinates,Original*%
%TF.FileFunction,Copper,L1,Top*%
%TF.FilePolarity,Positive*%
%FSLAX46Y46*%
G04 Gerber Fmt 4.6, Leading zero omitted, Abs format (unit mm)*
G04 Created by KiCad (PCBNEW 7.0.7) date 2023-09-29 20:54:03*
%MOMM*%
%LPD*%
G01*
G04 APERTURE LIST*
G04 Aperture macros list*
%AMRoundRect*
0 Rectangle with rounded corners*
0 $1 Rounding radius*
0 $2 $3 $4 $5 $6 $7 $8 $9 X,Y pos of 4 corners*
0 Add a 4 corners polygon primitive as box body*
4,1,4,$2,$3,$4,$5,$6,$7,$8,$9,$2,$3,0*
0 Add four circle primitives for the rounded corners*
1,1,$1+$1,$2,$3*
1,1,$1+$1,$4,$5*
1,1,$1+$1,$6,$7*
1,1,$1+$1,$8,$9*
0 Add four rect primitives between the rounded corners*
20,1,$1+$1,$2,$3,$4,$5,0*
20,1,$1+$1,$4,$5,$6,$7,0*
20,1,$1+$1,$6,$7,$8,$9,0*
20,1,$1+$1,$8,$9,$2,$3,0*%
G04 Aperture macros list end*
%TA.AperFunction,SMDPad,CuDef*%
%ADD10RoundRect,0.140000X-0.170000X0.140000X-0.170000X-0.140000X0.170000X-0.140000X0.170000X0.140000X0*%
%TD*%
%TA.AperFunction,SMDPad,CuDef*%
%ADD11R,1.780000X0.420000*%
%TD*%
%TA.AperFunction,ComponentPad*%
%ADD12R,1.700000X1.700000*%
%TD*%
%TA.AperFunction,ComponentPad*%
%ADD13O,1.700000X1.700000*%
%TD*%
%TA.AperFunction,SMDPad,CuDef*%
%ADD14RoundRect,0.200000X0.200000X0.275000X-0.200000X0.275000X-0.200000X-0.275000X0.200000X-0.275000X0*%
%TD*%
%TA.AperFunction,SMDPad,CuDef*%
%ADD15RoundRect,0.140000X0.140000X0.170000X-0.140000X0.170000X-0.140000X-0.170000X0.140000X-0.170000X0*%
%TD*%
%TA.AperFunction,SMDPad,CuDef*%
%ADD16RoundRect,0.140000X-0.140000X-0.170000X0.140000X-0.170000X0.140000X0.170000X-0.140000X0.170000X0*%
%TD*%
%TA.AperFunction,ComponentPad*%
%ADD17O,1.508000X3.016000*%
%TD*%
%TA.AperFunction,ComponentPad*%
%ADD18O,3.016000X1.508000*%
%TD*%
%TA.AperFunction,ViaPad*%
%ADD19C,0.508000*%
%TD*%
%TA.AperFunction,Conductor*%
%ADD20C,0.254000*%
%TD*%
%TA.AperFunction,Conductor*%
%ADD21C,1.524000*%
%TD*%
G04 APERTURE END LIST*
D10*
%TO.P,C1,1*%
%TO.N,Net-(U1-C1+)*%
X134466400Y-67310000D03*
%TO.P,C1,2*%
%TO.N,Net-(U1-C1-)*%
X134466400Y-68270000D03*
%TD*%
D11*
%TO.P,U1,1,~{EN}*%
%TO.N,/~{EN}*%
X139220900Y-66431400D03*
%TO.P,U1,2,C1+*%
%TO.N,Net-(U1-C1+)*%
X139220900Y-67081400D03*
%TO.P,U1,3,V+*%
%TO.N,Net-(U1-V+)*%
X139220900Y-67731400D03*
%TO.P,U1,4,C1-*%
%TO.N,Net-(U1-C1-)*%
X139220900Y-68381400D03*
%TO.P,U1,5,C2+*%
%TO.N,Net-(U1-C2+)*%
X139220900Y-69031400D03*
%TO.P,U1,6,C2-*%
%TO.N,Net-(U1-C2-)*%
X139220900Y-69681400D03*
%TO.P,U1,7,V-*%
%TO.N,Net-(U1-V-)*%
X139220900Y-70331400D03*
%TO.P,U1,8,T2OUT*%
%TO.N,unconnected-(U1-T2OUT-Pad8)*%
X139220900Y-70981400D03*
%TO.P,U1,9,R2IN*%
%TO.N,GND*%
X139220900Y-71631400D03*
%TO.P,U1,10,R2OUT*%
%TO.N,unconnected-(U1-R2OUT-Pad10)*%
X139220900Y-72281400D03*
%TO.P,U1,11,N.C._1*%
%TO.N,unconnected-(U1-N.C._1-Pad11)*%
X145160900Y-72281400D03*
%TO.P,U1,12,T2IN*%
%TO.N,GND*%
X145160900Y-71631400D03*
%TO.P,U1,13,T1IN*%
%TO.N,/T1IN*%
X145160900Y-70981400D03*
%TO.P,U1,14,N.C._2*%
%TO.N,unconnected-(U1-N.C._2-Pad14)*%
X145160900Y-70331400D03*
%TO.P,U1,15,R1OUT*%
%TO.N,/R1OUT*%
X145160900Y-69681400D03*
%TO.P,U1,16,R1IN*%
%TO.N,/R1IN*%
X145160900Y-69031400D03*
%TO.P,U1,17,T1OUT*%
%TO.N,/T1OUT*%
X145160900Y-68381400D03*
%TO.P,U1,18,GND*%
%TO.N,GND*%
X145160900Y-67731400D03*
%TO.P,U1,19,VCC*%
%TO.N,VCC*%
X145160900Y-67081400D03*
%TO.P,U1,20,~{SHDN}*%
X145160900Y-66431400D03*
%TD*%
D12*
%TO.P,J1,1,Pin_1*%
%TO.N,Net-(J1-Pin_1)*%
X153974800Y-61595000D03*
D13*
%TO.P,J1,2,Pin_2*%
%TO.N,Net-(J1-Pin_2)*%
X153974800Y-64135000D03*
%TO.P,J1,3,Pin_3*%
%TO.N,/T1IN*%
X153974800Y-66675000D03*
%TO.P,J1,4,Pin_4*%
%TO.N,/R1OUT*%
X153974800Y-69215000D03*
%TO.P,J1,5,Pin_5*%
%TO.N,/~{EN}*%
X153974800Y-71755000D03*
%TO.P,J1,6,Pin_6*%
%TO.N,VCC*%
X153974800Y-74295000D03*
%TO.P,J1,7,Pin_7*%
X153974800Y-76835000D03*
%TO.P,J1,8,Pin_8*%
%TO.N,GND*%
X156514800Y-76835000D03*
%TO.P,J1,9,Pin_9*%
X156514800Y-74295000D03*
%TO.P,J1,10,Pin_10*%
X156514800Y-71755000D03*
%TO.P,J1,11,Pin_11*%
X156514800Y-69215000D03*
%TO.P,J1,12,Pin_12*%
X156514800Y-66675000D03*
%TO.P,J1,13,Pin_13*%
X156514800Y-64135000D03*
%TO.P,J1,14,Pin_14*%
X156514800Y-61595000D03*
%TD*%
D14*
%TO.P,R1,1*%
%TO.N,/T1OUT*%
X132256800Y-72644000D03*
%TO.P,R1,2*%
%TO.N,Net-(J3-Pin_2)*%
X130606800Y-72644000D03*
%TD*%
D15*
%TO.P,C3,1*%
%TO.N,Net-(U1-V+)*%
X136955600Y-67691000D03*
%TO.P,C3,2*%
%TO.N,GND*%
X135995600Y-67691000D03*
%TD*%
D14*
%TO.P,R3,1*%
%TO.N,/T1OUT*%
X132256800Y-68656200D03*
%TO.P,R3,2*%
%TO.N,Net-(J3-Pin_3)*%
X130606800Y-68656200D03*
%TD*%
D10*
%TO.P,C2,1*%
%TO.N,Net-(U1-C2+)*%
X136955600Y-68912800D03*
%TO.P,C2,2*%
%TO.N,Net-(U1-C2-)*%
X136955600Y-69872800D03*
%TD*%
D14*
%TO.P,R4,1*%
%TO.N,/R1IN*%
X132256800Y-66624200D03*
%TO.P,R4,2*%
%TO.N,Net-(J3-Pin_3)*%
X130606800Y-66624200D03*
%TD*%
D12*
%TO.P,J4,1,Pin_1*%
%TO.N,Net-(J1-Pin_2)*%
X138277600Y-61544200D03*
D13*
%TO.P,J4,2,Pin_2*%
%TO.N,GND*%
X135737600Y-61544200D03*
%TD*%
D16*
%TO.P,C4,1*%
%TO.N,GND*%
X135995600Y-70789800D03*
%TO.P,C4,2*%
%TO.N,Net-(U1-V-)*%
X136955600Y-70789800D03*
%TD*%
D14*
%TO.P,R2,1*%
%TO.N,/R1IN*%
X132256800Y-70612000D03*
%TO.P,R2,2*%
%TO.N,Net-(J3-Pin_2)*%
X130606800Y-70612000D03*
%TD*%
D17*
%TO.P,J3,1,Pin_1*%
%TO.N,GND*%
X113334800Y-69113400D03*
D18*
%TO.P,J3,2,Pin_2*%
%TO.N,Net-(J3-Pin_2)*%
X116834800Y-73613400D03*
%TO.P,J3,3,Pin_3*%
%TO.N,Net-(J3-Pin_3)*%
X121634800Y-64113400D03*
%TD*%
D16*
%TO.P,C5,1*%
%TO.N,VCC*%
X147475000Y-67081400D03*
%TO.P,C5,2*%
%TO.N,GND*%
X148435000Y-67081400D03*
%TD*%
D12*
%TO.P,J2,1,Pin_1*%
%TO.N,Net-(J1-Pin_1)*%
X146354800Y-61544200D03*
D13*
%TO.P,J2,2,Pin_2*%
%TO.N,GND*%
X143814800Y-61544200D03*
%TD*%
D19*
%TO.N,GND*%
X137285800Y-71653400D03*
X148463000Y-67665600D03*
X146431000Y-71631400D03*
X135253800Y-67691000D03*
X135431600Y-70789800D03*
X146431000Y-67731400D03*
%TD*%
D20*
%TO.N,VCC*%
X145160900Y-66431400D02*
X145160900Y-67081400D01*
%TO.N,/~{EN}*%
X155371800Y-60733200D02*
X155371800Y-65836800D01*
X155371800Y-65836800D02*
X155371800Y-66068387D01*
X153974800Y-71755000D02*
X155385400Y-70344400D01*
X155385400Y-70344400D02*
X155385400Y-65850400D01*
X155385400Y-65850400D02*
X155371800Y-65836800D01*
X139220900Y-66431400D02*
X137449800Y-66431400D01*
X133883400Y-60375800D02*
X134518400Y-59740800D01*
X154379400Y-59740800D02*
X155371800Y-60733200D01*
X137449800Y-66431400D02*
X133883400Y-62865000D01*
X133883400Y-62865000D02*
X133883400Y-60375800D01*
X134518400Y-59740800D02*
X154379400Y-59740800D01*
%TO.N,Net-(U1-C1+)*%
X134695000Y-67081400D02*
X134466400Y-67310000D01*
X138483100Y-67081400D02*
X134695000Y-67081400D01*
%TO.N,Net-(U1-C1-)*%
X139119900Y-68280400D02*
X139220900Y-68381400D01*
X134466400Y-68270000D02*
X134476800Y-68280400D01*
X134476800Y-68280400D02*
X138382100Y-68280400D01*
%TO.N,Net-(U1-C2+)*%
X138483100Y-69031400D02*
X137074200Y-69031400D01*
X137074200Y-69031400D02*
X136955600Y-68912800D01*
%TO.N,Net-(U1-C2-)*%
X139220900Y-69681400D02*
X137147000Y-69681400D01*
X137147000Y-69681400D02*
X136955600Y-69872800D01*
%TO.N,Net-(U1-V+)*%
X136955600Y-67691000D02*
X138442700Y-67691000D01*
X139180500Y-67691000D02*
X139220900Y-67731400D01*
%TO.N,GND*%
X148435000Y-67637600D02*
X148463000Y-67665600D01*
X137307800Y-71631400D02*
X137285800Y-71653400D01*
X146431000Y-71631400D02*
X145160900Y-71631400D01*
X148435000Y-67081400D02*
X148435000Y-67637600D01*
X139220900Y-71631400D02*
X138045600Y-71631400D01*
X139220900Y-71631400D02*
X137307800Y-71631400D01*
X135253800Y-67691000D02*
X135995600Y-67691000D01*
X146431000Y-67731400D02*
X145160900Y-67731400D01*
X135995600Y-70789800D02*
X135431600Y-70789800D01*
%TO.N,Net-(U1-V-)*%
X136955600Y-70789800D02*
X137414000Y-70331400D01*
X137414000Y-70331400D02*
X139220900Y-70331400D01*
%TO.N,VCC*%
X153974800Y-74295000D02*
X147475000Y-67795200D01*
D21*
X153974800Y-74295000D02*
X153974800Y-76835000D01*
D20*
X147475000Y-67081400D02*
X145160900Y-67081400D01*
X147475000Y-67795200D02*
X147475000Y-67081400D01*
%TO.N,Net-(J1-Pin_1)*%
X153974800Y-61595000D02*
X148442600Y-61595000D01*
X146405600Y-61595000D02*
X146354800Y-61544200D01*
X153974800Y-61595000D02*
X146405600Y-61595000D01*
X148442600Y-61595000D02*
X148417200Y-61569600D01*
%TO.N,/R1OUT*%
X143900200Y-69681400D02*
X145160900Y-69681400D01*
X143357600Y-69138800D02*
X143900200Y-69681400D01*
X149860000Y-65100200D02*
X143840200Y-65100200D01*
X143357600Y-65582800D02*
X143357600Y-69138800D01*
X153974800Y-69215000D02*
X149860000Y-65100200D01*
X143840200Y-65100200D02*
X143357600Y-65582800D01*
%TO.N,/T1IN*%
X151993600Y-64693800D02*
X143383000Y-64693800D01*
X143383000Y-64693800D02*
X142748000Y-65328800D01*
X142748000Y-65328800D02*
X142748000Y-69712500D01*
X153974800Y-66675000D02*
X151993600Y-64693800D01*
X144016900Y-70981400D02*
X145160900Y-70981400D01*
X142748000Y-69712500D02*
X144016900Y-70981400D01*
%TO.N,/~{EN}*%
X153974800Y-71718079D02*
X153974800Y-71755000D01*
%TO.N,Net-(J1-Pin_2)*%
X153974800Y-64135000D02*
X140893800Y-64135000D01*
X140893800Y-64135000D02*
X138277600Y-61518800D01*
%TO.N,Net-(J3-Pin_3)*%
X130606800Y-68656200D02*
X130606800Y-66624200D01*
X128096000Y-64113400D02*
X121634800Y-64113400D01*
X130606800Y-66624200D02*
X128096000Y-64113400D01*
%TO.N,/R1IN*%
X146221100Y-72880000D02*
X147167600Y-71933500D01*
X146304900Y-69031400D02*
X145160900Y-69031400D01*
X147167600Y-69894100D02*
X146304900Y-69031400D01*
X132256800Y-66624200D02*
X131577400Y-67303600D01*
X131577400Y-69932600D02*
X132256800Y-70612000D01*
X134271800Y-72880000D02*
X146221100Y-72880000D01*
X132256800Y-66624200D02*
X133342600Y-67710000D01*
X133342600Y-71950800D02*
X134271800Y-72880000D01*
X131577400Y-67303600D02*
X131577400Y-69932600D01*
X147167600Y-71933500D02*
X147167600Y-69894100D01*
X133342600Y-67710000D02*
X133342600Y-71950800D01*
%TO.N,/T1OUT*%
X146257800Y-68381400D02*
X147599400Y-69723000D01*
X132256800Y-68656200D02*
X132936200Y-69335600D01*
X132993400Y-73380600D02*
X132256800Y-72644000D01*
X132936200Y-71964600D02*
X132256800Y-72644000D01*
X147599400Y-69723000D02*
X147599400Y-72076436D01*
X146295236Y-73380600D02*
X132993400Y-73380600D01*
X145160900Y-68381400D02*
X146257800Y-68381400D01*
X147599400Y-72076436D02*
X146295236Y-73380600D01*
X132936200Y-69335600D02*
X132936200Y-71964600D01*
%TO.N,Net-(J3-Pin_2)*%
X129637400Y-73613400D02*
X130606800Y-72644000D01*
X130606800Y-70612000D02*
X130606800Y-72644000D01*
X116834800Y-73613400D02*
X129637400Y-73613400D01*
%TD*%
%TA.AperFunction,Conductor*%
%TO.N,GND*%
G36*
X136088139Y-68927585D02*
G01*
X136133894Y-68980389D01*
X136145100Y-69031900D01*
X136145100Y-69117492D01*
X136147956Y-69153791D01*
X136147957Y-69153797D01*
X136193104Y-69309191D01*
X136193106Y-69309197D01*
X136205220Y-69329680D01*
X136222401Y-69397404D01*
X136205220Y-69455920D01*
X136193106Y-69476402D01*
X136193104Y-69476408D01*
X136147957Y-69631802D01*
X136147956Y-69631808D01*
X136145100Y-69668108D01*
X136145100Y-70077492D01*
X136147956Y-70113791D01*
X136147957Y-70113797D01*
X136193104Y-70269190D01*
X136193104Y-70269191D01*
X136193105Y-70269193D01*
X136193106Y-70269195D01*
X136199724Y-70280386D01*
X136204263Y-70288060D01*
X136221444Y-70355784D01*
X136216606Y-70385775D01*
X136177957Y-70518802D01*
X136177956Y-70518808D01*
X136175100Y-70555108D01*
X136175100Y-71024492D01*
X136177956Y-71060791D01*
X136177957Y-71060797D01*
X136223104Y-71216190D01*
X136223105Y-71216193D01*
X136305481Y-71355484D01*
X136305487Y-71355492D01*
X136419907Y-71469912D01*
X136419911Y-71469915D01*
X136419913Y-71469917D01*
X136559205Y-71552294D01*
X136600187Y-71564200D01*
X136714602Y-71597442D01*
X136714605Y-71597442D01*
X136714607Y-71597443D01*
X136726707Y-71598395D01*
X136750908Y-71600300D01*
X136750910Y-71600300D01*
X137160292Y-71600300D01*
X137178441Y-71598871D01*
X137196593Y-71597443D01*
X137196595Y-71597442D01*
X137196597Y-71597442D01*
X137254212Y-71580703D01*
X137351995Y-71552294D01*
X137491287Y-71469917D01*
X137605717Y-71355487D01*
X137628204Y-71317462D01*
X137679271Y-71269780D01*
X137748013Y-71257274D01*
X137812602Y-71283919D01*
X137851118Y-71337249D01*
X137887103Y-71433730D01*
X137978669Y-71556046D01*
X137975963Y-71558071D01*
X138001611Y-71605042D01*
X137996627Y-71674734D01*
X137976905Y-71705435D01*
X137978668Y-71706755D01*
X137887106Y-71829064D01*
X137887102Y-71829071D01*
X137836808Y-71963917D01*
X137833960Y-71990413D01*
X137830401Y-72023523D01*
X137830400Y-72023535D01*
X137830400Y-72128500D01*
X137810715Y-72195539D01*
X137757911Y-72241294D01*
X137706400Y-72252500D01*
X134583081Y-72252500D01*
X134516042Y-72232815D01*
X134495400Y-72216181D01*
X134006418Y-71727199D01*
X133972933Y-71665876D01*
X133970099Y-71639518D01*
X133970099Y-70341663D01*
X133970099Y-69147333D01*
X133989784Y-69080298D01*
X134042588Y-69034543D01*
X134111746Y-69024599D01*
X134128693Y-69028260D01*
X134195407Y-69047643D01*
X134207507Y-69048595D01*
X134231708Y-69050500D01*
X134231710Y-69050500D01*
X134701092Y-69050500D01*
X134719241Y-69049071D01*
X134737393Y-69047643D01*
X134737395Y-69047642D01*
X134737397Y-69047642D01*
X134804105Y-69028261D01*
X134892795Y-69002494D01*
X134986836Y-68946877D01*
X135023547Y-68925168D01*
X135086668Y-68907900D01*
X136021100Y-68907900D01*
X136088139Y-68927585D01*
G37*
%TD.AperFunction*%
%TA.AperFunction,Conductor*%
G36*
X136903419Y-60387985D02*
G01*
X136949174Y-60440789D01*
X136959118Y-60509947D01*
X136952562Y-60535633D01*
X136933508Y-60586717D01*
X136928047Y-60637517D01*
X136927101Y-60646323D01*
X136927100Y-60646335D01*
X136927100Y-62442070D01*
X136927101Y-62442076D01*
X136933508Y-62501683D01*
X136983802Y-62636528D01*
X136983806Y-62636535D01*
X137070052Y-62751744D01*
X137070055Y-62751747D01*
X137185264Y-62837993D01*
X137185271Y-62837997D01*
X137320117Y-62888291D01*
X137320116Y-62888291D01*
X137324786Y-62888793D01*
X137379727Y-62894700D01*
X138714718Y-62894699D01*
X138781757Y-62914384D01*
X138802399Y-62931018D01*
X140391424Y-64520043D01*
X140401271Y-64532333D01*
X140401489Y-64532154D01*
X140406457Y-64538160D01*
X140457057Y-64585677D01*
X140478005Y-64606624D01*
X140483506Y-64610891D01*
X140487945Y-64614682D01*
X140522033Y-64646693D01*
X140539684Y-64656396D01*
X140555934Y-64667071D01*
X140571838Y-64679408D01*
X140571841Y-64679410D01*
X140614742Y-64697974D01*
X140619990Y-64700544D01*
X140660966Y-64723072D01*
X140680040Y-64727969D01*
X140680460Y-64728077D01*
X140698864Y-64734377D01*
X140717342Y-64742374D01*
X140760838Y-64749262D01*
X140763524Y-64749688D01*
X140769229Y-64750869D01*
X140814528Y-64762500D01*
X140834658Y-64762500D01*
X140854057Y-64764027D01*
X140873933Y-64767175D01*
X140916579Y-64763143D01*
X140920479Y-64762775D01*
X140926317Y-64762500D01*
X142134280Y-64762500D01*
X142201319Y-64782185D01*
X142247074Y-64834989D01*
X142257018Y-64904147D01*
X142238642Y-64949417D01*
X142240064Y-64950199D01*
X142226606Y-64974677D01*
X142215928Y-64990933D01*
X142203594Y-65006834D01*
X142203589Y-65006842D01*
X142185025Y-65049743D01*
X142182454Y-65054991D01*
X142159927Y-65095967D01*
X142154920Y-65115468D01*
X142148621Y-65133864D01*
X142141893Y-65149412D01*
X142140625Y-65152344D01*
X142140624Y-65152346D01*
X142133312Y-65198516D01*
X142132127Y-65204238D01*
X142120500Y-65249523D01*
X142120500Y-65269658D01*
X142118973Y-65289057D01*
X142115825Y-65308931D01*
X142120225Y-65355477D01*
X142120500Y-65361315D01*
X142120500Y-69629532D01*
X142118772Y-69645181D01*
X142119054Y-69645208D01*
X142118319Y-69652975D01*
X142120500Y-69722359D01*
X142120500Y-69751977D01*
X142121371Y-69758880D01*
X142121829Y-69764699D01*
X142123298Y-69811442D01*
X142128916Y-69830775D01*
X142132862Y-69849829D01*
X142135383Y-69869787D01*
X142135386Y-69869799D01*
X142152595Y-69913265D01*
X142154487Y-69918793D01*
X142167530Y-69963687D01*
X142167530Y-69963688D01*
X142177777Y-69981015D01*
X142186335Y-69998485D01*
X142193745Y-70017201D01*
X142221229Y-70055029D01*
X142224437Y-70059913D01*
X142248234Y-70100152D01*
X142248240Y-70100160D01*
X142262469Y-70114388D01*
X142275109Y-70129187D01*
X142286934Y-70145464D01*
X142286936Y-70145465D01*
X142286937Y-70145467D01*
X142322957Y-70175265D01*
X142327268Y-70179187D01*
X142929222Y-70781141D01*
X143514524Y-71366443D01*
X143524371Y-71378733D01*
X143524589Y-71378554D01*
X143529557Y-71384560D01*
X143580157Y-71432077D01*
X143595198Y-71447117D01*
X143601105Y-71453024D01*
X143606606Y-71457291D01*
X143611045Y-71461082D01*
X143645133Y-71493093D01*
X143662784Y-71502796D01*
X143679034Y-71513471D01*
X143689878Y-71521883D01*
X143694938Y-71525808D01*
X143694941Y-71525810D01*
X143737842Y-71544374D01*
X143743090Y-71546944D01*
X143784066Y-71569472D01*
X143799408Y-71573411D01*
X143803560Y-71574477D01*
X143821791Y-71580703D01*
X143821914Y-71580756D01*
X143875692Y-71625363D01*
X143896816Y-71691962D01*
X143878581Y-71759410D01*
X143872112Y-71768944D01*
X143827106Y-71829064D01*
X143827102Y-71829071D01*
X143776808Y-71963917D01*
X143773960Y-71990413D01*
X143770401Y-72023523D01*
X143770400Y-72023535D01*
X143770400Y-72128500D01*
X143750715Y-72195539D01*
X143697911Y-72241294D01*
X143646400Y-72252500D01*
X140735399Y-72252500D01*
X140668360Y-72232815D01*
X140622605Y-72180011D01*
X140611399Y-72128500D01*
X140611399Y-72023529D01*
X140611398Y-72023523D01*
X140611397Y-72023516D01*
X140604991Y-71963917D01*
X140593762Y-71933811D01*
X140554697Y-71829071D01*
X140554696Y-71829070D01*
X140554696Y-71829069D01*
X140468446Y-71713854D01*
X140463131Y-71706754D01*
X140465843Y-71704723D01*
X140440200Y-71657816D01*
X140445151Y-71588122D01*
X140464909Y-71557377D01*
X140463131Y-71556046D01*
X140470999Y-71545536D01*
X140554696Y-71433731D01*
X140604991Y-71298883D01*
X140611400Y-71239273D01*
X140611399Y-70723528D01*
X140605607Y-70669647D01*
X140605608Y-70643145D01*
X140606004Y-70639453D01*
X140611400Y-70589273D01*
X140611399Y-70073528D01*
X140605607Y-70019647D01*
X140605608Y-69993145D01*
X140606912Y-69981015D01*
X140611400Y-69939273D01*
X140611399Y-69423528D01*
X140605607Y-69369647D01*
X140605608Y-69343145D01*
X140606447Y-69335344D01*
X140611400Y-69289273D01*
X140611399Y-68773528D01*
X140605607Y-68719647D01*
X140605608Y-68693145D01*
X140606004Y-68689453D01*
X140611400Y-68639273D01*
X140611399Y-68123528D01*
X140605607Y-68069647D01*
X140605608Y-68043145D01*
X140606004Y-68039453D01*
X140611400Y-67989273D01*
X140611399Y-67473528D01*
X140605607Y-67419647D01*
X140605608Y-67393145D01*
X140606004Y-67389453D01*
X140611400Y-67339273D01*
X140611399Y-66823528D01*
X140605607Y-66769647D01*
X140605608Y-66743145D01*
X140606004Y-66739453D01*
X140611400Y-66689273D01*
X140611399Y-66173528D01*
X140604991Y-66113917D01*
X140584729Y-66059593D01*
X140554697Y-65979071D01*
X140554693Y-65979064D01*
X140468447Y-65863855D01*
X140468444Y-65863852D01*
X140353235Y-65777606D01*
X140353228Y-65777602D01*
X140218382Y-65727308D01*
X140218383Y-65727308D01*
X140158783Y-65720901D01*
X140158781Y-65720900D01*
X140158773Y-65720900D01*
X140158764Y-65720900D01*
X138283029Y-65720900D01*
X138283023Y-65720901D01*
X138223416Y-65727308D01*
X138088571Y-65777602D01*
X138088564Y-65777606D01*
X138086480Y-65779167D01*
X138084040Y-65780076D01*
X138080786Y-65781854D01*
X138080530Y-65781386D01*
X138021016Y-65803584D01*
X138012170Y-65803900D01*
X137761081Y-65803900D01*
X137694042Y-65784215D01*
X137673400Y-65767581D01*
X134547219Y-62641400D01*
X134513734Y-62580077D01*
X134510900Y-62553719D01*
X134510900Y-60687080D01*
X134530585Y-60620041D01*
X134547214Y-60599404D01*
X134742000Y-60404618D01*
X134803323Y-60371134D01*
X134829681Y-60368300D01*
X136836380Y-60368300D01*
X136903419Y-60387985D01*
G37*
%TD.AperFunction*%
%TA.AperFunction,Conductor*%
G36*
X149615758Y-65747385D02*
G01*
X149636400Y-65764019D01*
X152633964Y-68761583D01*
X152667449Y-68822906D01*
X152666058Y-68881356D01*
X152639739Y-68979583D01*
X152639736Y-68979596D01*
X152619141Y-69214999D01*
X152619141Y-69215000D01*
X152639736Y-69450403D01*
X152639738Y-69450413D01*
X152700894Y-69678655D01*
X152700896Y-69678659D01*
X152700897Y-69678663D01*
X152780713Y-69849829D01*
X152800765Y-69892830D01*
X152800767Y-69892834D01*
X152887852Y-70017203D01*
X152930065Y-70077490D01*
X152936301Y-70086395D01*
X152936306Y-70086402D01*
X153103397Y-70253493D01*
X153103403Y-70253498D01*
X153288958Y-70383425D01*
X153332583Y-70438002D01*
X153339777Y-70507500D01*
X153308254Y-70569855D01*
X153288958Y-70586575D01*
X153103397Y-70716505D01*
X152936305Y-70883597D01*
X152800765Y-71077169D01*
X152800764Y-71077171D01*
X152700898Y-71291335D01*
X152700894Y-71291344D01*
X152639738Y-71519586D01*
X152639736Y-71519596D01*
X152618669Y-71760394D01*
X152616886Y-71760238D01*
X152599456Y-71819599D01*
X152546652Y-71865354D01*
X152477494Y-71875298D01*
X152413938Y-71846273D01*
X152407460Y-71840241D01*
X148226274Y-67659055D01*
X148192789Y-67597732D01*
X148197773Y-67528040D01*
X148207223Y-67508253D01*
X148207494Y-67507795D01*
X148252643Y-67352393D01*
X148255500Y-67316090D01*
X148255500Y-66846710D01*
X148252643Y-66810407D01*
X148240803Y-66769655D01*
X148219400Y-66695987D01*
X148207494Y-66655005D01*
X148125117Y-66515713D01*
X148125115Y-66515711D01*
X148125112Y-66515707D01*
X148010692Y-66401287D01*
X148010684Y-66401281D01*
X147909356Y-66341356D01*
X147871395Y-66318906D01*
X147871394Y-66318905D01*
X147871393Y-66318905D01*
X147871390Y-66318904D01*
X147715997Y-66273757D01*
X147715991Y-66273756D01*
X147679692Y-66270900D01*
X147679690Y-66270900D01*
X147270310Y-66270900D01*
X147270308Y-66270900D01*
X147234008Y-66273756D01*
X147234002Y-66273757D01*
X147078609Y-66318904D01*
X147078606Y-66318905D01*
X146939315Y-66401281D01*
X146939307Y-66401287D01*
X146923014Y-66417581D01*
X146861691Y-66451066D01*
X146835333Y-66453900D01*
X146675400Y-66453900D01*
X146608361Y-66434215D01*
X146562606Y-66381411D01*
X146551400Y-66329901D01*
X146551399Y-66173530D01*
X146551398Y-66173523D01*
X146544991Y-66113916D01*
X146494697Y-65979071D01*
X146494695Y-65979068D01*
X146457473Y-65929346D01*
X146454976Y-65926010D01*
X146430559Y-65860548D01*
X146445410Y-65792275D01*
X146494815Y-65742869D01*
X146554243Y-65727700D01*
X149548719Y-65727700D01*
X149615758Y-65747385D01*
G37*
%TD.AperFunction*%
%TA.AperFunction,Conductor*%
G36*
X144980619Y-60387985D02*
G01*
X145026374Y-60440789D01*
X145036318Y-60509947D01*
X145029762Y-60535633D01*
X145010708Y-60586717D01*
X145005247Y-60637517D01*
X145004301Y-60646323D01*
X145004300Y-60646335D01*
X145004300Y-62442070D01*
X145004301Y-62442076D01*
X145010708Y-62501683D01*
X145061002Y-62636528D01*
X145061006Y-62636535D01*
X145147252Y-62751744D01*
X145147255Y-62751747D01*
X145262464Y-62837993D01*
X145262471Y-62837997D01*
X145397317Y-62888291D01*
X145397316Y-62888291D01*
X145401986Y-62888793D01*
X145456927Y-62894700D01*
X147252672Y-62894699D01*
X147312283Y-62888291D01*
X147447131Y-62837996D01*
X147562346Y-62751746D01*
X147648596Y-62636531D01*
X147698891Y-62501683D01*
X147705300Y-62442073D01*
X147705300Y-62346500D01*
X147724985Y-62279461D01*
X147777789Y-62233706D01*
X147829300Y-62222500D01*
X148363328Y-62222500D01*
X148383458Y-62222500D01*
X148402855Y-62224026D01*
X148422733Y-62227175D01*
X148465379Y-62223143D01*
X148469279Y-62222775D01*
X148475117Y-62222500D01*
X152500301Y-62222500D01*
X152567340Y-62242185D01*
X152613095Y-62294989D01*
X152624301Y-62346500D01*
X152624301Y-62492876D01*
X152630708Y-62552483D01*
X152681002Y-62687328D01*
X152681006Y-62687335D01*
X152767252Y-62802544D01*
X152767255Y-62802547D01*
X152882464Y-62888793D01*
X152882471Y-62888797D01*
X153013881Y-62937810D01*
X153069815Y-62979681D01*
X153094232Y-63045145D01*
X153079380Y-63113418D01*
X153058230Y-63141673D01*
X152936303Y-63263600D01*
X152802549Y-63454623D01*
X152747972Y-63498248D01*
X152700974Y-63507500D01*
X141205081Y-63507500D01*
X141138042Y-63487815D01*
X141117400Y-63471181D01*
X139664418Y-62018199D01*
X139630933Y-61956876D01*
X139628099Y-61930518D01*
X139628099Y-60646329D01*
X139628098Y-60646323D01*
X139628097Y-60646316D01*
X139621691Y-60586717D01*
X139617661Y-60575913D01*
X139602638Y-60535633D01*
X139597654Y-60465942D01*
X139631139Y-60404619D01*
X139692462Y-60371134D01*
X139718820Y-60368300D01*
X144913580Y-60368300D01*
X144980619Y-60387985D01*
G37*
%TD.AperFunction*%
%TA.AperFunction,Conductor*%
G36*
X157930539Y-58236985D02*
G01*
X157976294Y-58289789D01*
X157987500Y-58341300D01*
X157987500Y-79834700D01*
X157967815Y-79901739D01*
X157915011Y-79947494D01*
X157863500Y-79958700D01*
X111833700Y-79958700D01*
X111766661Y-79939015D01*
X111720906Y-79886211D01*
X111709700Y-79834700D01*
X111709700Y-73669906D01*
X114822496Y-73669906D01*
X114822497Y-73669910D01*
X114852809Y-73893681D01*
X114852810Y-73893684D01*
X114922589Y-74108444D01*
X115029594Y-74307291D01*
X115029596Y-74307294D01*
X115170386Y-74483839D01*
X115340439Y-74632411D01*
X115340440Y-74632412D01*
X115340443Y-74632414D01*
X115534293Y-74748234D01*
X115745707Y-74827580D01*
X115745708Y-74827580D01*
X115967890Y-74867900D01*
X115967893Y-74867900D01*
X117645137Y-74867900D01*
X117645143Y-74867900D01*
X117803243Y-74853670D01*
X117813706Y-74852729D01*
X118031370Y-74792658D01*
X118031375Y-74792655D01*
X118031382Y-74792654D01*
X118234833Y-74694677D01*
X118417521Y-74561947D01*
X118573572Y-74398730D01*
X118640994Y-74296589D01*
X118694355Y-74251484D01*
X118744482Y-74240900D01*
X129554433Y-74240900D01*
X129570081Y-74242627D01*
X129570108Y-74242346D01*
X129577875Y-74243080D01*
X129577876Y-74243079D01*
X129577877Y-74243080D01*
X129647260Y-74240900D01*
X129676876Y-74240900D01*
X129683778Y-74240027D01*
X129689590Y-74239569D01*
X129736343Y-74238101D01*
X129755672Y-74232484D01*
X129774728Y-74228537D01*
X129794693Y-74226016D01*
X129838170Y-74208801D01*
X129843676Y-74206916D01*
X129888591Y-74193868D01*
X129905915Y-74183621D01*
X129923383Y-74175063D01*
X129942103Y-74167653D01*
X129979942Y-74140159D01*
X129984791Y-74136974D01*
X130025056Y-74113163D01*
X130039297Y-74098920D01*
X130054078Y-74086297D01*
X130070367Y-74074463D01*
X130070369Y-74074459D01*
X130070371Y-74074459D01*
X130082676Y-74059583D01*
X130100176Y-74038428D01*
X130104089Y-74034128D01*
X130482399Y-73655819D01*
X130543723Y-73622334D01*
X130570081Y-73619500D01*
X130863413Y-73619500D01*
X130863416Y-73619500D01*
X130933996Y-73613086D01*
X131096406Y-73562478D01*
X131241985Y-73474472D01*
X131292860Y-73423597D01*
X131344119Y-73372339D01*
X131405442Y-73338854D01*
X131475134Y-73343838D01*
X131519481Y-73372339D01*
X131621611Y-73474469D01*
X131621613Y-73474470D01*
X131621615Y-73474472D01*
X131767194Y-73562478D01*
X131929604Y-73613086D01*
X132000184Y-73619500D01*
X132293519Y-73619500D01*
X132360558Y-73639185D01*
X132381200Y-73655819D01*
X132491024Y-73765643D01*
X132500871Y-73777933D01*
X132501089Y-73777754D01*
X132506057Y-73783760D01*
X132556657Y-73831277D01*
X132577601Y-73852220D01*
X132577607Y-73852226D01*
X132583097Y-73856483D01*
X132587548Y-73860284D01*
X132621635Y-73892295D01*
X132621637Y-73892296D01*
X132639267Y-73901987D01*
X132655535Y-73912672D01*
X132671438Y-73925008D01*
X132714345Y-73943575D01*
X132719581Y-73946139D01*
X132744489Y-73959833D01*
X132760558Y-73968668D01*
X132760560Y-73968669D01*
X132760566Y-73968672D01*
X132779640Y-73973569D01*
X132780060Y-73973677D01*
X132798464Y-73979977D01*
X132816942Y-73987974D01*
X132860438Y-73994862D01*
X132863124Y-73995288D01*
X132868829Y-73996469D01*
X132914128Y-74008100D01*
X132934258Y-74008100D01*
X132953657Y-74009627D01*
X132973533Y-74012775D01*
X133016179Y-74008743D01*
X133020079Y-74008375D01*
X133025917Y-74008100D01*
X146212269Y-74008100D01*
X146227917Y-74009827D01*
X146227944Y-74009546D01*
X146235711Y-74010280D01*
X146235712Y-74010279D01*
X146235713Y-74010280D01*
X146305096Y-74008100D01*
X146334712Y-74008100D01*
X146341614Y-74007227D01*
X146347426Y-74006769D01*
X146394179Y-74005301D01*
X146413508Y-73999684D01*
X146432564Y-73995737D01*
X146452529Y-73993216D01*
X146496006Y-73976001D01*
X146501512Y-73974116D01*
X146546427Y-73961068D01*
X146563751Y-73950821D01*
X146581219Y-73942263D01*
X146599939Y-73934853D01*
X146637778Y-73907359D01*
X146642627Y-73904174D01*
X146682892Y-73880363D01*
X146697133Y-73866120D01*
X146711914Y-73853497D01*
X146728203Y-73841663D01*
X146728205Y-73841659D01*
X146728207Y-73841659D01*
X146740081Y-73827303D01*
X146758012Y-73805628D01*
X146761925Y-73801328D01*
X147984443Y-72578810D01*
X147996725Y-72568973D01*
X147996544Y-72568754D01*
X148002552Y-72563782D01*
X148002562Y-72563776D01*
X148050077Y-72513177D01*
X148071023Y-72492232D01*
X148075292Y-72486726D01*
X148079076Y-72482295D01*
X148111093Y-72448203D01*
X148120789Y-72430564D01*
X148131473Y-72414297D01*
X148143808Y-72398398D01*
X148162378Y-72355482D01*
X148164934Y-72350263D01*
X148187472Y-72309270D01*
X148192478Y-72289770D01*
X148198782Y-72271360D01*
X148206770Y-72252901D01*
X148206773Y-72252895D01*
X148212194Y-72218664D01*
X148214087Y-72206716D01*
X148215268Y-72201006D01*
X148226900Y-72155708D01*
X148226900Y-72135571D01*
X148228427Y-72116171D01*
X148231574Y-72096303D01*
X148227175Y-72049765D01*
X148226900Y-72043927D01*
X148226900Y-69805964D01*
X148228628Y-69790313D01*
X148228346Y-69790287D01*
X148229080Y-69782524D01*
X148227697Y-69738511D01*
X148245267Y-69670887D01*
X148296607Y-69623496D01*
X148365420Y-69611385D01*
X148429855Y-69638400D01*
X148439317Y-69646936D01*
X152633964Y-73841583D01*
X152667449Y-73902906D01*
X152666058Y-73961356D01*
X152639739Y-74059583D01*
X152639736Y-74059596D01*
X152619141Y-74294999D01*
X152619141Y-74295000D01*
X152639736Y-74530403D01*
X152639738Y-74530413D01*
X152700896Y-74758662D01*
X152702748Y-74763749D01*
X152701973Y-74764030D01*
X152712300Y-74810607D01*
X152712300Y-76319393D01*
X152701973Y-76365974D01*
X152702747Y-76366256D01*
X152700894Y-76371344D01*
X152639738Y-76599586D01*
X152639736Y-76599596D01*
X152619141Y-76834999D01*
X152619141Y-76835000D01*
X152639736Y-77070403D01*
X152639738Y-77070413D01*
X152700894Y-77298655D01*
X152700896Y-77298659D01*
X152700897Y-77298663D01*
X152800764Y-77512829D01*
X152800765Y-77512830D01*
X152800767Y-77512834D01*
X152909081Y-77667521D01*
X152936305Y-77706401D01*
X153103399Y-77873495D01*
X153200184Y-77941264D01*
X153296965Y-78009032D01*
X153296967Y-78009033D01*
X153296970Y-78009035D01*
X153511137Y-78108903D01*
X153739392Y-78170063D01*
X153927718Y-78186539D01*
X153974799Y-78190659D01*
X153974800Y-78190659D01*
X153974801Y-78190659D01*
X154014034Y-78187226D01*
X154210208Y-78170063D01*
X154438463Y-78108903D01*
X154652630Y-78009035D01*
X154846201Y-77873495D01*
X155013295Y-77706401D01*
X155148835Y-77512830D01*
X155248703Y-77298663D01*
X155309863Y-77070408D01*
X155330459Y-76835000D01*
X155309863Y-76599592D01*
X155248703Y-76371337D01*
X155248700Y-76371331D01*
X155246853Y-76366256D01*
X155247626Y-76365974D01*
X155237300Y-76319393D01*
X155237300Y-74810607D01*
X155247626Y-74764030D01*
X155246852Y-74763749D01*
X155248703Y-74758662D01*
X155251497Y-74748234D01*
X155309863Y-74530408D01*
X155330459Y-74295000D01*
X155309863Y-74059592D01*
X155248703Y-73831337D01*
X155148835Y-73617171D01*
X155048915Y-73474469D01*
X155013294Y-73423597D01*
X154846202Y-73256506D01*
X154846196Y-73256501D01*
X154660642Y-73126575D01*
X154617017Y-73071998D01*
X154609823Y-73002500D01*
X154641346Y-72940145D01*
X154660642Y-72923425D01*
X154796821Y-72828071D01*
X154846201Y-72793495D01*
X155013295Y-72626401D01*
X155148835Y-72432830D01*
X155248703Y-72218663D01*
X155309863Y-71990408D01*
X155330459Y-71755000D01*
X155309863Y-71519592D01*
X155286857Y-71433731D01*
X155283541Y-71421356D01*
X155285204Y-71351506D01*
X155315633Y-71301584D01*
X155770443Y-70846774D01*
X155782725Y-70836937D01*
X155782544Y-70836718D01*
X155788552Y-70831746D01*
X155788562Y-70831740D01*
X155836077Y-70781141D01*
X155857023Y-70760196D01*
X155861292Y-70754690D01*
X155865076Y-70750259D01*
X155897093Y-70716167D01*
X155906789Y-70698528D01*
X155917473Y-70682261D01*
X155929808Y-70666362D01*
X155948383Y-70623434D01*
X155950934Y-70618227D01*
X155973472Y-70577234D01*
X155978478Y-70557734D01*
X155984776Y-70539336D01*
X155992774Y-70520858D01*
X156000088Y-70474676D01*
X156001270Y-70468965D01*
X156012900Y-70423672D01*
X156012900Y-70403541D01*
X156014427Y-70384141D01*
X156017575Y-70364267D01*
X156013175Y-70317721D01*
X156012900Y-70311883D01*
X156012900Y-65933364D01*
X156014628Y-65917714D01*
X156014346Y-65917688D01*
X156015080Y-65909925D01*
X156012900Y-65840554D01*
X156012900Y-65810928D01*
X156012900Y-65810924D01*
X156012027Y-65804014D01*
X156011568Y-65798185D01*
X156010999Y-65780076D01*
X156010100Y-65751457D01*
X156004485Y-65732130D01*
X156000538Y-65713068D01*
X155999789Y-65707137D01*
X155999300Y-65699362D01*
X155999300Y-60816164D01*
X156001028Y-60800513D01*
X156000746Y-60800487D01*
X156001480Y-60792724D01*
X155999300Y-60723340D01*
X155999300Y-60693730D01*
X155999300Y-60693724D01*
X155998426Y-60686807D01*
X155997969Y-60680992D01*
X155996501Y-60634260D01*
X155996501Y-60634258D01*
X155990880Y-60614911D01*
X155986937Y-60595865D01*
X155984416Y-60575907D01*
X155967202Y-60532430D01*
X155965318Y-60526926D01*
X155952269Y-60482009D01*
X155942013Y-60464667D01*
X155933462Y-60447210D01*
X155926053Y-60428497D01*
X155898572Y-60390673D01*
X155895368Y-60385795D01*
X155871564Y-60345545D01*
X155871560Y-60345540D01*
X155857331Y-60331312D01*
X155844696Y-60316520D01*
X155832863Y-60300233D01*
X155832860Y-60300231D01*
X155832860Y-60300230D01*
X155832859Y-60300229D01*
X155796835Y-60270428D01*
X155792513Y-60266494D01*
X154881776Y-59355757D01*
X154871931Y-59343468D01*
X154871713Y-59343649D01*
X154866740Y-59337638D01*
X154845838Y-59318010D01*
X154816141Y-59290122D01*
X154805668Y-59279649D01*
X154795197Y-59269177D01*
X154789696Y-59264911D01*
X154785248Y-59261112D01*
X154751168Y-59229108D01*
X154751163Y-59229104D01*
X154733522Y-59219406D01*
X154717257Y-59208722D01*
X154701363Y-59196393D01*
X154701362Y-59196392D01*
X154678612Y-59186547D01*
X154658454Y-59177823D01*
X154653207Y-59175253D01*
X154612237Y-59152729D01*
X154612228Y-59152726D01*
X154592734Y-59147720D01*
X154574333Y-59141420D01*
X154555859Y-59133426D01*
X154555852Y-59133424D01*
X154509687Y-59126113D01*
X154503963Y-59124928D01*
X154458679Y-59113300D01*
X154458672Y-59113300D01*
X154438542Y-59113300D01*
X154419143Y-59111773D01*
X154399268Y-59108625D01*
X154399267Y-59108625D01*
X154352721Y-59113025D01*
X154346883Y-59113300D01*
X134601367Y-59113300D01*
X134585718Y-59111572D01*
X134585692Y-59111854D01*
X134577924Y-59111119D01*
X134508541Y-59113300D01*
X134478922Y-59113300D01*
X134472018Y-59114171D01*
X134466200Y-59114629D01*
X134419460Y-59116098D01*
X134419454Y-59116099D01*
X134400119Y-59121716D01*
X134381080Y-59125659D01*
X134361115Y-59128182D01*
X134361101Y-59128185D01*
X134317635Y-59145394D01*
X134312109Y-59147286D01*
X134267207Y-59160332D01*
X134249884Y-59170577D01*
X134232415Y-59179135D01*
X134213700Y-59186545D01*
X134175875Y-59214026D01*
X134170992Y-59217233D01*
X134130747Y-59241033D01*
X134116506Y-59255274D01*
X134101720Y-59267902D01*
X134085433Y-59279736D01*
X134085432Y-59279736D01*
X134055627Y-59315763D01*
X134051695Y-59320085D01*
X133498353Y-59873426D01*
X133486069Y-59883269D01*
X133486249Y-59883487D01*
X133480238Y-59888459D01*
X133432722Y-59939058D01*
X133411775Y-59960005D01*
X133407506Y-59965509D01*
X133403715Y-59969947D01*
X133371708Y-60004030D01*
X133371705Y-60004034D01*
X133362006Y-60021677D01*
X133351328Y-60037933D01*
X133338994Y-60053834D01*
X133338989Y-60053842D01*
X133320425Y-60096743D01*
X133317854Y-60101991D01*
X133295327Y-60142967D01*
X133290320Y-60162468D01*
X133284021Y-60180864D01*
X133277293Y-60196412D01*
X133276025Y-60199344D01*
X133276024Y-60199346D01*
X133268712Y-60245516D01*
X133267527Y-60251238D01*
X133255900Y-60296523D01*
X133255900Y-60316658D01*
X133254373Y-60336057D01*
X133251225Y-60355931D01*
X133255625Y-60402477D01*
X133255900Y-60408315D01*
X133255900Y-62782032D01*
X133254172Y-62797681D01*
X133254454Y-62797708D01*
X133253719Y-62805475D01*
X133255900Y-62874859D01*
X133255900Y-62904477D01*
X133256771Y-62911380D01*
X133257229Y-62917199D01*
X133258698Y-62963942D01*
X133262155Y-62975841D01*
X133263271Y-62979681D01*
X133264316Y-62983275D01*
X133268262Y-63002329D01*
X133270783Y-63022287D01*
X133270786Y-63022299D01*
X133287995Y-63065765D01*
X133289887Y-63071293D01*
X133302930Y-63116187D01*
X133302930Y-63116188D01*
X133313177Y-63133515D01*
X133321735Y-63150985D01*
X133329145Y-63169701D01*
X133356629Y-63207529D01*
X133359837Y-63212413D01*
X133383634Y-63252652D01*
X133383640Y-63252660D01*
X133397869Y-63266888D01*
X133410509Y-63281687D01*
X133422334Y-63297964D01*
X133422336Y-63297965D01*
X133422337Y-63297967D01*
X133458357Y-63327765D01*
X133462668Y-63331687D01*
X134927570Y-64796589D01*
X136373200Y-66242219D01*
X136406685Y-66303542D01*
X136401701Y-66373234D01*
X136359829Y-66429167D01*
X136294365Y-66453584D01*
X136285519Y-66453900D01*
X134777967Y-66453900D01*
X134762319Y-66452172D01*
X134762293Y-66452454D01*
X134754525Y-66451719D01*
X134685154Y-66453900D01*
X134655521Y-66453900D01*
X134648607Y-66454773D01*
X134642790Y-66455230D01*
X134596058Y-66456699D01*
X134596054Y-66456700D01*
X134576722Y-66462316D01*
X134557682Y-66466259D01*
X134537712Y-66468782D01*
X134537708Y-66468783D01*
X134494237Y-66485994D01*
X134488710Y-66487886D01*
X134443812Y-66500930D01*
X134443810Y-66500931D01*
X134426480Y-66511180D01*
X134409029Y-66519730D01*
X134406361Y-66520786D01*
X134360701Y-66529500D01*
X134231708Y-66529500D01*
X134195408Y-66532356D01*
X134195402Y-66532357D01*
X134040009Y-66577504D01*
X134040006Y-66577505D01*
X133900715Y-66659881D01*
X133900707Y-66659887D01*
X133786287Y-66774307D01*
X133786281Y-66774315D01*
X133703905Y-66913606D01*
X133703905Y-66913607D01*
X133701554Y-66921698D01*
X133663944Y-66980582D01*
X133600470Y-67009785D01*
X133531284Y-67000035D01*
X133494798Y-66974778D01*
X133193619Y-66673599D01*
X133160134Y-66612276D01*
X133157300Y-66585918D01*
X133157300Y-66292586D01*
X133157300Y-66292584D01*
X133150886Y-66222004D01*
X133100278Y-66059594D01*
X133012272Y-65914015D01*
X133012270Y-65914013D01*
X133012269Y-65914011D01*
X132891988Y-65793730D01*
X132876248Y-65784215D01*
X132746406Y-65705722D01*
X132583996Y-65655114D01*
X132583994Y-65655113D01*
X132583992Y-65655113D01*
X132534578Y-65650623D01*
X132513416Y-65648700D01*
X132000184Y-65648700D01*
X131980945Y-65650448D01*
X131929607Y-65655113D01*
X131767193Y-65705722D01*
X131621613Y-65793729D01*
X131519480Y-65895862D01*
X131458157Y-65929346D01*
X131388465Y-65924362D01*
X131344119Y-65895862D01*
X131241985Y-65793728D01*
X131096406Y-65705722D01*
X130933996Y-65655114D01*
X130933994Y-65655113D01*
X130933992Y-65655113D01*
X130884578Y-65650623D01*
X130863416Y-65648700D01*
X130863413Y-65648700D01*
X130570081Y-65648700D01*
X130503042Y-65629015D01*
X130482400Y-65612381D01*
X128598376Y-63728357D01*
X128588531Y-63716068D01*
X128588313Y-63716249D01*
X128583340Y-63710238D01*
X128583340Y-63710237D01*
X128532741Y-63662722D01*
X128522268Y-63652249D01*
X128511797Y-63641777D01*
X128506296Y-63637511D01*
X128501848Y-63633712D01*
X128467768Y-63601708D01*
X128467763Y-63601704D01*
X128450122Y-63592006D01*
X128433857Y-63581322D01*
X128417963Y-63568993D01*
X128417962Y-63568992D01*
X128402804Y-63562432D01*
X128375054Y-63550423D01*
X128369807Y-63547853D01*
X128328837Y-63525329D01*
X128328828Y-63525326D01*
X128309334Y-63520320D01*
X128290933Y-63514020D01*
X128272459Y-63506026D01*
X128272452Y-63506024D01*
X128226287Y-63498713D01*
X128220563Y-63497528D01*
X128175279Y-63485900D01*
X128175272Y-63485900D01*
X128155142Y-63485900D01*
X128135743Y-63484373D01*
X128115868Y-63481225D01*
X128115867Y-63481225D01*
X128069321Y-63485625D01*
X128063483Y-63485900D01*
X123549819Y-63485900D01*
X123482780Y-63466215D01*
X123443563Y-63423834D01*
X123443074Y-63424157D01*
X123441112Y-63421185D01*
X123440626Y-63420660D01*
X123440010Y-63419516D01*
X123440003Y-63419505D01*
X123299213Y-63242960D01*
X123264249Y-63212413D01*
X123183557Y-63141914D01*
X123129160Y-63094388D01*
X123129157Y-63094386D01*
X122935307Y-62978566D01*
X122816954Y-62934147D01*
X122723891Y-62899219D01*
X122501710Y-62858900D01*
X122501707Y-62858900D01*
X120824457Y-62858900D01*
X120793071Y-62861724D01*
X120655893Y-62874070D01*
X120438229Y-62934141D01*
X120438214Y-62934147D01*
X120234773Y-63032119D01*
X120234765Y-63032123D01*
X120052084Y-63164848D01*
X120052082Y-63164849D01*
X119896026Y-63328071D01*
X119771628Y-63516525D01*
X119735220Y-63601707D01*
X119686341Y-63716068D01*
X119682877Y-63724172D01*
X119682875Y-63724178D01*
X119632628Y-63944322D01*
X119632628Y-63944326D01*
X119622496Y-64169906D01*
X119622497Y-64169910D01*
X119652809Y-64393681D01*
X119652810Y-64393684D01*
X119722589Y-64608444D01*
X119829594Y-64807291D01*
X119829596Y-64807294D01*
X119970386Y-64983839D01*
X119970388Y-64983840D01*
X119970389Y-64983842D01*
X119996710Y-65006838D01*
X120140439Y-65132411D01*
X120140440Y-65132412D01*
X120140443Y-65132414D01*
X120334293Y-65248234D01*
X120528975Y-65321300D01*
X120545708Y-65327580D01*
X120767890Y-65367900D01*
X120767893Y-65367900D01*
X122445137Y-65367900D01*
X122445143Y-65367900D01*
X122603243Y-65353670D01*
X122613706Y-65352729D01*
X122831370Y-65292658D01*
X122831375Y-65292655D01*
X122831382Y-65292654D01*
X123034833Y-65194677D01*
X123217521Y-65061947D01*
X123373572Y-64898730D01*
X123440994Y-64796589D01*
X123494355Y-64751484D01*
X123544482Y-64740900D01*
X127784719Y-64740900D01*
X127851758Y-64760585D01*
X127872399Y-64777219D01*
X129669982Y-66574801D01*
X129703466Y-66636122D01*
X129706300Y-66662480D01*
X129706300Y-66955813D01*
X129712713Y-67026392D01*
X129712713Y-67026394D01*
X129712714Y-67026396D01*
X129763322Y-67188806D01*
X129840269Y-67316092D01*
X129851330Y-67334388D01*
X129942981Y-67426039D01*
X129976466Y-67487362D01*
X129979300Y-67513720D01*
X129979300Y-67766680D01*
X129959615Y-67833719D01*
X129942981Y-67854361D01*
X129851331Y-67946010D01*
X129851330Y-67946011D01*
X129763322Y-68091593D01*
X129712713Y-68254007D01*
X129706300Y-68324586D01*
X129706300Y-68987813D01*
X129712713Y-69058392D01*
X129712713Y-69058394D01*
X129712714Y-69058396D01*
X129763322Y-69220806D01*
X129816756Y-69309197D01*
X129851330Y-69366388D01*
X129971611Y-69486669D01*
X129971613Y-69486670D01*
X129971615Y-69486672D01*
X130039952Y-69527983D01*
X130087140Y-69579511D01*
X130098978Y-69648371D01*
X130071709Y-69712699D01*
X130039953Y-69740215D01*
X130020500Y-69751976D01*
X129971611Y-69781530D01*
X129851330Y-69901811D01*
X129763322Y-70047393D01*
X129712713Y-70209807D01*
X129706300Y-70280386D01*
X129706300Y-70943613D01*
X129712713Y-71014192D01*
X129712713Y-71014194D01*
X129712714Y-71014196D01*
X129763322Y-71176606D01*
X129845072Y-71311837D01*
X129851330Y-71322188D01*
X129942981Y-71413839D01*
X129976466Y-71475162D01*
X129979300Y-71501520D01*
X129979300Y-71754480D01*
X129959615Y-71821519D01*
X129942981Y-71842161D01*
X129851331Y-71933810D01*
X129851330Y-71933811D01*
X129763322Y-72079393D01*
X129712713Y-72241807D01*
X129706299Y-72312387D01*
X129706299Y-72605718D01*
X129686614Y-72672758D01*
X129669980Y-72693399D01*
X129413798Y-72949582D01*
X129352478Y-72983066D01*
X129326119Y-72985900D01*
X118749819Y-72985900D01*
X118682780Y-72966215D01*
X118643563Y-72923834D01*
X118643074Y-72924157D01*
X118641112Y-72921185D01*
X118640626Y-72920660D01*
X118640010Y-72919516D01*
X118640003Y-72919505D01*
X118499213Y-72742960D01*
X118329160Y-72594388D01*
X118329157Y-72594386D01*
X118135307Y-72478566D01*
X118016954Y-72434147D01*
X117923891Y-72399219D01*
X117701710Y-72358900D01*
X117701707Y-72358900D01*
X116024457Y-72358900D01*
X115993071Y-72361724D01*
X115855893Y-72374070D01*
X115638229Y-72434141D01*
X115638214Y-72434147D01*
X115434773Y-72532119D01*
X115434765Y-72532123D01*
X115252084Y-72664848D01*
X115252082Y-72664849D01*
X115096026Y-72828071D01*
X114971628Y-73016525D01*
X114882877Y-73224172D01*
X114882875Y-73224178D01*
X114832628Y-73444322D01*
X114832628Y-73444326D01*
X114822496Y-73669906D01*
X111709700Y-73669906D01*
X111709700Y-58341300D01*
X111729385Y-58274261D01*
X111782189Y-58228506D01*
X111833700Y-58217300D01*
X157863500Y-58217300D01*
X157930539Y-58236985D01*
G37*
%TD.AperFunction*%
%TD*%
M02*
