%TF.GenerationSoftware,KiCad,Pcbnew,7.0.7*%
%TF.CreationDate,2023-09-29T20:54:03-04:00*%
%TF.ProjectId,Little_Master_Board,4c697474-6c65-45f4-9d61-737465725f42,B*%
%TF.SameCoordinates,Original*%
%TF.FileFunction,Copper,L2,Bot*%
%TF.FilePolarity,Positive*%
%FSLAX46Y46*%
G04 Gerber Fmt 4.6, Leading zero omitted, Abs format (unit mm)*
G04 Created by KiCad (PCBNEW 7.0.7) date 2023-09-29 20:54:03*
%MOMM*%
%LPD*%
G01*
G04 APERTURE LIST*
%TA.AperFunction,ComponentPad*%
%ADD10R,1.700000X1.700000*%
%TD*%
%TA.AperFunction,ComponentPad*%
%ADD11O,1.700000X1.700000*%
%TD*%
%TA.AperFunction,ComponentPad*%
%ADD12O,1.508000X3.016000*%
%TD*%
%TA.AperFunction,ComponentPad*%
%ADD13O,3.016000X1.508000*%
%TD*%
%TA.AperFunction,ViaPad*%
%ADD14C,0.508000*%
%TD*%
G04 APERTURE END LIST*
D10*
%TO.P,J1,1,Pin_1*%
%TO.N,Net-(J1-Pin_1)*%
X153974800Y-61595000D03*
D11*
%TO.P,J1,2,Pin_2*%
%TO.N,Net-(J1-Pin_2)*%
X153974800Y-64135000D03*
%TO.P,J1,3,Pin_3*%
%TO.N,/T1IN*%
X153974800Y-66675000D03*
%TO.P,J1,4,Pin_4*%
%TO.N,/R1OUT*%
X153974800Y-69215000D03*
%TO.P,J1,5,Pin_5*%
%TO.N,/~{EN}*%
X153974800Y-71755000D03*
%TO.P,J1,6,Pin_6*%
%TO.N,VCC*%
X153974800Y-74295000D03*
%TO.P,J1,7,Pin_7*%
X153974800Y-76835000D03*
%TO.P,J1,8,Pin_8*%
%TO.N,GND*%
X156514800Y-76835000D03*
%TO.P,J1,9,Pin_9*%
X156514800Y-74295000D03*
%TO.P,J1,10,Pin_10*%
X156514800Y-71755000D03*
%TO.P,J1,11,Pin_11*%
X156514800Y-69215000D03*
%TO.P,J1,12,Pin_12*%
X156514800Y-66675000D03*
%TO.P,J1,13,Pin_13*%
X156514800Y-64135000D03*
%TO.P,J1,14,Pin_14*%
X156514800Y-61595000D03*
%TD*%
D10*
%TO.P,J4,1,Pin_1*%
%TO.N,Net-(J1-Pin_2)*%
X138277600Y-61544200D03*
D11*
%TO.P,J4,2,Pin_2*%
%TO.N,GND*%
X135737600Y-61544200D03*
%TD*%
D12*
%TO.P,J3,1,Pin_1*%
%TO.N,GND*%
X113334800Y-69113400D03*
D13*
%TO.P,J3,2,Pin_2*%
%TO.N,Net-(J3-Pin_2)*%
X116834800Y-73613400D03*
%TO.P,J3,3,Pin_3*%
%TO.N,Net-(J3-Pin_3)*%
X121634800Y-64113400D03*
%TD*%
D10*
%TO.P,J2,1,Pin_1*%
%TO.N,Net-(J1-Pin_1)*%
X146354800Y-61544200D03*
D11*
%TO.P,J2,2,Pin_2*%
%TO.N,GND*%
X143814800Y-61544200D03*
%TD*%
D14*
%TO.N,GND*%
X137285800Y-71653400D03*
X148463000Y-67665600D03*
X146431000Y-71631400D03*
X135253800Y-67691000D03*
X135431600Y-70789800D03*
X146431000Y-67731400D03*
%TD*%
%TA.AperFunction,Conductor*%
%TO.N,GND*%
G36*
X157930539Y-58236985D02*
G01*
X157976294Y-58289789D01*
X157987500Y-58341300D01*
X157987500Y-79834700D01*
X157967815Y-79901739D01*
X157915011Y-79947494D01*
X157863500Y-79958700D01*
X111833700Y-79958700D01*
X111766661Y-79939015D01*
X111720906Y-79886211D01*
X111709700Y-79834700D01*
X111709700Y-76835000D01*
X152619141Y-76835000D01*
X152639736Y-77070403D01*
X152639738Y-77070413D01*
X152700894Y-77298655D01*
X152700896Y-77298659D01*
X152700897Y-77298663D01*
X152800764Y-77512829D01*
X152800765Y-77512830D01*
X152800767Y-77512834D01*
X152909081Y-77667521D01*
X152936305Y-77706401D01*
X153103399Y-77873495D01*
X153200184Y-77941264D01*
X153296965Y-78009032D01*
X153296967Y-78009033D01*
X153296970Y-78009035D01*
X153511137Y-78108903D01*
X153739392Y-78170063D01*
X153927718Y-78186539D01*
X153974799Y-78190659D01*
X153974800Y-78190659D01*
X153974801Y-78190659D01*
X154014034Y-78187226D01*
X154210208Y-78170063D01*
X154438463Y-78108903D01*
X154652630Y-78009035D01*
X154846201Y-77873495D01*
X155013295Y-77706401D01*
X155148835Y-77512830D01*
X155248703Y-77298663D01*
X155309863Y-77070408D01*
X155330459Y-76835000D01*
X155309863Y-76599592D01*
X155248703Y-76371337D01*
X155148835Y-76157171D01*
X155013295Y-75963599D01*
X155013294Y-75963597D01*
X154846202Y-75796506D01*
X154846196Y-75796501D01*
X154660642Y-75666575D01*
X154617017Y-75611998D01*
X154609823Y-75542500D01*
X154641346Y-75480145D01*
X154660642Y-75463425D01*
X154682826Y-75447891D01*
X154846201Y-75333495D01*
X155013295Y-75166401D01*
X155148835Y-74972830D01*
X155248703Y-74758663D01*
X155309863Y-74530408D01*
X155330459Y-74295000D01*
X155309863Y-74059592D01*
X155248703Y-73831337D01*
X155148835Y-73617171D01*
X155027809Y-73444326D01*
X155013294Y-73423597D01*
X154846202Y-73256506D01*
X154846196Y-73256501D01*
X154660642Y-73126575D01*
X154617017Y-73071998D01*
X154609823Y-73002500D01*
X154641346Y-72940145D01*
X154660642Y-72923425D01*
X154796821Y-72828071D01*
X154846201Y-72793495D01*
X155013295Y-72626401D01*
X155148835Y-72432830D01*
X155248703Y-72218663D01*
X155309863Y-71990408D01*
X155330459Y-71755000D01*
X155309863Y-71519592D01*
X155248703Y-71291337D01*
X155148835Y-71077171D01*
X155013295Y-70883599D01*
X155013294Y-70883597D01*
X154846202Y-70716506D01*
X154846196Y-70716501D01*
X154660642Y-70586575D01*
X154617017Y-70531998D01*
X154609823Y-70462500D01*
X154641346Y-70400145D01*
X154660642Y-70383425D01*
X154682826Y-70367891D01*
X154846201Y-70253495D01*
X155013295Y-70086401D01*
X155148835Y-69892830D01*
X155248703Y-69678663D01*
X155309863Y-69450408D01*
X155330459Y-69215000D01*
X155309863Y-68979592D01*
X155248703Y-68751337D01*
X155148835Y-68537171D01*
X155013295Y-68343599D01*
X155013294Y-68343597D01*
X154846202Y-68176506D01*
X154846196Y-68176501D01*
X154660642Y-68046575D01*
X154617017Y-67991998D01*
X154609823Y-67922500D01*
X154641346Y-67860145D01*
X154660642Y-67843425D01*
X154682826Y-67827891D01*
X154846201Y-67713495D01*
X155013295Y-67546401D01*
X155148835Y-67352830D01*
X155248703Y-67138663D01*
X155309863Y-66910408D01*
X155330459Y-66675000D01*
X155309863Y-66439592D01*
X155248703Y-66211337D01*
X155148835Y-65997171D01*
X155013295Y-65803599D01*
X155013294Y-65803597D01*
X154846202Y-65636506D01*
X154846196Y-65636501D01*
X154660642Y-65506575D01*
X154617017Y-65451998D01*
X154609823Y-65382500D01*
X154641346Y-65320145D01*
X154660642Y-65303425D01*
X154682826Y-65287891D01*
X154846201Y-65173495D01*
X155013295Y-65006401D01*
X155148835Y-64812830D01*
X155248703Y-64598663D01*
X155309863Y-64370408D01*
X155330459Y-64135000D01*
X155309863Y-63899592D01*
X155248703Y-63671337D01*
X155148835Y-63457171D01*
X155122463Y-63419508D01*
X155013296Y-63263600D01*
X154992654Y-63242958D01*
X154891367Y-63141671D01*
X154857884Y-63080351D01*
X154862868Y-63010659D01*
X154904739Y-62954725D01*
X154935715Y-62937810D01*
X155067131Y-62888796D01*
X155182346Y-62802546D01*
X155268596Y-62687331D01*
X155318891Y-62552483D01*
X155325300Y-62492873D01*
X155325299Y-60697128D01*
X155318891Y-60637517D01*
X155299943Y-60586716D01*
X155268597Y-60502671D01*
X155268593Y-60502664D01*
X155182347Y-60387455D01*
X155182344Y-60387452D01*
X155067135Y-60301206D01*
X155067128Y-60301202D01*
X154932282Y-60250908D01*
X154932283Y-60250908D01*
X154872683Y-60244501D01*
X154872681Y-60244500D01*
X154872673Y-60244500D01*
X154872664Y-60244500D01*
X153076929Y-60244500D01*
X153076923Y-60244501D01*
X153017316Y-60250908D01*
X152882471Y-60301202D01*
X152882464Y-60301206D01*
X152767255Y-60387452D01*
X152767252Y-60387455D01*
X152681006Y-60502664D01*
X152681002Y-60502671D01*
X152630708Y-60637517D01*
X152624301Y-60697116D01*
X152624301Y-60697123D01*
X152624300Y-60697135D01*
X152624300Y-62492870D01*
X152624301Y-62492876D01*
X152630708Y-62552483D01*
X152681002Y-62687328D01*
X152681006Y-62687335D01*
X152767252Y-62802544D01*
X152767255Y-62802547D01*
X152882464Y-62888793D01*
X152882471Y-62888797D01*
X153013881Y-62937810D01*
X153069815Y-62979681D01*
X153094232Y-63045145D01*
X153079380Y-63113418D01*
X153058230Y-63141673D01*
X152936303Y-63263600D01*
X152800765Y-63457169D01*
X152800764Y-63457171D01*
X152700898Y-63671335D01*
X152700894Y-63671344D01*
X152639738Y-63899586D01*
X152639736Y-63899596D01*
X152619141Y-64134999D01*
X152619141Y-64135000D01*
X152639736Y-64370403D01*
X152639738Y-64370413D01*
X152700894Y-64598655D01*
X152700896Y-64598659D01*
X152700897Y-64598663D01*
X152705458Y-64608443D01*
X152800765Y-64812830D01*
X152800767Y-64812834D01*
X152936301Y-65006395D01*
X152936306Y-65006402D01*
X153103397Y-65173493D01*
X153103403Y-65173498D01*
X153288958Y-65303425D01*
X153332583Y-65358002D01*
X153339777Y-65427500D01*
X153308254Y-65489855D01*
X153288958Y-65506575D01*
X153103397Y-65636505D01*
X152936305Y-65803597D01*
X152800765Y-65997169D01*
X152800764Y-65997171D01*
X152700898Y-66211335D01*
X152700894Y-66211344D01*
X152639738Y-66439586D01*
X152639736Y-66439596D01*
X152619141Y-66674999D01*
X152619141Y-66675000D01*
X152639736Y-66910403D01*
X152639738Y-66910413D01*
X152700894Y-67138655D01*
X152700896Y-67138659D01*
X152700897Y-67138663D01*
X152800764Y-67352829D01*
X152800765Y-67352830D01*
X152800767Y-67352834D01*
X152936301Y-67546395D01*
X152936306Y-67546402D01*
X153103397Y-67713493D01*
X153103403Y-67713498D01*
X153288958Y-67843425D01*
X153332583Y-67898002D01*
X153339777Y-67967500D01*
X153308254Y-68029855D01*
X153288958Y-68046575D01*
X153103397Y-68176505D01*
X152936305Y-68343597D01*
X152800765Y-68537169D01*
X152800764Y-68537171D01*
X152700898Y-68751335D01*
X152700894Y-68751344D01*
X152639738Y-68979586D01*
X152639736Y-68979596D01*
X152619141Y-69214999D01*
X152619141Y-69215000D01*
X152639736Y-69450403D01*
X152639738Y-69450413D01*
X152700894Y-69678655D01*
X152700896Y-69678659D01*
X152700897Y-69678663D01*
X152800765Y-69892829D01*
X152800765Y-69892830D01*
X152800767Y-69892834D01*
X152936301Y-70086395D01*
X152936306Y-70086402D01*
X153103397Y-70253493D01*
X153103403Y-70253498D01*
X153288958Y-70383425D01*
X153332583Y-70438002D01*
X153339777Y-70507500D01*
X153308254Y-70569855D01*
X153288958Y-70586575D01*
X153103397Y-70716505D01*
X152936305Y-70883597D01*
X152800765Y-71077169D01*
X152800764Y-71077171D01*
X152700898Y-71291335D01*
X152700894Y-71291344D01*
X152639738Y-71519586D01*
X152639736Y-71519596D01*
X152619141Y-71754999D01*
X152619141Y-71755000D01*
X152639736Y-71990403D01*
X152639738Y-71990413D01*
X152700894Y-72218655D01*
X152700896Y-72218659D01*
X152700897Y-72218663D01*
X152766291Y-72358900D01*
X152800765Y-72432830D01*
X152800767Y-72432834D01*
X152936301Y-72626395D01*
X152936306Y-72626402D01*
X153103397Y-72793493D01*
X153103403Y-72793498D01*
X153288958Y-72923425D01*
X153332583Y-72978002D01*
X153339777Y-73047500D01*
X153308254Y-73109855D01*
X153288958Y-73126575D01*
X153103397Y-73256505D01*
X152936305Y-73423597D01*
X152800765Y-73617169D01*
X152800764Y-73617171D01*
X152700898Y-73831335D01*
X152700894Y-73831344D01*
X152639738Y-74059586D01*
X152639736Y-74059596D01*
X152619141Y-74294999D01*
X152619141Y-74295000D01*
X152639736Y-74530403D01*
X152639738Y-74530413D01*
X152700894Y-74758655D01*
X152700896Y-74758659D01*
X152700897Y-74758663D01*
X152733034Y-74827580D01*
X152800765Y-74972830D01*
X152800767Y-74972834D01*
X152936301Y-75166395D01*
X152936306Y-75166402D01*
X153103397Y-75333493D01*
X153103403Y-75333498D01*
X153288958Y-75463425D01*
X153332583Y-75518002D01*
X153339777Y-75587500D01*
X153308254Y-75649855D01*
X153288958Y-75666575D01*
X153103397Y-75796505D01*
X152936305Y-75963597D01*
X152800765Y-76157169D01*
X152800764Y-76157171D01*
X152700898Y-76371335D01*
X152700894Y-76371344D01*
X152639738Y-76599586D01*
X152639736Y-76599596D01*
X152619141Y-76834999D01*
X152619141Y-76835000D01*
X111709700Y-76835000D01*
X111709700Y-73669906D01*
X114822496Y-73669906D01*
X114822497Y-73669910D01*
X114852809Y-73893681D01*
X114852810Y-73893684D01*
X114922589Y-74108444D01*
X115029594Y-74307291D01*
X115029596Y-74307294D01*
X115170386Y-74483839D01*
X115340439Y-74632411D01*
X115340440Y-74632412D01*
X115340443Y-74632414D01*
X115534293Y-74748234D01*
X115745707Y-74827580D01*
X115745708Y-74827580D01*
X115967890Y-74867900D01*
X115967893Y-74867900D01*
X117645137Y-74867900D01*
X117645143Y-74867900D01*
X117803243Y-74853670D01*
X117813706Y-74852729D01*
X118031370Y-74792658D01*
X118031375Y-74792655D01*
X118031382Y-74792654D01*
X118234833Y-74694677D01*
X118417521Y-74561947D01*
X118573572Y-74398730D01*
X118697973Y-74210271D01*
X118786723Y-74002629D01*
X118836972Y-73782476D01*
X118847103Y-73556890D01*
X118816791Y-73333119D01*
X118747011Y-73118357D01*
X118640004Y-72919506D01*
X118567086Y-72828070D01*
X118499213Y-72742960D01*
X118329160Y-72594388D01*
X118224946Y-72532123D01*
X118135307Y-72478566D01*
X118016954Y-72434147D01*
X117923891Y-72399219D01*
X117701710Y-72358900D01*
X117701707Y-72358900D01*
X116024457Y-72358900D01*
X115993071Y-72361724D01*
X115855893Y-72374070D01*
X115638229Y-72434141D01*
X115638214Y-72434147D01*
X115434773Y-72532119D01*
X115434765Y-72532123D01*
X115252084Y-72664848D01*
X115252082Y-72664849D01*
X115096026Y-72828071D01*
X114971628Y-73016525D01*
X114882877Y-73224172D01*
X114882875Y-73224178D01*
X114832628Y-73444322D01*
X114832628Y-73444326D01*
X114822496Y-73669906D01*
X111709700Y-73669906D01*
X111709700Y-64169906D01*
X119622496Y-64169906D01*
X119622497Y-64169910D01*
X119652809Y-64393681D01*
X119652810Y-64393684D01*
X119722589Y-64608444D01*
X119829594Y-64807291D01*
X119829596Y-64807294D01*
X119970386Y-64983839D01*
X120140439Y-65132411D01*
X120140440Y-65132412D01*
X120140443Y-65132414D01*
X120334293Y-65248234D01*
X120525898Y-65320145D01*
X120545708Y-65327580D01*
X120767890Y-65367900D01*
X120767893Y-65367900D01*
X122445137Y-65367900D01*
X122445143Y-65367900D01*
X122603243Y-65353670D01*
X122613706Y-65352729D01*
X122831370Y-65292658D01*
X122831375Y-65292655D01*
X122831382Y-65292654D01*
X123034833Y-65194677D01*
X123217521Y-65061947D01*
X123373572Y-64898730D01*
X123497973Y-64710271D01*
X123586723Y-64502629D01*
X123636972Y-64282476D01*
X123647103Y-64056890D01*
X123616791Y-63833119D01*
X123547011Y-63618357D01*
X123440004Y-63419506D01*
X123299211Y-63242958D01*
X123209807Y-63164848D01*
X123129160Y-63094388D01*
X123024946Y-63032123D01*
X122935307Y-62978566D01*
X122816954Y-62934147D01*
X122723891Y-62899219D01*
X122501710Y-62858900D01*
X122501707Y-62858900D01*
X120824457Y-62858900D01*
X120793071Y-62861724D01*
X120655893Y-62874070D01*
X120438229Y-62934141D01*
X120438214Y-62934147D01*
X120234773Y-63032119D01*
X120234765Y-63032123D01*
X120052084Y-63164848D01*
X120052082Y-63164849D01*
X119896026Y-63328071D01*
X119771628Y-63516525D01*
X119682877Y-63724172D01*
X119682875Y-63724178D01*
X119632628Y-63944322D01*
X119632628Y-63944326D01*
X119622496Y-64169906D01*
X111709700Y-64169906D01*
X111709700Y-62442070D01*
X136927100Y-62442070D01*
X136927101Y-62442076D01*
X136933508Y-62501683D01*
X136983802Y-62636528D01*
X136983806Y-62636535D01*
X137070052Y-62751744D01*
X137070055Y-62751747D01*
X137185264Y-62837993D01*
X137185271Y-62837997D01*
X137320117Y-62888291D01*
X137320116Y-62888291D01*
X137324786Y-62888793D01*
X137379727Y-62894700D01*
X139175472Y-62894699D01*
X139235083Y-62888291D01*
X139369931Y-62837996D01*
X139485146Y-62751746D01*
X139571396Y-62636531D01*
X139621691Y-62501683D01*
X139628100Y-62442073D01*
X139628100Y-62442070D01*
X145004300Y-62442070D01*
X145004301Y-62442076D01*
X145010708Y-62501683D01*
X145061002Y-62636528D01*
X145061006Y-62636535D01*
X145147252Y-62751744D01*
X145147255Y-62751747D01*
X145262464Y-62837993D01*
X145262471Y-62837997D01*
X145397317Y-62888291D01*
X145397316Y-62888291D01*
X145401986Y-62888793D01*
X145456927Y-62894700D01*
X147252672Y-62894699D01*
X147312283Y-62888291D01*
X147447131Y-62837996D01*
X147562346Y-62751746D01*
X147648596Y-62636531D01*
X147698891Y-62501683D01*
X147705300Y-62442073D01*
X147705299Y-60646328D01*
X147698891Y-60586717D01*
X147667541Y-60502664D01*
X147648597Y-60451871D01*
X147648593Y-60451864D01*
X147562347Y-60336655D01*
X147562344Y-60336652D01*
X147447135Y-60250406D01*
X147447128Y-60250402D01*
X147312282Y-60200108D01*
X147312283Y-60200108D01*
X147252683Y-60193701D01*
X147252681Y-60193700D01*
X147252673Y-60193700D01*
X147252664Y-60193700D01*
X145456929Y-60193700D01*
X145456923Y-60193701D01*
X145397316Y-60200108D01*
X145262471Y-60250402D01*
X145262464Y-60250406D01*
X145147255Y-60336652D01*
X145147252Y-60336655D01*
X145061006Y-60451864D01*
X145061002Y-60451871D01*
X145010708Y-60586717D01*
X145005247Y-60637516D01*
X145004301Y-60646323D01*
X145004300Y-60646335D01*
X145004300Y-62442070D01*
X139628100Y-62442070D01*
X139628099Y-60646328D01*
X139621691Y-60586717D01*
X139590341Y-60502664D01*
X139571397Y-60451871D01*
X139571393Y-60451864D01*
X139485147Y-60336655D01*
X139485144Y-60336652D01*
X139369935Y-60250406D01*
X139369928Y-60250402D01*
X139235082Y-60200108D01*
X139235083Y-60200108D01*
X139175483Y-60193701D01*
X139175481Y-60193700D01*
X139175473Y-60193700D01*
X139175464Y-60193700D01*
X137379729Y-60193700D01*
X137379723Y-60193701D01*
X137320116Y-60200108D01*
X137185271Y-60250402D01*
X137185264Y-60250406D01*
X137070055Y-60336652D01*
X137070052Y-60336655D01*
X136983806Y-60451864D01*
X136983802Y-60451871D01*
X136933508Y-60586717D01*
X136928047Y-60637516D01*
X136927101Y-60646323D01*
X136927100Y-60646335D01*
X136927100Y-62442070D01*
X111709700Y-62442070D01*
X111709700Y-58341300D01*
X111729385Y-58274261D01*
X111782189Y-58228506D01*
X111833700Y-58217300D01*
X157863500Y-58217300D01*
X157930539Y-58236985D01*
G37*
%TD.AperFunction*%
%TD*%
M02*
